<svg width="500" height="500" viewBox="0 0 500 500" fill="none" xmlns="http://www.w3.org/2000/svg">
<path d="M407.319 114.93L405.249 111.52C387.839 82.8299 356.369 65.5199 323.179 67.6399C318.906 67.9094 314.658 68.491 310.469 69.3799C280.299 75.8399 254.039 98.6599 243.159 127.88C236.759 145.07 234.969 164.88 222.829 178.5C207.019 196.25 180.179 196.81 156.589 196.08C132.999 195.35 106.139 195.97 90.4091 213.79C80.5591 224.96 77.4091 240.79 78.2191 255.79C80.3291 295.37 107.909 330.79 142.979 348.35C178.049 365.91 219.349 367.52 257.739 359.78C311.509 348.94 362.649 319.17 393.389 273.19C424.129 227.21 431.909 164.56 407.319 114.93Z" fill="#F5F5F5"/>
<path d="M317.121 269.6C310.281 263 294.601 265.09 291.171 269.95C288.295 268.809 285.089 268.824 282.223 269.99C279.358 271.157 277.053 273.385 275.791 276.21L259.281 281C256.461 281.81 253.521 282.7 251.451 284.77C249.381 286.84 248.591 290.51 250.551 292.69C244.751 294.61 243.011 303.55 247.671 307.5C247.149 308.191 246.774 308.981 246.568 309.823C246.363 310.664 246.331 311.538 246.475 312.392C246.619 313.246 246.936 314.061 247.407 314.788C247.877 315.515 248.491 316.139 249.211 316.62C244.942 322.487 241.709 329.042 239.651 336C238.791 338.9 238.151 342.12 239.391 344.88C240.631 347.64 244.481 349.35 246.811 347.42C246.069 348.639 245.692 350.045 245.724 351.471C245.755 352.898 246.195 354.286 246.991 355.47C244.161 355.72 243.611 360.16 245.691 362.09C247.771 364.02 250.951 364.03 253.781 363.78C256.611 363.53 259.671 363.18 262.101 364.65C262.1 364.996 262.028 365.339 261.891 365.657C261.753 365.975 261.553 366.262 261.301 366.5C256.691 370.78 255.761 377.69 259.741 382.5L260.741 383.74C262.541 385.96 266.741 387.83 269.361 388.98C275.981 391.9 279.761 390.98 286.981 391.58C285.331 396.33 297.621 405.78 310.261 394.86C337.261 400.25 356.561 401.7 384.031 399.97C387.951 399.72 392.631 398.88 394.141 395.25C397.371 395.89 400.701 394.19 402.901 391.73C405.101 389.27 406.371 386.16 407.611 383.1C410.934 381.899 413.804 379.697 415.824 376.797C417.844 373.898 418.915 370.444 418.891 366.91C421.07 364.948 422.818 362.554 424.023 359.881C425.228 357.207 425.864 354.312 425.891 351.38C432.351 348.93 435.431 340.13 431.891 334.19C429.934 326.179 426.666 318.546 422.221 311.6C426.651 310.33 427.941 304.16 425.821 300.07C423.701 295.98 419.431 293.55 415.391 291.33C418.801 292.01 421.451 287.59 420.391 284.26C419.331 280.93 416.171 278.8 413.081 277.26C408.533 274.92 403.718 273.14 398.741 271.96C396.741 266.15 388.741 259.91 383.051 257.66C360.051 248.55 344.181 246.91 317.051 269.66" fill="#263238"/>
<path d="M382.611 351.82C383.405 350.791 384.434 349.968 385.611 349.42H385.361C385.583 349.343 385.81 349.287 386.041 349.25C386.448 349.089 386.883 349.013 387.32 349.027C387.756 349.041 388.186 349.144 388.581 349.33C390.027 349.71 391.278 350.616 392.091 351.87C392.733 352.99 393.056 354.264 393.024 355.555C392.993 356.846 392.608 358.103 391.911 359.19C391.416 360.154 390.641 360.948 389.689 361.466C388.736 361.984 387.65 362.203 386.571 362.096C385.492 361.988 384.47 361.557 383.639 360.861C382.808 360.164 382.206 359.234 381.911 358.19C381.484 357.155 381.324 356.029 381.446 354.915C381.569 353.802 381.969 352.738 382.611 351.82Z" fill="#F57359"/>
<path d="M382.121 308.09C379.331 292.82 366.901 275.16 351.771 278.6L305.361 296.36C303.14 296.86 301.189 298.175 299.893 300.046C298.596 301.916 298.049 304.206 298.361 306.46L312.121 408.78C312.991 415.246 316.068 421.214 320.831 425.673C325.594 430.131 331.751 432.808 338.261 433.25C342.309 433.523 346.368 432.924 350.164 431.492C353.961 430.06 357.405 427.829 360.264 424.95C363.123 422.071 365.33 418.612 366.735 414.806C368.141 411 368.712 406.936 368.411 402.89C367.881 395.83 367.501 390.52 367.501 390.56C367.501 390.6 386.761 384.97 387.801 358.85C388.331 345.87 385.221 325 382.121 308.09Z" fill="#876760"/>
<path d="M374.451 329.68C374.56 330.536 374.331 331.401 373.811 332.09C373.292 332.78 372.524 333.239 371.671 333.37C371.257 333.454 370.83 333.454 370.416 333.37C370.002 333.285 369.609 333.119 369.26 332.88C368.911 332.642 368.614 332.335 368.386 331.98C368.158 331.624 368.003 331.227 367.931 330.81C367.822 329.956 368.05 329.092 368.567 328.403C369.084 327.714 369.85 327.254 370.701 327.12C371.116 327.036 371.543 327.036 371.958 327.12C372.373 327.204 372.766 327.371 373.116 327.609C373.465 327.848 373.764 328.154 373.993 328.51C374.222 328.865 374.378 329.263 374.451 329.68Z" fill="#263238"/>
<path d="M378.87 319.5C378.51 319.97 375.8 318.42 372.27 318.85C368.74 319.28 366.35 321.36 365.91 320.97C365.7 320.8 366.03 319.97 367.06 318.97C368.458 317.732 370.204 316.957 372.06 316.75C373.894 316.512 375.757 316.862 377.38 317.75C378.59 318.55 379.05 319.28 378.87 319.5Z" fill="#263238"/>
<path d="M342.59 332.86C342.699 333.716 342.469 334.581 341.95 335.27C341.431 335.96 340.663 336.419 339.81 336.55C339.396 336.634 338.969 336.634 338.555 336.549C338.141 336.465 337.748 336.299 337.399 336.06C337.05 335.822 336.753 335.515 336.525 335.16C336.296 334.804 336.142 334.406 336.07 333.99C335.96 333.135 336.189 332.272 336.706 331.583C337.223 330.894 337.989 330.434 338.84 330.3C339.255 330.216 339.682 330.216 340.097 330.3C340.511 330.384 340.905 330.551 341.255 330.789C341.604 331.028 341.902 331.334 342.132 331.69C342.361 332.045 342.517 332.443 342.59 332.86Z" fill="#263238"/>
<path d="M344.181 324.27C343.821 324.75 341.111 323.2 337.581 323.63C334.051 324.06 331.661 326.14 331.221 325.75C331.011 325.58 331.331 324.75 332.371 323.8C333.771 322.563 335.516 321.785 337.371 321.57C339.211 321.353 341.072 321.72 342.691 322.62C343.891 323.33 344.361 324.06 344.181 324.27Z" fill="#263238"/>
<path d="M360.12 349C360.12 348.8 362.24 348.16 365.75 347.28C366.64 347.08 367.47 346.8 367.55 346.16C367.515 345.22 367.194 344.313 366.63 343.56L363.14 337C358.28 327.64 354.64 319.91 355.01 319.72C355.38 319.53 359.65 326.95 364.52 336.3C365.69 338.61 366.82 340.81 367.89 342.92C368.592 343.941 368.907 345.178 368.78 346.41C368.688 346.744 368.519 347.052 368.289 347.31C368.058 347.568 367.771 347.77 367.45 347.9C366.97 348.099 366.466 348.233 365.95 348.3C362.38 348.91 360.16 349.19 360.12 349Z" fill="#263238"/>
<path d="M367.521 390.56C355.474 392.171 343.217 390.409 332.111 385.47C332.111 385.47 342.531 402.09 367.901 396.65L367.521 390.56Z" fill="#664D49"/>
<path d="M360.601 357.46C359.667 356.385 358.485 355.555 357.157 355.041C355.829 354.527 354.396 354.345 352.981 354.51C352.059 354.629 351.179 354.972 350.419 355.509C349.659 356.046 349.042 356.76 348.621 357.59C348.212 358.521 348.068 359.546 348.204 360.553C348.34 361.56 348.751 362.511 349.391 363.3C350.136 364.108 351.107 364.672 352.178 364.918C353.248 365.165 354.369 365.081 355.391 364.68C357.286 363.806 358.943 362.489 360.221 360.84C360.658 360.437 361 359.942 361.221 359.39C361.323 359.088 361.344 358.766 361.282 358.454C361.221 358.141 361.079 357.851 360.871 357.61" fill="#664D49"/>
<path d="M350.001 352.67C350.571 352.57 351.001 356.4 354.651 358.74C358.301 361.08 362.291 360.17 362.381 360.74C362.471 360.98 361.561 361.6 359.841 361.85C357.594 362.15 355.313 361.647 353.401 360.43C351.573 359.256 350.269 357.422 349.761 355.31C349.421 353.68 349.741 352.68 350.001 352.67Z" fill="#263238"/>
<path d="M344.001 309.53C343.761 310.53 340.181 310.53 336.091 311.53C332.001 312.53 328.771 314.05 328.091 313.26C327.791 312.87 328.271 311.9 329.511 310.81C331.182 309.455 333.14 308.497 335.237 308.011C337.333 307.524 339.513 307.52 341.611 308C343.261 308.39 344.111 309.05 344.001 309.53Z" fill="#263238"/>
<path d="M376.181 307.47C375.661 308.35 373.121 307.8 370.181 308.11C367.241 308.42 364.831 309.29 364.181 308.52C363.881 308.14 364.181 307.29 365.181 306.4C366.531 305.319 368.17 304.661 369.893 304.51C371.615 304.358 373.344 304.72 374.861 305.55C376.001 306.26 376.411 307 376.181 307.47Z" fill="#263238"/>
<path d="M394.58 319.6C394.181 315.531 392.386 311.726 389.5 308.83C387.87 307.33 385.87 306.24 384.4 304.58C381.22 300.99 381.25 295.68 379.68 291.15C378.637 288.232 376.914 285.604 374.653 283.484C372.393 281.364 369.66 279.813 366.68 278.96C361.68 277.6 356.27 278.23 351.57 276.16C348.09 274.63 345.32 271.73 341.76 270.41C334.82 267.83 327.29 271.85 321.23 276.09C320.34 281.22 323.84 285.34 327.23 289.3C328.939 291.273 331.054 292.852 333.431 293.929C335.808 295.007 338.391 295.556 341 295.54C345 295.48 349.66 294.23 352.7 296.89C355.74 299.55 355.13 305.09 357.82 308.36C361.68 313.05 369.48 310.59 374.93 313.26C379.14 315.32 381.19 320.02 383.53 324.08C385.87 328.14 389.7 332.27 394.35 331.71C394.891 327.696 394.968 323.632 394.58 319.6Z" fill="#263238"/>
<path d="M331.94 284.52C320.149 285.211 308.603 288.179 297.94 293.26C294.78 294.78 291.52 296.64 289.88 299.74C288.44 302.47 288.48 305.74 288.74 308.8C289.56 318.42 294.31 329.93 298.64 338.57L311.2 344.89C320.3 342.01 314.87 326.33 313.84 318.34C316.954 316.629 319.525 314.08 321.263 310.981C323.001 307.883 323.835 304.359 323.67 300.81C326.187 298.893 328.238 296.432 329.67 293.611C331.102 290.791 331.878 287.683 331.94 284.52Z" fill="#263238"/>
<path d="M310.781 341.44C310.011 335.96 303.161 335.38 298.641 338.57C296.151 340.32 294.421 343.57 295.191 349.37C297.191 364.91 312.401 359.65 312.371 359.2C312.351 358.93 311.681 347.86 310.781 341.44Z" fill="#876760"/>
<path d="M306.85 353.94C306.78 353.94 306.61 354.17 306.18 354.44C305.576 354.792 304.861 354.899 304.18 354.74C302.46 354.36 300.73 351.93 300.29 349.14C300.077 347.805 300.162 346.439 300.54 345.14C300.621 344.635 300.823 344.157 301.13 343.748C301.436 343.338 301.838 343.01 302.3 342.79C302.602 342.668 302.937 342.656 303.247 342.754C303.558 342.853 303.824 343.057 304 343.33C304.26 343.73 304.2 344.06 304.29 344.07C304.38 344.08 304.59 343.77 304.38 343.14C304.243 342.767 303.982 342.453 303.64 342.25C303.17 341.983 302.613 341.912 302.09 342.05C301.47 342.262 300.915 342.629 300.475 343.115C300.036 343.602 299.728 344.192 299.58 344.83C299.1 346.262 298.973 347.789 299.21 349.28C299.72 352.4 301.71 355.12 304.04 355.47C304.473 355.54 304.915 355.51 305.334 355.384C305.753 355.257 306.138 355.037 306.46 354.74C306.87 354.32 306.91 354 306.85 353.94Z" fill="#664D49"/>
<path d="M298.381 358.07C299.175 357.042 300.204 356.219 301.381 355.67H301.141C301.361 355.596 301.584 355.536 301.811 355.49C302.218 355.331 302.654 355.257 303.091 355.272C303.527 355.288 303.956 355.392 304.351 355.58C305.791 355.96 307.039 356.861 307.851 358.11C308.493 359.23 308.816 360.505 308.784 361.795C308.753 363.086 308.368 364.343 307.671 365.43C307.179 366.399 306.406 367.197 305.452 367.718C304.499 368.24 303.41 368.461 302.329 368.353C301.248 368.245 300.224 367.812 299.393 367.112C298.562 366.412 297.962 365.477 297.671 364.43C297.251 363.395 297.095 362.271 297.219 361.16C297.343 360.049 297.743 358.987 298.381 358.07Z" fill="#F57359"/>
<path d="M305.601 360.63C305.601 360.63 305.601 360.7 305.601 360.84C305.577 361.051 305.519 361.257 305.431 361.45C305.091 362.211 304.497 362.829 303.751 363.2C302.573 363.822 301.279 364.194 299.951 364.29C299.113 364.375 298.269 364.375 297.431 364.29C296.475 364.227 295.534 364.018 294.641 363.67L294.821 363.56C294.701 364.898 294.238 366.181 293.475 367.287C292.713 368.393 291.678 369.283 290.471 369.87C289.263 370.458 287.924 370.723 286.584 370.641C285.244 370.559 283.947 370.131 282.821 369.4L283.091 369.33C282.665 370.072 281.965 370.618 281.141 370.85C280.312 371.095 279.43 371.095 278.601 370.85C277.737 370.599 276.978 370.072 276.441 369.35C275.904 368.61 275.56 367.747 275.441 366.84C275.238 364.963 275.706 363.075 276.761 361.51C277.85 359.92 279.133 358.472 280.581 357.2L280.631 357.56C279.953 357.199 279.358 356.7 278.885 356.096C278.411 355.491 278.069 354.794 277.881 354.05C277.462 352.526 277.501 350.913 277.991 349.41C278.534 347.902 279.362 346.514 280.431 345.32C281.515 344.115 282.674 342.979 283.901 341.92V342.28C283.294 341.717 282.814 341.032 282.492 340.271C282.169 339.509 282.012 338.687 282.031 337.86C282.013 336.166 282.508 334.507 283.451 333.1C285.271 330.39 288.081 328.76 290.671 327.23L290.561 327.51C290.037 325.914 289.908 324.216 290.185 322.56C290.461 320.903 291.135 319.339 292.149 318C293.162 316.661 294.485 315.588 296.004 314.872C297.523 314.156 299.193 313.819 300.871 313.89L300.651 314.17C300.304 312.847 300.263 311.462 300.532 310.121C300.8 308.78 301.371 307.518 302.201 306.43C302.93 305.389 303.874 304.518 304.97 303.874C306.065 303.23 307.287 302.83 308.551 302.7L308.371 302.91C308.308 301.583 308.546 300.26 309.065 299.038C309.584 297.815 310.373 296.726 311.371 295.85C312.226 295.056 313.233 294.445 314.331 294.053C315.43 293.661 316.597 293.497 317.761 293.57L317.601 293.74C317.582 292.311 317.926 290.9 318.601 289.64C319.145 288.527 319.872 287.513 320.751 286.64C322.128 285.195 323.947 284.248 325.921 283.95L326.501 283.87H327.061C327.394 283.843 327.728 283.843 328.061 283.87C328.575 283.932 329.083 284.036 329.581 284.18L330.481 284.49C330.585 284.519 330.686 284.559 330.781 284.61L330.471 284.53L329.561 284.26C329.048 284.134 328.527 284.047 328.001 284C327.668 283.978 327.334 283.978 327.001 284H326.451L325.881 284.09C323.964 284.419 322.208 285.368 320.881 286.79C320.023 287.665 319.319 288.679 318.801 289.79C318.17 291.01 317.854 292.367 317.881 293.74V293.92H317.711C316.591 293.859 315.471 294.025 314.418 294.408C313.364 294.792 312.399 295.384 311.581 296.15C310.62 296.987 309.86 298.031 309.36 299.204C308.859 300.376 308.631 301.647 308.691 302.92V303.12H308.491C307.293 303.255 306.139 303.644 305.104 304.262C304.069 304.879 303.178 305.71 302.491 306.7C301.701 307.738 301.158 308.941 300.904 310.22C300.649 311.499 300.689 312.819 301.021 314.08L301.111 314.37H300.801C299.201 314.308 297.61 314.633 296.163 315.318C294.716 316.003 293.456 317.027 292.49 318.303C291.524 319.58 290.88 321.071 290.614 322.649C290.348 324.228 290.467 325.847 290.961 327.37L291.021 327.55L290.851 327.65C288.271 329.18 285.521 330.79 283.791 333.37C282.904 334.702 282.437 336.27 282.451 337.87C282.433 338.629 282.576 339.383 282.871 340.083C283.166 340.783 283.605 341.412 284.161 341.93L284.361 342.11L284.161 342.28C281.761 344.42 279.351 346.66 278.381 349.57C277.915 350.981 277.877 352.498 278.271 353.93C278.436 354.617 278.746 355.261 279.179 355.819C279.611 356.377 280.157 356.838 280.781 357.17L281.061 357.32L280.831 357.53C279.413 358.781 278.15 360.198 277.071 361.75C276.076 363.217 275.626 364.986 275.801 366.75C275.857 367.577 276.157 368.368 276.663 369.025C277.168 369.681 277.856 370.174 278.641 370.44C279.363 370.71 280.154 370.729 280.889 370.495C281.623 370.261 282.258 369.788 282.691 369.15L282.791 368.97L282.951 369.08C284.127 369.835 285.489 370.25 286.887 370.28C288.284 370.31 289.663 369.954 290.871 369.25C291.871 368.636 292.717 367.801 293.344 366.81C293.971 365.818 294.364 364.696 294.491 363.53V363.35L294.651 363.42C295.516 363.768 296.43 363.98 297.361 364.05C298.186 364.125 299.016 364.125 299.841 364.05C301.146 363.979 302.423 363.639 303.591 363.05C304.323 362.699 304.917 362.115 305.281 361.39C305.551 360.92 305.571 360.62 305.601 360.63Z" fill="#444545"/>
<path d="M244.94 348.27C244.691 347.996 244.47 347.698 244.28 347.38C243.737 346.458 243.381 345.439 243.23 344.38C242.977 342.658 243.301 340.9 244.15 339.38C244.722 338.376 245.497 337.502 246.425 336.814C247.353 336.125 248.414 335.637 249.54 335.38L249.42 335.58C248.705 332.963 249.009 330.172 250.27 327.77C250.949 326.426 251.907 325.243 253.08 324.3C254.378 323.406 255.758 322.636 257.2 322C257.928 321.643 258.601 321.185 259.2 320.64C259.771 320.077 260.208 319.394 260.48 318.64C261.07 317.1 261.16 315.31 261.92 313.64C262.734 311.928 264.041 310.498 265.673 309.534C267.305 308.57 269.188 308.116 271.08 308.23L270.83 308.51C270.422 306.635 270.451 304.69 270.913 302.828C271.376 300.965 272.26 299.233 273.498 297.766C274.736 296.299 276.294 295.137 278.053 294.367C279.811 293.598 281.723 293.243 283.64 293.33L283.4 293.61C283.005 291.544 283.212 289.407 283.994 287.455C284.777 285.502 286.103 283.814 287.815 282.592C289.528 281.37 291.555 280.665 293.656 280.56C295.757 280.455 297.844 280.955 299.67 282H299.42C300.87 280.401 302.647 279.132 304.63 278.28C306.386 277.479 308.238 276.907 310.14 276.58C313.209 276.012 316.355 275.996 319.43 276.53C321.409 276.846 323.324 277.481 325.1 278.41C325.564 278.653 326.008 278.931 326.43 279.24C326.73 279.44 326.87 279.55 326.87 279.55C326.87 279.55 326.25 279.15 325.04 278.55C323.26 277.672 321.354 277.078 319.39 276.79C316.34 276.289 313.224 276.337 310.19 276.93C308.321 277.267 306.503 277.841 304.78 278.64C302.872 279.486 301.167 280.73 299.78 282.29L299.67 282.42L299.53 282.33C297.858 281.416 295.976 280.955 294.071 280.994C292.166 281.033 290.304 281.569 288.67 282.55C286.896 283.692 285.495 285.33 284.642 287.26C283.789 289.191 283.52 291.329 283.87 293.41L283.92 293.7H283.62C281.776 293.621 279.938 293.965 278.247 294.706C276.557 295.448 275.059 296.567 273.868 297.978C272.677 299.389 271.826 301.053 271.379 302.844C270.932 304.636 270.902 306.505 271.29 308.31L271.36 308.62H271.05C269.252 308.505 267.46 308.932 265.907 309.847C264.354 310.761 263.111 312.121 262.34 313.75C261.61 315.31 261.51 317.09 260.9 318.75C260.606 319.571 260.127 320.314 259.5 320.92C258.887 321.491 258.197 321.972 257.45 322.35C256.025 322.973 254.663 323.73 253.38 324.61C252.239 325.509 251.308 326.645 250.65 327.94C249.416 330.256 249.101 332.952 249.77 335.49L249.82 335.65H249.65C248.56 335.889 247.531 336.351 246.628 337.009C245.726 337.667 244.971 338.505 244.41 339.47C243.556 340.934 243.205 342.638 243.41 344.32C243.551 345.374 243.89 346.392 244.41 347.32C244.71 348 245 348.26 244.94 348.27Z" fill="#444545"/>
<path d="M394.47 341.63C394.358 341.439 394.287 341.226 394.261 341.006C394.235 340.786 394.255 340.562 394.32 340.35C394.47 339.833 394.753 339.364 395.14 338.99C395.68 338.5 396.313 338.122 397 337.88C397.84 337.599 398.635 337.198 399.36 336.69C400.152 336.004 400.702 335.082 400.93 334.06C401.206 332.88 401.251 331.657 401.06 330.46C400.91 329.17 400.61 327.82 400.51 326.36C400.26 323.41 401.3 320.31 401.82 317C402.106 315.29 402.052 313.54 401.66 311.85C401.466 310.968 401.084 310.138 400.541 309.417C399.997 308.696 399.305 308.1 398.51 307.67C396.85 306.81 394.87 306.67 392.9 306.21C391.883 306.011 390.906 305.643 390.01 305.12C389.105 304.541 388.365 303.739 387.86 302.79C386.956 300.869 386.256 298.858 385.77 296.79C385.488 295.769 385.05 294.797 384.47 293.91C383.885 293.014 383.015 292.342 382 292C380.564 291.728 379.099 291.637 377.64 291.73C376.884 291.719 376.135 291.587 375.42 291.34C374.702 291.069 374.07 290.61 373.59 290.01C372.768 288.817 372.118 287.515 371.66 286.14C371.17 284.87 370.417 283.719 369.45 282.76C368.534 281.847 367.44 281.131 366.236 280.658C365.032 280.185 363.743 279.964 362.45 280.01C360.015 280.124 357.711 281.153 356 282.89L355.8 283.09L355.67 282.85C354.644 280.999 353.234 279.387 351.535 278.123C349.837 276.859 347.889 275.972 345.82 275.52C344.091 275.158 342.309 275.135 340.57 275.45C339.091 275.697 337.668 276.209 336.37 276.96C334.549 278.028 333.074 279.597 332.12 281.48C331.862 281.971 331.638 282.479 331.45 283L331.3 283.4C331.3 283.49 331.24 283.53 331.23 283.53C331.228 283.483 331.228 283.437 331.23 283.39L331.35 282.98C331.512 282.443 331.719 281.921 331.97 281.42C332.898 279.483 334.371 277.859 336.21 276.75C337.526 275.968 338.973 275.432 340.48 275.17C342.254 274.825 344.077 274.825 345.85 275.17C347.981 275.626 349.989 276.533 351.74 277.831C353.491 279.128 354.943 280.785 356 282.69H355.67C357.453 280.881 359.853 279.809 362.39 279.69C363.752 279.634 365.11 279.86 366.38 280.353C367.651 280.847 368.805 281.599 369.77 282.56C370.783 283.557 371.574 284.757 372.09 286.08C372.533 287.41 373.159 288.673 373.95 289.83C374.41 290.353 374.984 290.764 375.627 291.031C376.27 291.298 376.965 291.414 377.66 291.37C379.16 291.273 380.667 291.374 382.14 291.67C383.236 292.022 384.184 292.725 384.84 293.67C385.442 294.596 385.9 295.608 386.2 296.67C386.665 298.709 387.335 300.696 388.2 302.6C388.672 303.482 389.36 304.229 390.2 304.77C391.054 305.249 391.979 305.587 392.94 305.77C394.86 306.21 396.88 306.36 398.65 307.28C399.527 307.722 400.279 308.375 400.84 309.18C401.382 309.958 401.775 310.83 402 311.75C402.403 313.489 402.454 315.291 402.15 317.05C401.6 320.42 400.56 323.47 400.78 326.34C400.88 327.77 401.16 329.12 401.3 330.42C401.483 331.653 401.425 332.909 401.13 334.12C400.882 335.196 400.288 336.162 399.44 336.87C398.692 337.382 397.874 337.783 397.01 338.06C396.339 338.265 395.716 338.605 395.18 339.06C394.798 339.408 394.512 339.849 394.35 340.34C394.251 340.772 394.293 341.224 394.47 341.63Z" fill="#444545"/>
<path d="M423.001 315.25C423.001 315.25 422.931 315.16 422.821 314.97L422.321 314.13C421.891 313.36 421.261 312.26 420.471 310.87C419.681 309.48 418.731 307.68 417.471 305.76C416.124 303.524 414.172 301.714 411.841 300.54C410.531 299.95 409.041 299.6 407.521 299.06C406.737 298.789 405.991 298.42 405.301 297.96C404.57 297.474 403.972 296.814 403.561 296.04C402.701 294.48 402.561 292.64 401.831 291.04C401.49 290.225 400.916 289.529 400.181 289.04C399.375 288.567 398.496 288.229 397.581 288.04C396.613 287.843 395.666 287.559 394.751 287.19C393.786 286.763 392.981 286.042 392.451 285.13C391.381 283.31 391.211 281.13 390.681 279.13C390.46 278.124 390.034 277.175 389.431 276.34C388.79 275.537 387.86 275.016 386.841 274.89C384.761 274.62 382.601 275.49 380.291 275.3C379.134 275.178 378.043 274.699 377.171 273.93C376.351 273.175 375.622 272.326 375.001 271.4C374.408 270.515 373.77 269.661 373.091 268.84C372.442 268.044 371.602 267.425 370.651 267.04C368.731 266.32 366.651 266.94 364.761 267.52C362.893 268.275 360.883 268.617 358.871 268.52C356.989 268.177 355.183 267.5 353.541 266.52C352.029 265.622 350.431 264.878 348.771 264.3C345.707 263.518 342.48 263.65 339.491 264.68C337.015 265.495 334.758 266.863 332.891 268.68C331.5 270.08 330.333 271.685 329.431 273.44C328.876 274.557 328.415 275.717 328.051 276.91L327.761 277.84C327.731 277.95 327.691 278.058 327.641 278.16C327.647 278.047 327.671 277.936 327.711 277.83C327.771 277.59 327.851 277.28 327.961 276.88C328.285 275.669 328.72 274.491 329.261 273.36C330.144 271.566 331.305 269.922 332.701 268.49C334.582 266.613 336.866 265.19 339.381 264.33C342.435 263.252 345.74 263.099 348.881 263.89C350.571 264.47 352.199 265.217 353.741 266.12C355.341 267.055 357.095 267.698 358.921 268.02C360.866 268.127 362.812 267.806 364.621 267.08C365.598 266.747 366.601 266.496 367.621 266.33C368.698 266.129 369.81 266.226 370.836 266.612C371.862 266.998 372.763 267.658 373.441 268.52C374.136 269.35 374.783 270.218 375.381 271.12C375.974 272.017 376.668 272.842 377.451 273.58C378.245 274.288 379.242 274.729 380.301 274.84C382.451 275.03 384.601 274.15 386.871 274.43C388.01 274.573 389.048 275.159 389.761 276.06C390.409 276.956 390.862 277.978 391.091 279.06C391.631 281.06 391.801 283.21 392.801 284.9C393.286 285.728 394.016 286.385 394.891 286.78C395.783 287.143 396.707 287.424 397.651 287.62C398.607 287.8 399.526 288.138 400.371 288.62C401.179 289.162 401.809 289.931 402.181 290.83C402.911 292.56 403.061 294.38 403.871 295.83C404.71 297.221 406.047 298.24 407.611 298.68C409.091 299.22 410.611 299.58 411.941 300.2C414.315 301.416 416.295 303.282 417.651 305.58C418.921 307.53 419.821 309.32 420.651 310.75L422.431 314.05L422.881 314.92C422.931 315.026 422.972 315.136 423.001 315.25Z" fill="#444545"/>
<path d="M405.201 300.14L405.481 300.07C405.77 300.041 406.061 300.082 406.331 300.19C406.82 300.452 407.235 300.831 407.541 301.294C407.846 301.756 408.032 302.288 408.081 302.84C408.144 303.63 408.09 304.426 407.921 305.2C407.722 306.096 407.651 307.015 407.711 307.93C407.899 308.961 408.35 309.925 409.021 310.73C409.701 311.63 410.531 312.5 411.241 313.57C411.644 314.125 411.915 314.766 412.031 315.442C412.147 316.118 412.106 316.812 411.911 317.47C411.511 318.83 410.631 320.02 410.261 321.4C409.948 322.861 410.21 324.386 410.991 325.66C411.711 327.05 412.681 328.37 413.391 329.91C413.77 330.691 414.001 331.535 414.071 332.4C414.128 333.295 413.992 334.192 413.671 335.03C412.931 336.659 412.047 338.218 411.031 339.69C409.982 341.159 409.522 342.968 409.741 344.76C410.071 346.54 411.211 348.12 412.011 349.88C412.447 350.767 412.714 351.726 412.801 352.71C412.848 353.692 412.667 354.671 412.271 355.57C411.458 357.236 410.451 358.8 409.271 360.23C408.159 361.583 407.342 363.153 406.871 364.84C406.561 366.533 406.136 368.204 405.601 369.84C405.286 370.637 404.793 371.352 404.161 371.93C403.527 372.457 402.806 372.87 402.031 373.15C401.315 373.422 400.614 373.733 399.931 374.08C399.297 374.451 398.718 374.909 398.211 375.44C397.29 376.511 396.513 377.697 395.901 378.97C395.271 380.18 394.691 381.37 394.011 382.45C392.819 384.434 391.015 385.978 388.871 386.85C387.269 387.51 385.541 387.804 383.811 387.71C382.721 387.654 381.648 387.425 380.631 387.03C380.287 386.886 379.953 386.719 379.631 386.53C380.959 387.125 382.387 387.464 383.841 387.53C385.556 387.604 387.265 387.29 388.841 386.61C390.931 385.744 392.685 384.225 393.841 382.28C394.491 381.22 395.061 380.04 395.681 378.81C396.303 377.503 397.093 376.283 398.031 375.18C398.564 374.618 399.173 374.133 399.841 373.74C400.532 373.362 401.247 373.028 401.981 372.74C402.708 372.468 403.384 372.076 403.981 371.58C404.561 371.041 405.012 370.378 405.301 369.64C405.814 368.028 406.225 366.384 406.531 364.72C407.012 362.972 407.853 361.344 409.001 359.94C410.171 358.539 411.178 357.009 412.001 355.38C412.363 354.545 412.531 353.639 412.491 352.73C412.402 351.806 412.148 350.905 411.741 350.07C410.961 348.36 409.801 346.76 409.441 344.83C409.266 343.877 409.324 342.896 409.611 341.97C409.9 341.085 410.296 340.239 410.791 339.45C411.79 337.998 412.664 336.462 413.401 334.86C413.702 334.084 413.835 333.252 413.791 332.42C413.718 331.608 413.502 330.816 413.151 330.08C412.471 328.59 411.511 327.27 410.781 325.85C409.961 324.48 409.693 322.85 410.031 321.29C410.451 319.81 411.341 318.64 411.721 317.35C411.905 316.742 411.946 316.1 411.84 315.473C411.734 314.847 411.485 314.254 411.111 313.74C410.451 312.74 409.621 311.82 408.941 310.9C408.236 310.038 407.776 309.002 407.611 307.9C407.559 306.96 407.639 306.018 407.851 305.1C408.033 304.351 408.103 303.58 408.061 302.81C408.021 302.281 407.854 301.768 407.574 301.317C407.294 300.866 406.908 300.49 406.451 300.22C406.054 300.06 405.615 300.032 405.201 300.14Z" fill="#444545"/>
<path d="M245.29 347.74C244.878 347.78 244.463 347.78 244.05 347.74C242.851 347.592 241.696 347.194 240.66 346.57C238.98 345.583 237.697 344.041 237.03 342.21C236.594 340.99 236.433 339.688 236.559 338.398C236.686 337.108 237.096 335.862 237.76 334.75C238.6 333.511 239.565 332.361 240.64 331.32C241.807 330.227 242.71 328.883 243.28 327.39C243.703 325.725 243.485 323.962 242.67 322.45C241.95 320.82 240.92 319.26 240.21 317.45C239.432 315.459 239.078 313.328 239.171 311.193C239.264 309.058 239.803 306.965 240.752 305.05C241.701 303.135 243.04 301.44 244.682 300.072C246.325 298.705 248.235 297.696 250.29 297.11L250.17 297.48C249.375 296.524 248.826 295.387 248.57 294.17C248.33 292.938 248.33 291.672 248.57 290.44C248.8 289.193 249.243 287.996 249.88 286.9C250.542 285.801 251.368 284.809 252.33 283.96C255.237 281.568 258.661 279.887 262.33 279.05C265.74 278.138 269.262 277.721 272.79 277.81L272.56 278.05C272.472 276.039 272.931 274.042 273.889 272.272C274.847 270.502 276.268 269.025 278 268C279.653 267.067 281.513 266.565 283.41 266.54C285.19 266.613 286.949 266.95 288.63 267.54C289.426 267.76 290.245 267.884 291.07 267.91C291.867 267.919 292.657 267.776 293.4 267.49C294.822 266.883 296.165 266.108 297.4 265.18C298.572 264.314 299.853 263.608 301.21 263.08C302.465 262.611 303.783 262.334 305.12 262.26C307.398 262.105 309.676 262.546 311.73 263.54C313.237 264.286 314.593 265.303 315.73 266.54C316.443 267.321 317.061 268.183 317.57 269.11C317.748 269.431 317.902 269.766 318.03 270.11C318.03 270.11 317.86 269.78 317.5 269.17C316.119 266.811 314.06 264.922 311.59 263.75C309.981 263.011 308.241 262.599 306.471 262.537C304.702 262.475 302.937 262.765 301.28 263.39C299.955 263.919 298.705 264.618 297.56 265.47C296.327 266.42 294.984 267.219 293.56 267.85C292.777 268.157 291.942 268.309 291.1 268.3C290.242 268.277 289.39 268.153 288.56 267.93C286.908 267.37 285.184 267.054 283.44 266.99C281.62 267.026 279.836 267.514 278.25 268.41C276.568 269.385 275.185 270.801 274.249 272.505C273.313 274.21 272.86 276.137 272.94 278.08V278.33H272.69C269.209 278.241 265.733 278.656 262.37 279.56C258.789 280.387 255.448 282.034 252.61 284.37C251.686 285.189 250.89 286.143 250.25 287.2C249.648 288.22 249.225 289.336 249 290.5C248.77 291.669 248.77 292.871 249 294.04C249.242 295.183 249.756 296.25 250.5 297.15L250.73 297.43L250.38 297.53C248.386 298.1 246.532 299.08 244.937 300.407C243.343 301.733 242.042 303.377 241.118 305.235C240.194 307.092 239.667 309.121 239.571 311.194C239.475 313.266 239.812 315.335 240.56 317.27C241.24 319.03 242.26 320.6 243 322.27C243.837 323.873 244.051 325.729 243.6 327.48C243 329.005 242.059 330.373 240.85 331.48C239.786 332.504 238.828 333.633 237.99 334.85C237.34 335.923 236.934 337.126 236.801 338.374C236.668 339.622 236.811 340.884 237.22 342.07C237.856 343.861 239.088 345.38 240.71 346.37C241.724 346.996 242.853 347.411 244.03 347.59C244.87 347.73 245.29 347.71 245.29 347.74Z" fill="#263238"/>
<path d="M409.911 289C409.877 288.903 409.853 288.802 409.841 288.7C409.801 288.48 409.751 288.19 409.691 287.83C409.561 287.04 409.371 285.92 409.131 284.49C408.891 283.06 408.531 281.27 407.991 279.25C407.396 276.965 406.537 274.756 405.431 272.67C404.083 270.149 402.215 267.944 399.951 266.2C398.678 265.258 397.264 264.526 395.761 264.03C394.131 263.603 392.478 263.269 390.811 263.03C389.016 262.757 387.291 262.139 385.731 261.21C384.157 260.177 382.722 258.947 381.461 257.55C380.141 256.18 378.871 254.72 377.461 253.43C376.019 252.099 374.344 251.045 372.521 250.32C368.833 248.995 364.91 248.45 361.001 248.72C357.38 248.875 353.777 249.303 350.221 250C344.156 251.101 338.316 253.203 332.941 256.22C329.33 258.28 326.067 260.895 323.271 263.97C322.791 264.52 322.341 264.97 321.991 265.44C321.641 265.91 321.371 266.26 321.131 266.58C320.891 266.9 320.721 267.1 320.591 267.28C320.461 267.46 320.391 267.51 320.391 267.51C320.391 267.51 320.391 267.42 320.551 267.25L321.051 266.53L321.881 265.35C322.221 264.9 322.661 264.41 323.131 263.84C325.896 260.701 329.152 258.029 332.771 255.93C338.158 252.848 344.027 250.698 350.131 249.57C353.716 248.862 357.35 248.424 361.001 248.26C364.952 247.975 368.92 248.517 372.651 249.85C374.524 250.594 376.243 251.679 377.721 253.05C379.201 254.37 380.471 255.84 381.771 257.2C383.007 258.567 384.408 259.776 385.941 260.8C387.458 261.695 389.131 262.295 390.871 262.57C392.556 262.83 394.226 263.187 395.871 263.64C397.413 264.158 398.861 264.921 400.161 265.9C402.463 267.681 404.353 269.94 405.701 272.52C406.801 274.636 407.647 276.875 408.221 279.19C408.751 281.19 409.061 283.01 409.291 284.46C409.521 285.91 409.671 287.06 409.771 287.83C409.771 288.19 409.841 288.48 409.871 288.71C409.901 288.94 409.911 289 409.911 289Z" fill="#263238"/>
<path d="M415.371 478.06L413.371 427.61C413.371 427.61 409.631 417.14 408.371 417.14L369.131 403.74C369.131 403.74 355.721 418.51 339.901 416.85C324.081 415.19 311.231 402.25 311.231 402.25L267.551 412.68C264.391 413.32 258.611 415.32 253.091 423.2C246.941 432 214.521 477.8 214.521 477.8" fill="#4F8C68"/>
<path d="M407.57 416.85C407.57 416.85 423.57 421.95 429.73 431.21C435.89 440.47 454.99 478.21 454.99 478.21H413.18L398.93 430.37L407.57 416.85Z" fill="#4F8C68"/>
<path d="M414.5 477.9C414.459 477.344 414.459 476.786 414.5 476.23C414.432 474.715 414.252 473.208 413.96 471.72C412.912 466.817 411.388 462.027 409.41 457.42C407.21 451.97 404.88 447.18 403.2 443.71C402.38 442.03 401.69 440.65 401.2 439.61L400.67 438.49C400.598 438.361 400.545 438.223 400.51 438.08C400.608 438.19 400.689 438.315 400.75 438.45L401.37 439.53C401.9 440.47 402.64 441.84 403.52 443.53C405.28 446.96 407.66 451.74 409.88 457.21C411.87 461.844 413.355 466.678 414.31 471.63C414.578 473.139 414.712 474.668 414.71 476.2C414.71 476.74 414.63 477.2 414.61 477.44C414.594 477.598 414.557 477.752 414.5 477.9Z" fill="#263238"/>
<path d="M213.53 427.24C212.63 426.52 216.53 412.24 216.53 412.24C216.53 412.24 206.18 396.24 205.91 391.03C205.64 385.82 210 375.24 210 375.24L239.7 368C239.7 368 249.25 384.81 251.15 390.76C253.05 396.71 247.88 416.89 247.88 416.89L242.88 427.24C242.88 427.24 227.68 438.62 213.53 427.24Z" fill="#876760"/>
<path d="M206.001 394.11C204.836 392.087 203.79 389.996 202.871 387.85C200.991 383.62 198.681 379.47 202.871 377.1C203.534 376.691 204.272 376.42 205.042 376.305C205.812 376.19 206.598 376.232 207.351 376.43C207.351 376.43 206.711 372.87 208.951 371.53C209.609 371.14 210.347 370.904 211.109 370.84C211.871 370.776 212.637 370.885 213.351 371.16C213.351 371.16 212.651 366.16 215.871 364.01C217.1 363.248 218.51 362.826 219.955 362.786C221.401 362.745 222.831 363.088 224.101 363.78C224.101 363.78 221.541 341.78 221.321 340.61C220.511 336.33 222.181 332.55 226.661 333.61C228.301 334 229.221 335.61 231.141 342.81C233.061 350.01 236.141 362.21 236.141 362.21C236.141 362.21 241.351 370.81 243.821 375.48C246.291 380.15 251.151 390.77 251.561 393.59C252.611 400.87 248.121 410.5 248.121 410.5L216.541 412.24C216.541 412.24 207.181 396.2 206.001 394.11Z" fill="#876760"/>
<path d="M207.94 377.38C208.847 378.389 209.667 379.472 210.39 380.62L212.88 384.22C213.403 384.929 213.858 385.686 214.24 386.48C214.68 387.361 214.811 388.366 214.61 389.33C214.51 389.847 214.27 390.326 213.918 390.718C213.566 391.109 213.114 391.396 212.61 391.55C211.658 391.784 210.653 391.667 209.78 391.22C209.037 390.879 208.33 390.464 207.67 389.98C207.05 389.56 206.48 389.16 205.97 388.77C204.97 388.01 204.15 387.36 203.61 386.9C203.316 386.677 203.053 386.414 202.83 386.12C202.9 386.05 204.15 387 206.25 388.42C207.45 389.272 208.714 390.031 210.03 390.69C210.768 391.054 211.608 391.153 212.41 390.97C212.81 390.846 213.169 390.616 213.449 390.304C213.729 389.993 213.92 389.611 214 389.2C214.173 388.36 214.057 387.486 213.67 386.72C213.31 385.955 212.885 385.222 212.4 384.53L210 380.85C209.223 379.749 208.534 378.589 207.94 377.38Z" fill="#664D49"/>
<path d="M233.841 380C233.671 380 233.511 377.85 234.171 375.29C234.831 372.73 235.991 370.88 236.171 370.96C236.351 371.04 235.461 372.96 234.841 375.44C234.221 377.92 234.001 380 233.841 380Z" fill="#664D49"/>
<path d="M246.351 386.42C243.393 383.718 239.733 381.905 235.791 381.19C231.833 380.467 227.791 380.318 223.791 380.75C220.581 381.03 216.911 381.82 215.451 384.55C213.991 387.28 215.761 390.97 218.611 392.55C221.461 394.13 224.981 394.23 228.281 393.94C231.581 393.65 234.921 393.07 238.201 393.56" fill="#876760"/>
<path d="M238.171 393.6C238.171 393.6 237.281 393.52 235.681 393.54C234.081 393.56 231.781 393.82 228.921 394.15C227.348 394.334 225.763 394.397 224.181 394.34C222.339 394.282 220.529 393.85 218.861 393.07C217.01 392.194 215.574 390.63 214.861 388.71C214.489 387.713 214.409 386.631 214.631 385.59C214.903 384.503 215.512 383.53 216.371 382.81C218.145 381.512 220.248 380.739 222.441 380.58C224.433 380.354 226.436 380.237 228.441 380.23C231.83 380.179 235.205 380.669 238.441 381.68C240.598 382.367 242.625 383.408 244.441 384.76C244.928 385.123 245.39 385.521 245.821 385.95C245.979 386.089 246.12 386.247 246.241 386.42C246.241 386.47 245.581 385.85 244.291 384.96C242.45 383.703 240.426 382.738 238.291 382.1C235.08 381.164 231.744 380.729 228.401 380.81C226.425 380.837 224.453 380.964 222.491 381.19C220.43 381.342 218.453 382.066 216.781 383.28C216.021 383.909 215.482 384.764 215.241 385.72C215.042 386.65 215.108 387.616 215.431 388.51C216.078 390.272 217.372 391.72 219.051 392.56C220.64 393.314 222.364 393.742 224.121 393.82C225.675 393.898 227.233 393.858 228.781 393.7C231.041 393.429 233.315 393.292 235.591 393.29C236.213 393.311 236.834 393.365 237.451 393.45C237.697 393.465 237.939 393.516 238.171 393.6Z" fill="#664D49"/>
<path d="M208.17 377.72C211.445 382.609 214.469 387.663 217.23 392.86C217.912 394.427 219.008 395.779 220.4 396.77C221.6 397.47 224.57 396.2 225.9 395.77L216.78 376.06" fill="#876760"/>
<path d="M216.78 376.06C217.092 376.526 217.363 377.018 217.59 377.53L219.59 381.66C221.28 385.17 223.59 390.08 226.18 395.66L226.32 395.97L225.98 396.08C224.938 396.468 223.877 396.802 222.8 397.08C222.345 397.193 221.879 397.26 221.41 397.28C221.158 397.287 220.906 397.26 220.66 397.2C220.411 397.14 220.177 397.032 219.97 396.88C219.244 396.383 218.62 395.751 218.13 395.02C217.2 393.62 216.54 392.22 215.79 390.91C214.36 388.29 213.05 385.91 211.91 384C210.77 382.09 209.81 380.48 209.15 379.41C208.773 378.871 208.439 378.302 208.15 377.71C208.606 378.193 209.015 378.719 209.37 379.28C210.1 380.28 211.12 381.85 212.37 383.78C213.62 385.71 214.92 388.04 216.37 390.64C217.13 391.93 217.82 393.36 218.72 394.64C219.161 395.31 219.728 395.888 220.39 396.34C220.745 396.513 221.131 396.61 221.525 396.628C221.919 396.645 222.312 396.581 222.68 396.44C223.76 396.18 224.79 395.78 225.81 395.44L225.62 395.86C223.05 390.29 220.81 385.35 219.22 381.8L217.39 377.59C217.136 377.102 216.932 376.589 216.78 376.06Z" fill="#664D49"/>
<path d="M214.32 370.21L223.11 391.15C223.656 392.674 224.458 394.094 225.48 395.35C226.018 395.987 226.701 396.486 227.472 396.805C228.243 397.123 229.079 397.252 229.91 397.18C232.2 396.86 233.7 394.55 233.81 392.35C233.92 390.15 233.01 388.05 232.17 386C229.54 379.648 227.43 373.093 225.86 366.4" fill="#876760"/>
<path d="M225.86 366.4C225.959 366.604 226.033 366.819 226.08 367.04L226.6 368.89C227.06 370.5 227.72 372.82 228.65 375.66C229.58 378.5 230.78 381.84 232.29 385.5C233.219 387.389 233.84 389.415 234.13 391.5C234.223 392.646 233.995 393.796 233.47 394.82C232.925 395.942 231.979 396.819 230.82 397.28C230.219 397.489 229.581 397.573 228.946 397.525C228.311 397.476 227.693 397.298 227.13 397C226.079 396.462 225.184 395.663 224.53 394.68C223.484 392.862 222.594 390.959 221.87 388.99L217.87 379.25C216.77 376.53 215.87 374.3 215.22 372.67L214.53 370.86C214.437 370.656 214.37 370.441 214.33 370.22C214.461 370.406 214.569 370.607 214.65 370.82L215.46 372.58L218.3 379.09L222.45 388.77C223.172 390.698 224.055 392.561 225.09 394.34C225.677 395.233 226.487 395.957 227.44 396.44C227.92 396.695 228.447 396.85 228.988 396.894C229.53 396.939 230.075 396.873 230.59 396.7C231.594 396.289 232.413 395.524 232.89 394.55C233.365 393.625 233.573 392.586 233.49 391.55C233.215 389.532 232.621 387.571 231.73 385.74C230.24 382.06 229.08 378.68 228.21 375.81C227.34 372.94 226.74 370.6 226.36 368.98C226.18 368.16 226.04 367.53 225.96 367.1C225.897 366.872 225.864 366.637 225.86 366.4Z" fill="#664D49"/>
<path d="M215.001 419.31C215.001 419.31 194.851 475.67 194.061 478.43H233.661L248.181 415.53L215.001 419.31Z" fill="#876760"/>
<path d="M234.64 410.55C233.997 410.625 233.345 410.543 232.74 410.31C231.264 409.878 229.899 409.131 228.74 408.12C227.596 407.135 226.69 405.905 226.09 404.52C225.799 403.977 225.658 403.366 225.68 402.75C225.87 402.68 226.57 405.43 229.18 407.66C231.79 409.89 234.7 410.36 234.64 410.55Z" fill="#664D49"/>
<path d="M279.561 453C279.691 453.07 276.821 458.7 273.151 465.57C269.481 472.44 266.421 477.96 266.291 477.89C266.161 477.82 269.031 472.2 272.701 465.32C276.371 458.44 279.431 453 279.561 453Z" fill="#263238"/>
<path d="M465.07 478.06C465.07 478.21 368.77 478.32 250.01 478.32C131.25 478.32 34.9297 478.21 34.9297 478.06C34.9297 477.91 131.21 477.8 250.01 477.8C368.81 477.8 465.07 477.92 465.07 478.06Z" fill="#263238"/>
<path d="M257 163.11C258.941 150.721 257.519 138.039 252.882 126.388C248.244 114.738 240.563 104.547 230.64 96.8802C220.716 89.2139 208.916 84.3539 196.472 82.8082C184.028 81.2626 171.397 83.088 159.9 88.0938C148.403 93.0995 138.462 101.102 131.115 111.264C123.769 121.426 119.287 133.375 118.138 145.862C116.989 158.349 119.216 170.915 124.585 182.247C129.954 193.579 138.269 203.261 148.66 210.28C147.38 218.47 145.94 227.72 145.94 227.72L206.53 237.17C206.53 237.17 208.42 227.44 209.92 218.72C222.116 214.666 232.961 207.333 241.266 197.523C249.57 187.714 255.014 175.808 257 163.11Z" fill="#F7CC7E"/>
<path d="M197.421 235.74C197.421 235.74 197.421 235.44 197.421 234.87C197.421 234.3 197.481 233.42 197.531 232.31C197.631 230.06 197.821 226.74 198.121 222.47C198.731 213.94 199.811 201.59 202.031 186.47C202.571 182.676 203.194 178.72 203.901 174.6C204.261 172.546 204.631 170.45 205.011 168.31C205.289 166.092 205.906 163.93 206.841 161.9C207.376 160.86 208.15 159.962 209.101 159.28C209.587 158.916 210.14 158.653 210.73 158.507C211.319 158.361 211.931 158.335 212.531 158.43C213.133 158.576 213.695 158.854 214.177 159.243C214.659 159.632 215.05 160.123 215.321 160.68C215.899 161.776 216.155 163.014 216.061 164.25C215.9 165.49 215.455 166.676 214.761 167.717C214.068 168.757 213.144 169.624 212.061 170.25C209.88 171.602 207.33 172.235 204.771 172.06C202.153 171.902 199.641 170.973 197.551 169.39C195.456 167.737 193.877 165.52 193.001 163C192.062 160.444 191.76 157.698 192.121 155C192.278 153.609 192.674 152.256 193.291 151C193.876 149.657 194.948 148.585 196.291 148C196.992 147.752 197.75 147.718 198.471 147.9C199.176 148.082 199.829 148.424 200.381 148.9C201.467 149.876 202.207 151.177 202.491 152.61C202.77 154.012 202.841 155.447 202.701 156.87C202.585 158.292 202.395 159.707 202.131 161.11C201.644 163.96 200.73 166.721 199.421 169.3C198.114 171.961 196.087 174.202 193.571 175.77C192.298 176.543 190.901 177.088 189.441 177.38C187.978 177.662 186.469 177.607 185.031 177.22C183.61 176.791 182.313 176.026 181.251 174.99C180.217 173.96 179.38 172.75 178.781 171.42C177.655 168.796 176.962 166.006 176.731 163.16C176.571 161.76 176.481 160.37 176.431 158.98C176.339 157.584 176.363 156.182 176.501 154.79C176.64 153.367 177.216 152.022 178.151 150.94C178.635 150.4 179.242 149.985 179.921 149.73C180.613 149.464 181.379 149.464 182.071 149.73C182.741 150.014 183.312 150.491 183.711 151.1C184.094 151.68 184.39 152.314 184.591 152.98C184.98 154.277 185.176 155.625 185.171 156.98C185.291 162.29 184.001 167.67 180.861 171.77C179.304 173.786 177.26 175.372 174.921 176.38C172.638 177.402 170.079 177.631 167.651 177.03C165.304 176.359 163.295 174.831 162.021 172.75C160.726 170.786 160.095 168.459 160.221 166.11C160.282 164.966 160.557 163.843 161.031 162.8C161.488 161.741 162.292 160.87 163.311 160.33C163.842 160.083 164.441 160.022 165.011 160.158C165.581 160.295 166.088 160.619 166.451 161.08C167.094 161.96 167.49 162.995 167.601 164.08C167.773 166.135 167.693 168.204 167.361 170.24C167.154 172.24 166.951 174.186 166.751 176.08C165.151 191.29 163.621 203.58 162.421 212.08C161.821 216.32 161.291 219.6 160.921 221.82C160.731 222.92 160.581 223.76 160.481 224.35C160.381 224.94 160.311 225.2 160.311 225.2C160.311 225.2 160.311 224.91 160.421 224.34C160.531 223.77 160.651 222.91 160.821 221.81C161.161 219.58 161.651 216.3 162.221 212.06C163.371 203.58 164.841 191.29 166.401 176.06C166.587 174.16 166.784 172.213 166.991 170.22C167.31 168.216 167.384 166.181 167.211 164.16C167.115 163.141 166.745 162.166 166.141 161.34C165.834 160.946 165.403 160.668 164.918 160.552C164.433 160.436 163.922 160.488 163.471 160.7C162.545 161.206 161.816 162.009 161.401 162.98C160.952 163.973 160.694 165.041 160.641 166.13C160.527 168.387 161.136 170.623 162.381 172.51C163.593 174.504 165.515 175.966 167.761 176.6C170.1 177.173 172.564 176.948 174.761 175.96C177.03 174.984 179.01 173.441 180.511 171.48C183.511 167.48 184.831 162.22 184.701 157C184.71 155.69 184.525 154.385 184.151 153.13C184.012 152.507 183.74 151.921 183.354 151.414C182.967 150.906 182.475 150.489 181.911 150.19C181.315 149.981 180.669 149.965 180.064 150.145C179.459 150.324 178.926 150.69 178.541 151.19C177.671 152.198 177.139 153.454 177.021 154.78C176.877 156.142 176.854 157.514 176.951 158.88C176.951 160.26 177.091 161.65 177.241 163.03C177.463 165.817 178.139 168.55 179.241 171.12C179.804 172.402 180.605 173.565 181.601 174.55C182.604 175.527 183.829 176.247 185.171 176.65C186.551 176.983 187.984 177.032 189.384 176.793C190.783 176.554 192.119 176.032 193.311 175.26C195.745 173.733 197.705 171.559 198.971 168.98C200.254 166.461 201.154 163.765 201.641 160.98C202.101 158.21 202.571 155.36 202.001 152.68C201.745 151.353 201.064 150.145 200.061 149.24C199.594 148.785 199.013 148.466 198.378 148.318C197.743 148.169 197.08 148.198 196.461 148.4C195.254 148.935 194.291 149.901 193.761 151.11C193.175 152.307 192.796 153.596 192.641 154.92C192.287 157.544 192.579 160.214 193.491 162.7C194.345 165.144 195.887 167.29 197.931 168.88C199.955 170.42 202.392 171.322 204.931 171.47C207.386 171.624 209.83 171.02 211.931 169.74C212.955 169.144 213.83 168.322 214.487 167.335C215.144 166.349 215.566 165.225 215.721 164.05C215.806 162.902 215.57 161.752 215.041 160.73C214.794 160.237 214.444 159.803 214.014 159.458C213.584 159.113 213.085 158.864 212.551 158.73C212.008 158.645 211.454 158.67 210.921 158.804C210.389 158.938 209.889 159.178 209.451 159.51C208.549 160.149 207.815 160.997 207.311 161.98C206.393 163.969 205.786 166.087 205.511 168.26C205.121 170.4 204.751 172.49 204.381 174.55C203.671 178.66 203.041 182.62 202.481 186.4C200.221 201.52 199.091 213.86 198.411 222.4C198.081 226.67 197.871 229.98 197.731 232.23C197.661 233.35 197.611 234.23 197.571 234.79C197.531 235.35 197.421 235.74 197.421 235.74Z" fill="white"/>
<path d="M153.311 283.06C154.782 284.401 156.058 285.943 157.101 287.64C157.443 288.242 157.918 288.759 158.49 289.15C159.062 289.542 159.715 289.798 160.401 289.9L173.941 292C174.688 292.117 175.453 292.049 176.168 291.801C176.883 291.554 177.526 291.134 178.041 290.58C179.261 289.26 181.311 287.8 183.231 287.7L153.311 283.06Z" fill="#263238"/>
<path d="M144.509 243.1C144.509 243.37 144.319 265 144.269 273.27C144.238 274.946 144.625 276.604 145.395 278.093C146.165 279.582 147.293 280.856 148.679 281.8C149.8 282.545 151.069 283.037 152.399 283.24L181.999 287.83C181.999 287.83 189.729 289.03 192.439 283.17C195.289 276.99 202.719 252.17 202.719 252.17L144.509 243.1Z" fill="#E0E0E0"/>
<path d="M141.933 271.129L141.957 270.971C141.987 270.778 142.054 270.592 142.155 270.424C142.256 270.257 142.389 270.111 142.547 269.995C142.704 269.879 142.883 269.795 143.073 269.748C143.263 269.701 143.46 269.692 143.654 269.721L195.254 277.544C195.642 277.602 195.991 277.813 196.224 278.129C196.457 278.445 196.555 278.841 196.496 279.229L196.472 279.387C196.413 279.775 196.202 280.124 195.886 280.357C195.57 280.589 195.175 280.687 194.787 280.628L143.176 272.805C142.983 272.775 142.797 272.708 142.63 272.607C142.462 272.506 142.316 272.373 142.2 272.215C142.084 272.058 142 271.879 141.953 271.689C141.906 271.499 141.897 271.302 141.926 271.108L141.933 271.129Z" fill="#E0E0E0"/>
<path d="M194.769 280.63C195.15 280.647 195.526 280.538 195.839 280.32C196.019 280.18 196.164 280.001 196.265 279.796C196.365 279.592 196.418 279.368 196.419 279.14C196.444 278.839 196.372 278.538 196.213 278.281C196.055 278.024 195.819 277.824 195.539 277.71C192.739 277.24 188.539 276.71 183.469 275.93L143.599 269.93C143.397 269.901 143.191 269.922 142.999 269.992C142.807 270.062 142.636 270.178 142.499 270.33C142.366 270.482 142.27 270.664 142.219 270.86C142.169 271.066 142.153 271.279 142.169 271.49C142.201 271.689 142.28 271.878 142.4 272.04C142.52 272.202 142.678 272.332 142.859 272.42C143.297 272.547 143.746 272.634 144.199 272.68L149.799 273.53L160.379 275.15L178.289 278L190.359 279.91L193.639 280.45L194.489 280.61L194.769 280.68H194.479L193.619 280.57L190.329 280.12L178.239 278.37L160.309 275.71L149.719 274.12L144.119 273.28L143.409 273.17C143.145 273.145 142.885 273.081 142.639 272.98C142.378 272.858 142.15 272.674 141.975 272.444C141.801 272.214 141.686 271.945 141.639 271.66C141.608 271.385 141.628 271.107 141.699 270.84C141.8 270.406 142.064 270.028 142.437 269.784C142.809 269.54 143.261 269.449 143.699 269.53L183.549 275.64C188.649 276.46 192.759 277.05 195.629 277.64C195.951 277.765 196.223 277.992 196.404 278.286C196.585 278.581 196.664 278.926 196.629 279.27C196.618 279.514 196.552 279.752 196.436 279.967C196.32 280.181 196.157 280.367 195.959 280.51C195.784 280.62 195.585 280.688 195.378 280.709C195.172 280.73 194.964 280.703 194.769 280.63Z" fill="#263238"/>
<path d="M141.864 264.306L141.888 264.148C141.947 263.76 142.157 263.411 142.473 263.178C142.789 262.946 143.185 262.848 143.573 262.907L197.359 271.06C197.552 271.09 197.738 271.157 197.905 271.258C198.073 271.359 198.219 271.492 198.335 271.65C198.451 271.807 198.535 271.986 198.582 272.176C198.629 272.366 198.638 272.563 198.608 272.757L198.584 272.915C198.526 273.303 198.315 273.652 197.999 273.885C197.683 274.117 197.287 274.215 196.899 274.156L143.114 266.003C142.723 265.944 142.372 265.732 142.138 265.413C141.903 265.095 141.805 264.697 141.864 264.306Z" fill="#E0E0E0"/>
<path d="M196.901 274.14C197.296 274.16 197.686 274.039 198.001 273.8C198.181 273.649 198.324 273.459 198.42 273.244C198.515 273.029 198.56 272.795 198.551 272.56C198.562 272.25 198.469 271.946 198.288 271.694C198.107 271.443 197.848 271.258 197.551 271.17L185.001 269.34L143.581 263.14C143.371 263.107 143.157 263.13 142.959 263.205C142.761 263.281 142.586 263.406 142.451 263.57C142.317 263.731 142.227 263.924 142.191 264.13C142.142 264.347 142.142 264.573 142.191 264.79C142.238 264.994 142.337 265.182 142.476 265.338C142.616 265.494 142.793 265.611 142.991 265.68C143.391 265.78 143.991 265.84 144.421 265.92L150.241 266.8L161.241 268.48L179.851 271.36L192.381 273.36L195.791 273.92L196.671 274.08C196.774 274.092 196.875 274.119 196.971 274.16C196.868 274.167 196.764 274.167 196.661 274.16L195.771 274.06L192.351 273.59L179.791 271.76L161.101 269L150.101 267.34L144.291 266.47C143.781 266.38 143.341 266.35 142.771 266.21C142.49 266.114 142.239 265.948 142.041 265.728C141.843 265.507 141.706 265.239 141.641 264.95C141.581 264.667 141.581 264.374 141.641 264.09C141.691 263.798 141.819 263.525 142.011 263.3C142.201 263.067 142.449 262.889 142.73 262.782C143.01 262.675 143.314 262.643 143.611 262.69L185.001 269C190.301 269.83 194.571 270.49 197.551 271C197.891 271.097 198.189 271.305 198.396 271.592C198.602 271.879 198.707 272.227 198.691 272.58C198.692 272.834 198.634 273.085 198.524 273.314C198.413 273.543 198.251 273.743 198.051 273.9C197.89 274.025 197.703 274.112 197.504 274.154C197.304 274.195 197.098 274.191 196.901 274.14Z" fill="#263238"/>
<path d="M142.203 257.545L142.227 257.387C142.286 256.996 142.498 256.645 142.816 256.41C143.134 256.176 143.533 256.078 143.923 256.137L199.103 264.502C199.491 264.56 199.84 264.771 200.073 265.087C200.305 265.403 200.403 265.799 200.344 266.187L200.32 266.345C200.261 266.733 200.051 267.082 199.735 267.315C199.419 267.547 199.023 267.645 198.635 267.586L143.456 259.222C143.263 259.194 143.078 259.128 142.911 259.029C142.744 258.93 142.598 258.798 142.482 258.643C142.366 258.487 142.281 258.31 142.233 258.122C142.185 257.933 142.175 257.737 142.203 257.545Z" fill="#E0E0E0"/>
<path d="M198.63 267.58C199.033 267.605 199.432 267.481 199.75 267.23C199.929 267.071 200.071 266.873 200.162 266.651C200.254 266.429 200.294 266.189 200.28 265.95C200.276 265.626 200.161 265.314 199.953 265.066C199.745 264.818 199.458 264.65 199.14 264.59L186.28 262.73L143.88 256.37C143.665 256.339 143.445 256.365 143.243 256.446C143.041 256.527 142.864 256.659 142.73 256.83C142.593 257.001 142.504 257.204 142.47 257.42C142.419 257.637 142.419 257.863 142.47 258.08C142.526 258.287 142.636 258.476 142.789 258.627C142.942 258.778 143.132 258.886 143.34 258.94C143.79 259.03 144.34 259.1 144.83 259.18L150.78 260.08L162.04 261.8L181.04 264.74L193.87 266.74L197.36 267.32L198.26 267.48L198.57 267.55H198.26L197.34 267.44L193.84 266.96L181 265.1L162 262.26L150.74 260.57L144.79 259.68C144.27 259.59 143.79 259.54 143.24 259.43C142.949 259.352 142.683 259.199 142.469 258.987C142.255 258.775 142.1 258.51 142.02 258.22C141.954 257.93 141.954 257.63 142.02 257.34C142.068 257.04 142.192 256.758 142.38 256.52C142.57 256.278 142.821 256.09 143.107 255.976C143.394 255.862 143.705 255.825 144.01 255.87L186.39 262.37L199.23 264.37C199.584 264.442 199.903 264.635 200.131 264.916C200.359 265.197 200.482 265.548 200.48 265.91C200.49 266.17 200.44 266.428 200.334 266.666C200.228 266.903 200.069 267.113 199.87 267.28C199.704 267.429 199.504 267.535 199.288 267.587C199.071 267.639 198.845 267.637 198.63 267.58Z" fill="#263238"/>
<path d="M142.124 250.719L142.148 250.561C142.207 250.173 142.417 249.824 142.733 249.591C143.049 249.358 143.445 249.26 143.833 249.319L201.257 258.024C201.449 258.054 201.633 258.12 201.8 258.221C201.966 258.321 202.111 258.453 202.226 258.61C202.342 258.766 202.425 258.944 202.472 259.133C202.518 259.321 202.527 259.517 202.498 259.709L202.474 259.868C202.415 260.258 202.203 260.61 201.885 260.844C201.567 261.078 201.168 261.177 200.778 261.118L143.374 252.415C142.985 252.357 142.637 252.146 142.404 251.83C142.171 251.514 142.073 251.118 142.132 250.73L142.124 250.719Z" fill="#E0E0E0"/>
<path d="M200.779 261.09C201.009 261.112 201.24 261.082 201.456 261.001C201.671 260.921 201.866 260.793 202.025 260.626C202.184 260.459 202.303 260.259 202.373 260.04C202.443 259.82 202.462 259.588 202.429 259.36C202.401 259.025 202.253 258.711 202.013 258.476C201.772 258.241 201.455 258.1 201.119 258.08L187.779 256.14L143.779 249.55C143.557 249.516 143.329 249.543 143.121 249.63C142.913 249.716 142.732 249.858 142.599 250.04C142.474 250.231 142.391 250.448 142.359 250.674C142.326 250.9 142.343 251.131 142.409 251.35C142.492 251.559 142.628 251.743 142.803 251.883C142.979 252.023 143.188 252.115 143.409 252.15L144.979 252.38L151.159 253.32L162.829 255.11L182.589 258.16L195.909 260.26L199.529 260.85L200.459 261.02L200.779 261.09C200.673 261.107 200.565 261.107 200.459 261.09L199.459 260.97L195.829 260.47L182.489 258.53L162.709 255.59L151.039 253.83L144.859 252.9L143.279 252.66C142.97 252.614 142.679 252.485 142.437 252.288C142.194 252.091 142.008 251.833 141.899 251.54C141.794 251.245 141.766 250.928 141.819 250.62C141.857 250.311 141.971 250.015 142.149 249.76C142.34 249.506 142.596 249.307 142.89 249.186C143.184 249.064 143.505 249.024 143.819 249.07L187.819 255.8L201.139 257.9C201.514 257.935 201.863 258.102 202.125 258.372C202.387 258.641 202.545 258.995 202.569 259.37C202.593 259.638 202.554 259.907 202.455 260.157C202.356 260.407 202.2 260.631 201.999 260.81C201.748 261.024 201.43 261.144 201.099 261.15C200.99 261.153 200.881 261.132 200.779 261.09Z" fill="#263238"/>
<path d="M140.14 216.51C140.05 217.06 139.26 230.19 138.86 236.94C138.787 238.162 138.992 239.384 139.46 240.515C139.927 241.646 140.645 242.657 141.56 243.47L144.28 245.89L201.52 254.77L204.8 253.31C205.929 252.803 206.928 252.044 207.72 251.093C208.511 250.142 209.076 249.022 209.37 247.82L214.18 228L140.14 216.51Z" fill="#F7CC7E"/>
<g opacity="0.3">
<path opacity="0.3" d="M145.109 273C150.429 275.11 155.909 276.06 161.959 277C166.849 277.73 171.619 278.61 176.959 279.32C180.859 279.85 184.459 280.2 188.359 280.64C190.359 280.86 192.559 280.69 193.019 280.36L145.109 273Z" fill="black"/>
</g>
<g opacity="0.3">
<path opacity="0.3" d="M144.1 266C149.85 268.17 155.76 269.2 162.29 270.18C167.56 270.98 172.71 271.91 178.44 272.69C182.64 273.26 186.53 273.69 190.74 274.14C192.86 274.39 195.26 274.25 195.74 273.92L144.1 266Z" fill="black"/>
</g>
<g opacity="0.3">
<path opacity="0.3" d="M145.131 259.36C150.881 261.53 156.791 262.56 163.321 263.54C168.591 264.34 173.731 265.27 179.471 266.05C183.671 266.62 187.561 267.05 191.761 267.5C193.891 267.75 196.281 267.61 196.761 267.28L145.131 259.36Z" fill="black"/>
</g>
<g opacity="0.3">
<path opacity="0.3" d="M146.15 252.75C151.9 254.92 157.81 255.95 164.34 256.93C169.61 257.73 174.76 258.66 180.49 259.44C184.7 260.01 188.58 260.44 192.79 260.89C194.91 261.14 197.31 261 197.79 260.67L146.15 252.75Z" fill="black"/>
</g>
<path d="M155.93 209.12C155.664 209.005 155.407 208.872 155.16 208.72C154.68 208.44 153.93 208.06 153.03 207.48C150.448 205.888 147.988 204.107 145.67 202.15C142.212 199.262 139.068 196.017 136.29 192.47C129.39 183.775 124.862 173.438 123.15 162.47C122.437 158.018 122.186 153.504 122.4 149C122.534 145.978 122.892 142.969 123.47 140C123.65 139 123.88 138.14 124.01 137.59C124.068 137.309 124.141 137.032 124.23 136.76C124.218 137.047 124.174 137.332 124.1 137.61C124.02 138.17 123.82 138.98 123.66 140.04C123.163 143.017 122.863 146.024 122.76 149.04C122.39 159.022 124.266 168.96 128.25 178.12C132.29 187.253 138.321 195.368 145.9 201.87C148.189 203.839 150.604 205.656 153.13 207.31C154.02 207.91 154.74 208.31 155.21 208.63C155.464 208.772 155.705 208.936 155.93 209.12Z" fill="#263238"/>
<path d="M129.22 124.05C128.994 125.242 128.603 126.396 128.06 127.48C127.669 128.633 127.121 129.727 126.43 130.73C126.654 129.535 127.044 128.377 127.59 127.29C127.989 126.143 128.537 125.054 129.22 124.05Z" fill="#263238"/>
<path d="M246.81 178C246.857 177.756 246.931 177.518 247.03 177.29C247.21 176.78 247.46 176.12 247.76 175.29L248.31 173.85C248.49 173.32 248.64 172.73 248.83 172.1C249.19 170.84 249.69 169.43 250 167.81C250.17 167 250.36 166.16 250.56 165.28C250.76 164.4 250.84 163.47 251 162.51C251.34 160.6 251.45 158.51 251.63 156.36C252.122 146.885 250.612 137.413 247.2 128.56C246.35 126.56 245.61 124.62 244.68 122.91C244.24 122.05 243.86 121.19 243.41 120.42L242.09 118.19C241.29 116.74 240.38 115.56 239.65 114.47C239.27 113.93 238.94 113.47 238.6 112.97L237.6 111.77C237.05 111.08 236.6 110.52 236.28 110.1C236.121 109.911 235.978 109.71 235.85 109.5C236.038 109.658 236.209 109.835 236.36 110.03L237.76 111.65C238.06 112 238.39 112.4 238.76 112.82C239.13 113.24 239.45 113.82 239.84 114.3C240.739 115.49 241.577 116.725 242.35 118C242.79 118.71 243.24 119.45 243.71 120.23C244.18 121.01 244.56 121.86 245.02 122.72C245.96 124.43 246.73 126.38 247.59 128.4C251.087 137.3 252.609 146.854 252.05 156.4C251.927 158.473 251.7 160.539 251.37 162.59C251.2 163.59 251.1 164.49 250.9 165.38L250.3 167.91C249.964 169.365 249.55 170.8 249.06 172.21C248.86 172.83 248.69 173.42 248.49 173.95L247.91 175.38C247.57 176.2 247.29 176.85 247.08 177.38C247 177.591 246.91 177.798 246.81 178Z" fill="#263238"/>
<g opacity="0.2">
<path opacity="0.2" d="M192.881 102.25C192.131 99.1599 189.251 96.5399 185.611 94.8099C180.381 92.4065 174.419 92.1481 169.001 94.0899C153.001 99.6099 143.101 107.74 135.311 123.68C132.671 129.07 130.311 138.31 132.261 144.3C132.7 145.809 133.447 147.21 134.456 148.415C135.465 149.62 136.713 150.602 138.121 151.3C145.571 154.78 152.951 148.16 156.501 141.3C159.801 134.9 161.801 127.4 167.421 122.88C172.051 119.17 178.251 118.23 183.671 115.82C189.091 113.41 194.271 108 192.881 102.25Z" fill="white"/>
</g>
<g opacity="0.2">
<path opacity="0.2" d="M221 103.87C219.14 99.0499 213 96.2199 209 97.3299C207.351 97.8334 205.837 98.7041 204.573 99.8767C203.308 101.049 202.326 102.493 201.7 104.1C201.006 106.06 200.913 108.183 201.434 110.196C201.954 112.209 203.063 114.021 204.62 115.4C206.23 116.715 208.214 117.489 210.29 117.611C212.366 117.733 214.427 117.197 216.18 116.08C219.66 113.75 222.51 107.74 221 103.87Z" fill="white"/>
</g>
<path opacity="0.3" d="M140.14 216.51C140.05 217.06 139.26 230.19 138.86 236.94C138.787 238.162 138.992 239.384 139.46 240.515C139.927 241.646 140.645 242.657 141.56 243.47L144.28 245.89L201.52 254.77L204.8 253.31C205.929 252.803 206.928 252.044 207.72 251.093C208.511 250.142 209.076 249.022 209.37 247.82L214.18 228L140.14 216.51Z" fill="black"/>
<path d="M214.62 228.06C214.62 228.2 197.98 225.74 177.51 222.56C157.04 219.38 140.45 216.7 140.51 216.56C140.57 216.42 157.15 218.88 177.63 222.06C198.11 225.24 214.64 227.92 214.62 228.06Z" fill="#263238"/>
<path d="M207.54 250.36C207.54 250.5 192.19 248.23 173.31 245.3C154.43 242.37 139.13 239.89 139.15 239.75C139.17 239.61 154.49 241.87 173.38 244.8C192.27 247.73 207.56 250.22 207.54 250.36Z" fill="#263238"/>
</svg>
