<svg width="500" height="500" viewBox="0 0 500 500" fill="none" xmlns="http://www.w3.org/2000/svg">
<path d="M249.109 228.5V228.51L249.129 228.52L249.109 228.5Z" fill="#F5F5F5"/>
<path d="M249.23 228.67L249.18 228.72H249.3L249.23 228.67Z" fill="#F5F5F5"/>
<path d="M249.391 228.71V228.72H249.421L249.391 228.71Z" fill="#F5F5F5"/>
<path d="M249.311 228.72H249.381L249.331 228.69L249.311 228.72Z" fill="#F5F5F5"/>
<path d="M249.08 228.68L249.07 228.62L248.75 228.52L249.04 228.71L249.08 228.68Z" fill="#F5F5F5"/>
<path d="M249.09 228.63V228.68L249.13 228.66L249.09 228.63Z" fill="#F5F5F5"/>
<path d="M249.369 228.65L249.359 228.67L249.379 228.68L249.369 228.65Z" fill="#F5F5F5"/>
<path d="M249.321 228.69H249.301L249.311 228.71L249.321 228.69Z" fill="#F5F5F5"/>
<path d="M249.129 228.65L249.149 228.64L249.119 228.63L249.129 228.65Z" fill="#F5F5F5"/>
<path d="M249.351 228.62L249.311 228.64L249.331 228.65L249.351 228.62Z" fill="#F5F5F5"/>
<path d="M236.001 135L249.221 227.68L262.331 135H262.541L280.061 10.12C259.371 7.27319 238.381 7.37757 217.721 10.43L235.631 135H236.001Z" fill="#F5F5F5"/>
<path d="M288.471 142.64L249.471 228.43L393.291 61.4301C377.406 47.6719 359.624 36.2717 340.491 27.5801L288.301 142.58L288.471 142.64Z" fill="#F5F5F5"/>
<path d="M158.669 202.15L248.519 228.46H248.169L249.039 228.71H249.099V228.66L249.169 228.71H249.049L249.119 228.76H249.169H249.119L249.479 228.92L249.179 228.73L339.559 255.19C339.547 255.258 339.531 255.325 339.509 255.39L459.349 290.61C465.538 270.465 468.788 249.533 468.999 228.46H343.629V228.62L249.459 228.72V228.64L249.869 228.51L249.529 228.73L250.369 228.49H249.959L460.399 166.11C454.527 145.839 445.749 126.525 434.339 108.77L249.859 228.46H249.539L249.669 228.3L249.429 228.46L249.519 227.95L249.349 228.33V228.46L249.239 228.54V228.46H249.169V228.33L248.999 228L249.059 228.42L248.869 228.3L248.969 228.41H248.659L64.8293 110.09C53.6142 127.801 45.0092 147.035 39.2793 167.2L158.669 202.2V202.15ZM249.179 228.69V228.75L248.889 228.56L249.179 228.69Z" fill="#F5F5F5"/>
<path d="M187.35 157.23L249 228.38L209.88 142.68L157.64 28.4399C138.66 37.2915 121.044 48.8151 105.33 62.6599L187.33 157.24L187.35 157.23Z" fill="#F5F5F5"/>
<path d="M433.069 347.27L328.659 279.86C328.639 279.888 328.622 279.918 328.609 279.95L249.609 229.09L311.199 300.09L311.049 300.22L391.999 393.8C407.816 380.306 421.644 364.64 433.069 347.27Z" fill="#F5F5F5"/>
<path d="M249.36 228.93V228.92L249.35 228.91L249.36 228.93Z" fill="#F5F5F5"/>
<path d="M249.14 228.74L249.13 228.77L249.09 228.75L249.1 228.82L249.11 228.81L249.17 228.8L249.14 228.78L249.16 228.75H249.18L249.17 228.74L249.18 228.72H249.09L249.14 228.74Z" fill="#F5F5F5"/>
<path d="M248.689 228.94L249.059 228.83L249.079 228.74L249.049 228.72L248.689 228.94Z" fill="#F5F5F5"/>
<path d="M248.839 229.12L170.049 280.24L169.869 279.95L66.6094 346.77C77.9298 364.08 91.6348 379.707 107.319 393.19L199.389 286.55L248.839 229.12Z" fill="#F5F5F5"/>
<path d="M158.72 255.47L249 228.72L31 229C31.1553 249.828 34.2835 270.527 40.29 290.47L158.7 255.53L158.72 255.47Z" fill="#F5F5F5"/>
<path d="M159.33 426.46C178.183 435.038 198.165 440.88 218.67 443.81L249 229.44L159.33 426.46Z" fill="#F5F5F5"/>
<path d="M249.379 228.81V228.77L249.359 228.78L249.379 228.81Z" fill="#F5F5F5"/>
<path d="M280.09 444C300.646 441.182 320.692 435.437 339.62 426.94L249.48 229.42L280.09 444Z" fill="#F5F5F5"/>
<path d="M249.141 229.08L249.241 229.79L249.341 229.1L249.231 228.88L249.141 229.08Z" fill="#F5F5F5"/>
<path d="M249.35 228.79L249.33 228.8L249.35 228.81V228.79Z" fill="#F5F5F5"/>
<path d="M469 479.35C469 479.5 370.94 479.61 250 479.61C129.06 479.61 31 479.5 31 479.35C31 479.2 129 479.09 250 479.09C371 479.09 469 479.21 469 479.35Z" fill="#263238"/>
<path d="M307.32 117.53C307.32 117.53 339.06 185.53 315.17 248.87C291.28 312.21 203.53 403 193.8 407.84C193.8 407.84 216.31 372.47 175.21 372.76C134.11 373.05 113.47 363.04 109.05 348.63C104.63 334.22 129.05 287.68 106.59 276.5C84.13 265.32 56.83 268.67 38.5 253.16C38.5 253.16 81.25 249.6 112.81 246.38C145.94 243 245.5 173.66 253.54 122.65" fill="#F7CC7E"/>
<g opacity="0.4">
<path opacity="0.4" d="M307.32 117.53C307.32 117.53 339.06 185.53 315.17 248.87C291.28 312.21 203.53 403 193.8 407.84C193.8 407.84 216.31 372.47 175.21 372.76C134.11 373.05 113.47 363.04 109.05 348.63C104.63 334.22 129.05 287.68 106.59 276.5C84.13 265.32 56.83 268.67 38.5 253.16C38.5 253.16 81.25 249.6 112.81 246.38C145.94 243 245.5 173.66 253.54 122.65" fill="black"/>
</g>
<path d="M191.83 234.62C191.655 234.775 191.467 234.915 191.27 235.04L189.6 236.17C188.16 237.17 186.03 238.51 183.37 240.17C178.05 243.43 170.52 247.68 161.93 251.8C154.593 255.317 147.084 258.461 139.43 261.22C136.49 262.27 134.1 263.08 132.43 263.59L130.51 264.18C130.29 264.262 130.062 264.319 129.83 264.35C130.034 264.24 130.249 264.15 130.47 264.08L132.36 263.4C134.01 262.83 136.36 261.97 139.3 260.87C145.14 258.69 153.12 255.44 161.71 251.33C170.3 247.22 177.81 243.03 183.18 239.85C185.86 238.27 188.02 236.95 189.49 236.03L191.21 234.98C191.403 234.838 191.611 234.718 191.83 234.62Z" fill="#263238"/>
<path d="M218.841 272.32C218.625 272.514 218.398 272.694 218.161 272.86L216.161 274.32C214.411 275.57 211.911 277.41 208.851 279.72C202.711 284.32 194.381 290.88 185.561 298.58C176.741 306.28 169.121 313.66 163.731 319.12C161.041 321.85 158.881 324.12 157.401 325.64L155.691 327.42C155.493 327.633 155.283 327.833 155.061 328.02C155.23 327.786 155.414 327.562 155.611 327.35L157.251 325.5C158.691 323.9 160.811 321.63 163.471 318.87C168.791 313.33 176.391 305.87 185.211 298.19C194.031 290.51 202.431 283.95 208.631 279.42C211.721 277.15 214.261 275.36 216.041 274.15L218.041 272.77C218.289 272.59 218.557 272.439 218.841 272.32Z" fill="#263238"/>
<path d="M215.191 283.46C215.107 283.599 215.006 283.726 214.891 283.84L213.961 284.84C213.141 285.71 211.961 286.94 210.421 288.43C207.421 291.43 203.121 295.43 198.191 299.68C193.261 303.93 188.631 307.52 185.191 310.06C183.481 311.32 182.081 312.33 181.101 313L179.971 313.77C179.842 313.868 179.701 313.949 179.551 314.01C179.551 314.01 179.671 313.88 179.911 313.68L180.981 312.84L184.981 309.76C188.331 307.16 192.921 303.5 197.831 299.28C202.741 295.06 207.071 291.09 210.151 288.17L213.791 284.7L214.791 283.76C215.051 283.55 215.171 283.45 215.191 283.46Z" fill="#263238"/>
<path d="M209.84 444L204.72 467.16L195.39 484.3C195.229 484.592 195.13 484.914 195.1 485.246C195.07 485.578 195.108 485.913 195.213 486.23C195.319 486.546 195.488 486.837 195.711 487.085C195.934 487.333 196.206 487.532 196.51 487.67C196.861 487.832 197.245 487.907 197.632 487.89C198.018 487.872 198.394 487.763 198.73 487.57C203.07 485.06 219 475.75 219.28 474.04C219.6 472.04 226.28 449.97 226.28 449.97L209.84 444Z" fill="#455A64"/>
<path d="M220.001 471.76C219.737 472.025 219.441 472.257 219.121 472.45L216.611 474.15L208.301 479.72L200.001 485.3C199.001 485.95 198.161 486.51 197.471 486.97C197.162 487.195 196.826 487.379 196.471 487.52C196.727 487.251 197.012 487.009 197.321 486.8C197.891 486.36 198.721 485.75 199.761 484.99C201.831 483.49 204.761 481.46 207.981 479.28C211.201 477.1 214.201 475.19 216.381 473.85C217.471 473.17 218.381 472.63 218.981 472.28C219.299 472.067 219.641 471.893 220.001 471.76Z" fill="#455A64"/>
<path d="M312.521 449.54L311.131 468C311.131 468 329.471 475.62 329.551 479.06H293.551L294.551 448.75L312.521 449.54Z" fill="#455A64"/>
<path d="M328.42 477.87C327.961 477.922 327.498 477.922 327.04 477.87L323.28 477.75C320.11 477.65 315.73 477.51 310.88 477.45C306.03 477.39 301.66 477.39 298.48 477.45H294.72C294.259 477.481 293.796 477.461 293.34 477.39C293.794 477.298 294.256 477.252 294.72 477.25C295.6 477.19 296.89 477.13 298.48 477.07C301.65 476.96 306.04 476.89 310.89 476.96C315.74 477.03 320.13 477.21 323.3 477.41C324.88 477.51 326.16 477.61 327.05 477.69C327.51 477.715 327.969 477.775 328.42 477.87Z" fill="#455A64"/>
<path d="M231.909 263.31L200.119 459.62L229.319 461.38L274.379 263.31H231.909Z" fill="#F57359"/>
<path d="M274.91 254.75L289.58 461.38H317.05V242.6L274.91 254.75Z" fill="#F57359"/>
<path d="M307.111 448.46C306.961 448.46 304.751 407.55 302.161 357.07C299.571 306.59 297.581 265.65 297.731 265.64C297.881 265.63 300.091 306.55 302.681 357.04C305.271 407.53 307.251 448.46 307.111 448.46Z" fill="#263238"/>
<path d="M317.05 448.46L316.84 448.53C316.66 448.53 316.38 448.63 316.03 448.68C315.32 448.8 314.28 448.94 313.03 449.1C310.48 449.41 306.94 449.78 303.03 450.1C295.22 450.81 288.84 451.1 288.85 450.74C288.85 450.74 288.95 450.74 289.13 450.74H289.96L292.96 450.5L302.96 449.63L312.96 448.75C315.5 448.56 317.16 448.44 317.05 448.46Z" fill="#263238"/>
<path d="M249.219 267.93C249.219 267.93 249.219 268.09 249.169 268.4C249.119 268.71 249.059 269.17 248.979 269.75C248.799 270.96 248.529 272.7 248.189 274.93C247.499 279.43 246.459 285.93 245.129 293.93C242.479 309.99 238.619 332.15 233.939 356.55C229.259 380.95 224.619 402.96 221.139 418.87C219.399 426.82 217.949 433.25 216.929 437.68C216.419 439.88 216.019 441.6 215.739 442.79L215.419 444.11C215.339 444.41 215.289 444.56 215.289 444.56C215.289 444.56 215.289 444.4 215.369 444.1C215.449 443.8 215.519 443.33 215.639 442.76C215.889 441.57 216.259 439.85 216.729 437.64C217.729 433.16 219.069 426.73 220.779 418.79C224.169 402.87 228.779 380.85 233.429 356.45C238.079 332.05 241.999 310 244.769 293.9C246.129 285.9 247.229 279.41 247.989 274.9C248.369 272.67 248.669 270.9 248.879 269.73C248.979 269.16 249.059 268.73 249.119 268.39C249.179 268.05 249.219 267.93 249.219 267.93Z" fill="#263238"/>
<path d="M232.259 448.46C231.866 448.523 231.466 448.539 231.069 448.51L227.839 448.43L217.179 448L206.529 447.5L203.299 447.35C202.905 447.349 202.511 447.326 202.119 447.28C203.583 447.076 205.065 447.026 206.539 447.13C209.269 447.13 213.039 447.3 217.199 447.48C221.359 447.66 225.129 447.88 227.849 448.06C229.219 448.15 230.319 448.23 231.079 448.3C231.477 448.313 231.872 448.367 232.259 448.46Z" fill="#263238"/>
<g opacity="0.3">
<path opacity="0.3" d="M230.369 272.86L230.999 268.96L273.619 266.55L272.009 273.66L230.369 272.86Z" fill="black"/>
</g>
<g opacity="0.3">
<path opacity="0.3" d="M276.12 273.66L274.91 266.52L317.05 264.44L317.04 274.54L276.12 273.66Z" fill="black"/>
</g>
<path d="M234.65 118.18L264.4 111.56L289.4 112.59L311.2 119.52L298.8 181.7L251.34 185.91L234.65 118.18Z" fill="#455A64"/>
<path d="M259.88 112.59L228.58 119.52L244.23 203.35C244.23 203.35 230.23 237.35 228.58 268.96L274.91 266.52C274.91 266.52 278.1 224.86 277.01 208.82C275.92 192.78 275.19 164.72 275.19 164.72L259.88 112.59Z" fill="#F57359"/>
<path d="M170.379 160.69C170.379 160.69 180.999 149.92 192.079 144.13C200.249 139.86 216.249 134.5 222.609 127.62C224.935 125.177 226.95 122.457 228.609 119.52L235.999 159L204.589 164C204.589 164 209.259 166.55 206.349 168.37L226.029 191.37L212.539 216.81C212.539 216.81 168.559 178.92 170.379 160.69Z" fill="#F57359"/>
<path d="M289.4 112.59C293.204 113.065 296.963 113.847 300.64 114.93C307.3 117.13 318.56 119.52 318.56 119.52L302.56 204.45C302.56 204.45 324.31 231.33 318.56 264.22C318.56 264.22 288.51 266.59 274.91 266.52L274.73 163.18C274.73 163.18 286.12 148.68 287.58 134.46C289.04 120.24 289.4 112.59 289.4 112.59Z" fill="#F57359"/>
<path d="M318.561 119.52C318.561 119.52 336.491 138.09 346.361 145.1C356.231 152.11 368.651 162.6 368.651 168.18C368.452 171.672 367.741 175.115 366.541 178.4C365.851 180.463 364.838 182.404 363.541 184.15C359.011 190.15 347.011 205.81 339.081 213.24L319.081 192.17L338.081 171.17C338.081 171.17 312.581 160.65 311.321 157.79C310.061 154.93 318.561 119.52 318.561 119.52Z" fill="#F57359"/>
<path d="M274.54 174.38C274.374 174.259 274.22 174.121 274.08 173.97L272.83 172.72L268.24 168L252.68 151.75L252.59 151.65V151.51L254.65 142.87C254.96 141.58 255.26 140.31 255.56 139.05L255.81 139.37H245.59L245.69 139.05C248.11 131.72 250.18 125.44 251.69 120.94C252.43 118.75 253.02 117 253.45 115.74C253.65 115.17 253.81 114.74 253.94 114.37C253.986 114.207 254.05 114.05 254.13 113.9C254.104 114.067 254.064 114.23 254.01 114.39C253.91 114.75 253.77 115.21 253.6 115.79L252 121C250.55 125.52 248.54 131.82 246.2 139.17L245.97 138.85H255.88H256.21L256.14 139.17C255.84 140.43 255.53 141.7 255.23 142.99C254.51 145.99 253.82 148.87 253.16 151.63L253.09 151.4L268.52 167.78L273 172.61L274.19 173.93C274.32 174.069 274.437 174.22 274.54 174.38Z" fill="#263238"/>
<path d="M274.909 266.52C274.769 266.52 274.579 243.21 274.489 214.46C274.399 185.71 274.439 162.39 274.579 162.38C274.719 162.37 274.909 185.69 275.009 214.46C275.109 243.23 275.059 266.52 274.909 266.52Z" fill="#263238"/>
<path d="M294.2 113.35C294.266 113.531 294.313 113.719 294.34 113.91C294.41 114.33 294.51 114.91 294.64 115.55C294.89 117.04 295.24 119.11 295.64 121.68L299.02 142.61L299.07 142.95H298.73L293.21 142.21L293.48 141.84L294.61 144.14C295.37 145.69 296.12 147.22 296.84 148.67L296.91 148.82L296.81 148.94L282.27 167.1L277.91 172.47L276.71 173.91C276.584 174.085 276.436 174.243 276.27 174.38C276.38 174.195 276.503 174.017 276.64 173.85L277.76 172.36L282 166.89L296.43 148.57V148.85C295.72 147.4 294.97 145.85 294.2 144.32L293 142L292.78 141.56L293.27 141.62L298.79 142.38L298.51 142.67C297.23 134.3 296.11 126.99 295.31 121.67C294.94 119.09 294.64 117.01 294.42 115.52C294.333 114.853 294.263 114.303 294.21 113.87C294.192 113.697 294.189 113.523 294.2 113.35Z" fill="#263238"/>
<path d="M270.561 232.74C269.501 231.45 267.431 230.74 266.431 232.04C265.925 232.455 265.559 233.015 265.38 233.644C265.201 234.273 265.219 234.941 265.431 235.56C265.602 235.937 265.846 236.277 266.15 236.559C266.454 236.84 266.811 237.058 267.201 237.2C267.59 237.341 268.004 237.404 268.418 237.383C268.832 237.363 269.237 237.26 269.611 237.08C269.973 236.872 270.289 236.59 270.536 236.252C270.783 235.915 270.957 235.529 271.047 235.12C271.136 234.712 271.139 234.289 271.055 233.879C270.972 233.469 270.803 233.081 270.561 232.74Z" fill="#263238"/>
<path d="M271.12 205.75C270.06 204.45 267.99 203.7 266.99 205.05C266.487 205.467 266.122 206.026 265.943 206.655C265.765 207.283 265.781 207.951 265.99 208.57C266.16 208.948 266.404 209.289 266.708 209.571C267.011 209.853 267.369 210.072 267.758 210.214C268.148 210.355 268.562 210.418 268.977 210.396C269.391 210.375 269.797 210.271 270.17 210.09C270.533 209.882 270.848 209.6 271.095 209.262C271.342 208.925 271.516 208.539 271.606 208.13C271.695 207.722 271.698 207.299 271.615 206.889C271.531 206.479 271.362 206.091 271.12 205.75Z" fill="#263238"/>
<path d="M342.539 203.52C341.479 202.23 339.409 201.52 338.409 202.82C337.905 203.236 337.539 203.795 337.361 204.424C337.182 205.053 337.199 205.721 337.409 206.34C337.579 206.718 337.823 207.059 338.127 207.341C338.431 207.624 338.788 207.842 339.178 207.984C339.568 208.126 339.982 208.188 340.396 208.166C340.811 208.145 341.216 208.041 341.589 207.86C341.952 207.652 342.267 207.37 342.515 207.032C342.762 206.695 342.936 206.309 343.025 205.9C343.115 205.492 343.118 205.069 343.034 204.659C342.95 204.249 342.782 203.861 342.539 203.52Z" fill="#263238"/>
<path d="M212.311 206C211.251 204.7 209.181 203.95 208.181 205.3C207.677 205.716 207.311 206.275 207.132 206.904C206.954 207.533 206.971 208.201 207.181 208.82C207.351 209.198 207.595 209.539 207.899 209.821C208.202 210.103 208.56 210.322 208.95 210.464C209.339 210.605 209.754 210.668 210.168 210.646C210.582 210.625 210.988 210.521 211.361 210.34C211.724 210.132 212.039 209.85 212.286 209.512C212.533 209.175 212.707 208.789 212.797 208.38C212.886 207.972 212.889 207.549 212.806 207.139C212.722 206.729 212.553 206.341 212.311 206Z" fill="#263238"/>
<path d="M206.6 168.74C204.098 167.579 201.428 166.823 198.69 166.5C195.939 166.352 193.182 166.635 190.52 167.34C191.229 166.923 192.003 166.626 192.81 166.46C196.704 165.464 200.821 165.816 204.49 167.46C205.26 167.765 205.973 168.198 206.6 168.74Z" fill="#263238"/>
<path d="M190.52 164C191.129 163.596 191.807 163.305 192.52 163.14C194.229 162.628 196.005 162.375 197.79 162.39C199.577 162.406 201.353 162.686 203.06 163.22C203.769 163.41 204.444 163.71 205.06 164.11C202.685 163.426 200.238 163.023 197.77 162.91C195.318 162.978 192.883 163.344 190.52 164Z" fill="#263238"/>
<path d="M236.899 164.1C236.717 163.554 236.574 162.996 236.469 162.43L235.469 157.85C234.529 153.92 233.269 148.63 231.879 142.78C230.489 136.93 229.369 131.52 228.749 127.59C228.429 125.59 228.209 124.04 228.099 122.94C228.007 122.372 227.963 121.796 227.969 121.22C228.12 121.775 228.23 122.34 228.299 122.91C228.469 124 228.749 125.58 229.109 127.53C229.819 131.43 230.989 136.78 232.389 142.66C233.789 148.54 235.039 153.89 235.829 157.78C236.229 159.72 236.529 161.3 236.699 162.39C236.812 162.954 236.879 163.526 236.899 164.1Z" fill="#263238"/>
<path d="M317.45 121.44C317.428 122.032 317.355 122.621 317.23 123.2C317.04 124.41 316.78 126.01 316.46 127.96C315.79 132.05 314.89 137.57 313.9 143.66C312.91 149.75 311.9 155.33 311.18 159.33C310.8 161.33 310.48 162.95 310.24 164.07C310.15 164.655 310.009 165.23 309.82 165.79C309.841 165.19 309.901 164.592 310 164C310.2 162.79 310.46 161.19 310.77 159.24C311.44 155.14 312.35 149.63 313.34 143.54C314.33 137.45 315.34 131.87 316.06 127.86C316.44 125.86 316.76 124.25 316.99 123.13C317.105 122.557 317.259 121.993 317.45 121.44Z" fill="#263238"/>
<path d="M351.561 160.86C351.561 160.95 350.451 160.86 348.691 160.95C346.404 160.97 344.19 161.755 342.401 163.18C340.768 164.782 339.558 166.765 338.881 168.95C338.601 169.869 338.267 170.771 337.881 171.65C337.991 170.688 338.213 169.742 338.541 168.83C339.144 166.529 340.365 164.437 342.071 162.78C343.071 161.917 344.26 161.301 345.541 160.98C346.57 160.715 347.628 160.581 348.691 160.58C349.399 160.573 350.108 160.613 350.811 160.7C351.069 160.705 351.324 160.759 351.561 160.86Z" fill="#263238"/>
<path d="M356.331 165.53C356.331 165.62 355.231 165.53 353.471 165.65C348.874 165.917 344.43 167.397 340.591 169.94C339.111 170.94 338.281 171.62 338.221 171.55C338.161 171.48 338.381 171.32 338.741 170.98C339.258 170.495 339.806 170.044 340.381 169.63C344.191 166.872 348.758 165.354 353.461 165.28C354.165 165.268 354.87 165.302 355.571 165.38C355.831 165.382 356.089 165.433 356.331 165.53Z" fill="#263238"/>
<path d="M251.72 205.75C250.559 205.46 249.428 205.065 248.34 204.57C247.195 204.233 246.083 203.791 245.02 203.25C246.229 203.294 247.419 203.576 248.52 204.08C249.683 204.427 250.769 204.994 251.72 205.75Z" fill="#263238"/>
<path d="M253 195.7C253.08 195.82 250.74 197.42 248.11 199.7C245.48 201.98 243.54 204.04 243.43 203.93C244.644 202.184 246.106 200.625 247.77 199.3C249.326 197.849 251.088 196.636 253 195.7Z" fill="#263238"/>
<path d="M318.561 264.22C318.561 264.37 298.431 265.54 273.561 266.85C248.691 268.16 228.561 269.11 228.561 268.96C228.561 268.81 248.691 267.64 273.561 266.33C298.431 265.02 318.551 264.08 318.561 264.22Z" fill="#263238"/>
<g opacity="0.3">
<path opacity="0.3" d="M337.119 170.63C336.49 168.698 336.492 166.616 337.124 164.685C337.757 162.754 338.988 161.075 340.639 159.89C341.318 159.337 342.188 159.075 343.059 159.16C343.271 159.191 343.473 159.266 343.653 159.381C343.834 159.496 343.987 159.647 344.104 159.826C344.222 160.005 344.3 160.206 344.333 160.417C344.367 160.628 344.355 160.844 344.299 161.05C344.006 161.518 343.582 161.89 343.079 162.12C341.56 163.159 340.411 164.654 339.799 166.39C339.193 168.113 338.773 169.897 338.549 171.71" fill="black"/>
</g>
<g opacity="0.3">
<path opacity="0.3" d="M245.93 139.09C246.11 139.63 249.69 140.04 250.37 141.52C250.895 143.07 250.895 144.75 250.37 146.3C249.851 147.846 249.604 149.47 249.64 151.1C249.94 154 252.32 156.19 254.54 158.1C260.74 163.39 268.29 169.1 274.54 174.4C269 167.8 261.78 161 255.68 155C254.714 154.179 253.942 153.155 253.42 152C253.059 150.432 253.156 148.794 253.7 147.28C254.22 145.233 254.746 143.183 255.28 141.13C255.41 140.6 255.72 139.71 255.79 139.42C255.05 139.291 254.301 139.227 253.55 139.23C251.014 139.037 248.468 139.017 245.93 139.17" fill="black"/>
</g>
<path d="M211.49 208.41C211.562 208.124 211.669 207.849 211.81 207.59C212.05 207.08 212.42 206.35 212.9 205.46C214.177 203.152 215.614 200.937 217.2 198.83C218.779 196.71 220.507 194.705 222.37 192.83C223.09 192.12 223.69 191.56 224.12 191.19C224.55 190.82 224.79 190.63 224.82 190.66C224.139 191.51 223.411 192.321 222.64 193.09C221.28 194.57 219.46 196.66 217.64 199.09C215.82 201.52 214.29 203.88 213.25 205.59C212.721 206.564 212.133 207.506 211.49 208.41Z" fill="#263238"/>
<path d="M218.899 183.64C218.959 183.71 217.809 184.82 216.089 186.74C211.595 191.747 207.957 197.461 205.319 203.65C204.319 206.02 203.779 207.53 203.699 207.51C203.752 207.135 203.842 206.767 203.969 206.41C204.169 205.71 204.509 204.72 204.969 203.51C207.443 197.193 211.125 191.418 215.809 186.51C216.709 185.57 217.459 184.85 218.009 184.37C218.281 184.098 218.579 183.854 218.899 183.64Z" fill="#263238"/>
<path d="M347.79 203.86C347.493 203.619 347.224 203.344 346.99 203.04L344.92 200.74C343.16 198.81 340.67 196.18 337.85 193.36C335.03 190.54 332.39 188.06 330.45 186.31L328.14 184.24C327.837 184.006 327.562 183.738 327.32 183.44C327.663 183.611 327.983 183.827 328.27 184.08C328.86 184.52 329.69 185.18 330.69 186.03C332.69 187.72 335.38 190.17 338.21 193.03C341.04 195.89 343.5 198.53 345.21 200.54C346.06 201.54 346.72 202.37 347.21 202.95C347.438 203.23 347.632 203.536 347.79 203.86Z" fill="#263238"/>
<path d="M223.18 196.68L229.73 200.21L244.26 204.33C244.26 204.33 241.26 224.21 239.37 225.91C237.48 227.61 216.25 209.75 216.25 209.75L223.18 196.68Z" fill="#FFBE9D"/>
<path d="M322.229 195.49L317.499 199.17L303.869 205.66C303.869 205.66 310.169 224.75 312.289 226.11C314.409 227.47 332.389 206.33 332.389 206.33L322.229 195.49Z" fill="#FFBE9D"/>
<path d="M255.129 52C254.939 57.12 248.129 60.22 248.209 65.34C248.209 67.53 249.609 69.51 249.879 71.69C250.239 74.62 248.599 77.38 247.989 80.27C246.749 86.27 250.209 92.51 255.349 95.77C260.489 99.03 266.929 99.65 272.959 98.83" fill="#263238"/>
<path d="M296.31 50.78C296.11 53.53 297.92 55.98 299.75 58.04C301.58 60.1 303.61 62.25 304 65C304.7 69.83 300 74.31 300.95 79.1C301.47 81.66 303.57 83.72 303.95 86.31C304.33 88.9 302.95 91.31 301.31 93.17C299.67 95.03 297.72 94.79 296.25 96.85C294.54 99.1619 292.367 101.093 289.87 102.52C284.57 105.43 278.21 101.23 275.65 100.52" fill="#263238"/>
<path d="M254.1 55.0001C254.03 52.5101 256.33 50.5801 258.65 49.6701C260.97 48.7601 263.55 48.4201 265.65 47.0201C267.48 45.7901 268.71 43.8701 270.26 42.3001C272.171 40.3649 274.561 38.9719 277.187 38.2637C279.812 37.5556 282.579 37.5576 285.203 38.2697C287.828 38.9818 290.216 40.3783 292.124 42.3164C294.031 44.2545 295.39 46.6646 296.06 49.3001C296.95 52.8401 296.34 57.0401 293.54 59.3901C290.3 62.1301 285.49 61.5201 281.33 60.6701C277.17 59.8201 272.43 59.0001 269 61.4401C266.91 62.9201 265.71 65.3101 264.43 67.5301C263.15 69.7501 261.54 72.0101 259.12 72.8401C256.7 73.6701 253.42 72.2401 253.32 69.6801" fill="#263238"/>
<path d="M263.92 55.4902C262.882 55.6026 261.923 56.1007 261.235 56.8858C260.546 57.6709 260.177 58.686 260.2 59.7302L262.69 116C262.79 122.64 272.51 126.38 279.63 126.21C286.81 126.05 287.05 122.52 287.13 116.21C287.28 105.64 287.27 101.68 287.28 101.74C287.29 101.8 296.35 100.21 298.21 88.3602C299.13 82.4602 298.81 72.8002 298.3 64.9002C297.84 57.8002 293.11 49.0902 286.03 49.8502L263.92 55.4902Z" fill="#FFBE9D"/>
<path d="M294.54 71.6801C294.545 72.0755 294.395 72.4572 294.122 72.7433C293.849 73.0294 293.475 73.197 293.08 73.2101C292.887 73.2264 292.693 73.204 292.509 73.1441C292.325 73.0841 292.154 72.988 292.008 72.8612C291.862 72.7345 291.742 72.5797 291.657 72.406C291.571 72.2324 291.521 72.0433 291.51 71.8501C291.505 71.4486 291.658 71.0614 291.937 70.7728C292.217 70.4843 292.598 70.3179 293 70.3101C293.191 70.2979 293.383 70.3238 293.564 70.3862C293.745 70.4486 293.912 70.5464 294.056 70.6738C294.199 70.8012 294.315 70.9557 294.399 71.1284C294.482 71.3012 294.53 71.4886 294.54 71.6801Z" fill="#263238"/>
<path d="M296.221 69.9402C296.031 70.1302 294.871 69.2802 293.221 69.2902C291.571 69.3002 290.391 70.1202 290.221 69.9202C290.051 69.7202 290.321 69.4702 290.851 69.0902C291.553 68.5974 292.392 68.3353 293.251 68.3402C294.101 68.3391 294.93 68.605 295.621 69.1002C296.141 69.4902 296.311 69.8502 296.221 69.9402Z" fill="#263238"/>
<path d="M278.671 71.6801C278.676 72.0755 278.526 72.4572 278.253 72.7433C277.98 73.0294 277.606 73.197 277.211 73.2101C277.018 73.2264 276.824 73.204 276.64 73.1441C276.455 73.0842 276.285 72.988 276.139 72.8612C275.993 72.7345 275.873 72.5797 275.788 72.406C275.702 72.2324 275.652 72.0433 275.641 71.8501C275.635 71.4537 275.785 71.0708 276.058 70.7831C276.33 70.4954 276.705 70.3257 277.101 70.3101C277.294 70.2937 277.489 70.3165 277.674 70.377C277.859 70.4375 278.03 70.5346 278.176 70.6624C278.323 70.7902 278.442 70.9462 278.527 71.121C278.612 71.2958 278.661 71.4859 278.671 71.6801Z" fill="#263238"/>
<path d="M280.141 70.28C279.951 70.47 278.801 69.63 277.141 69.63C275.481 69.63 274.301 70.46 274.141 70.26C273.981 70.06 274.241 69.82 274.761 69.43C275.467 68.9382 276.31 68.6795 277.171 68.69C278.02 68.682 278.85 68.9446 279.541 69.44C280.061 69.83 280.231 70.19 280.141 70.28Z" fill="#263238"/>
<path d="M286.099 82.39C286.963 82.1211 287.856 81.9566 288.759 81.9C289.179 81.9 289.569 81.78 289.639 81.49C289.673 81.0579 289.576 80.6257 289.359 80.25C288.959 79.25 288.549 78.19 288.119 77.08C286.389 72.55 285.119 68.84 285.329 68.77C285.539 68.7 287.059 72.31 288.779 76.83C289.189 77.95 289.589 79.01 289.969 80.03C290.233 80.5339 290.311 81.1145 290.189 81.67C290.132 81.8196 290.039 81.953 289.919 82.0592C289.799 82.1654 289.655 82.2411 289.499 82.28C289.271 82.3435 289.036 82.3771 288.799 82.38C287.903 82.4933 286.996 82.4967 286.099 82.39Z" fill="#263238"/>
<path d="M287.28 101.74C281.7 101.836 276.203 100.382 271.4 97.54C271.53 97.54 275.77 105.78 287.12 104.54L287.28 101.74Z" fill="#EB996E"/>
<path d="M285.421 86.33C285.106 85.9432 284.7 85.641 284.239 85.4507C283.778 85.2604 283.277 85.188 282.781 85.24C282.42 85.2754 282.07 85.382 281.75 85.5536C281.431 85.7253 281.149 85.9586 280.921 86.24C280.69 86.517 280.554 86.8605 280.532 87.2203C280.511 87.5801 280.605 87.9374 280.801 88.24C281.065 88.5301 281.409 88.7359 281.789 88.8319C282.17 88.928 282.57 88.9099 282.941 88.78C283.706 88.4867 284.406 88.0449 285.001 87.48C285.184 87.3472 285.34 87.1809 285.461 86.99C285.521 86.9017 285.554 86.7971 285.554 86.69C285.554 86.5829 285.521 86.4783 285.461 86.39" fill="#F57359"/>
<path d="M281.29 83.5302C281.56 83.5302 281.57 85.2902 283.09 86.5302C284.61 87.7702 286.5 87.5302 286.51 87.8302C286.52 88.1302 286.09 88.1802 285.3 88.2002C284.258 88.2168 283.244 87.8624 282.44 87.2002C281.664 86.5704 281.166 85.6625 281.05 84.6702C281 84.0002 281.17 83.5202 281.29 83.5302Z" fill="#263238"/>
<path d="M280.87 67.4102C280.71 67.8602 279.08 67.6502 277.16 67.8802C275.24 68.1102 273.69 68.6502 273.44 68.2502C273.32 68.0602 273.59 67.6402 274.22 67.2502C275.051 66.7159 275.994 66.3802 276.975 66.2692C277.957 66.1582 278.951 66.2749 279.88 66.6102C280.59 66.8502 280.94 67.2002 280.87 67.4102Z" fill="#263238"/>
<path d="M295.601 65.2C295.321 65.58 294.191 65.2 292.841 65.2C291.491 65.2 290.331 65.45 290.071 65.07C289.951 64.88 290.131 64.5 290.631 64.15C291.303 63.7262 292.086 63.5122 292.881 63.5354C293.675 63.5585 294.445 63.8178 295.091 64.28C295.571 64.64 295.731 65 295.601 65.2Z" fill="#263238"/>
<path d="M258.91 95.1301C262.17 95.7901 262.46 94.1301 264.91 91.8701C266.117 90.727 267.042 89.3188 267.611 87.7568C268.18 86.1948 268.378 84.5218 268.19 82.8701C267.82 79.9601 266.25 77.0001 267.26 74.2401C268.59 70.6001 273.7 69.4801 275.05 65.8501C275.84 63.7301 275.13 61.2601 276.05 59.1901C276.97 57.1201 278.94 56.1301 280.93 55.4101C282.92 54.6901 285.06 54.1901 286.74 52.8901C288.42 51.5901 289.45 49.1301 288.37 47.3101C279.52 48.3704 270.829 50.482 262.48 53.6001C260.55 54.3201 258.48 55.1901 257.38 56.9101C256.28 58.6301 256.22 61.0801 256.33 63.2601C256.823 73.9267 257.316 84.5667 257.81 95.1801" fill="#263238"/>
<path d="M251.451 71.0002C251.264 69.0288 250.44 67.1721 249.102 65.7124C247.763 64.2528 245.985 63.27 244.038 62.9134C242.09 62.5569 240.079 62.8462 238.31 63.7373C236.542 64.6284 235.113 66.0725 234.241 67.8502C232.601 71.2002 233.171 75.2702 234.711 78.6702C236.531 82.6702 240.271 86.3902 244.711 86.1902C248.881 86.0002 252.231 82.3502 253.431 78.3502C254.631 74.3502 254.151 70.0802 253.651 65.9402" fill="#263238"/>
<path d="M249.13 87.1902C248.879 87.0041 248.668 86.7694 248.51 86.5002C248.044 85.7851 247.744 84.9756 247.63 84.1302C247.455 82.8829 247.492 81.6151 247.74 80.3802C247.98 78.9902 248.45 77.5302 248.74 75.9802C249.118 74.5489 249.207 73.0562 249 71.5902C248.76 70.2702 248.13 69.1502 247.86 68.1102C247.594 67.2911 247.569 66.4127 247.79 65.5802C247.98 64.9902 248.23 64.7502 248.25 64.7702C248.27 64.7902 248.1 65.0702 247.99 65.6302C247.859 66.426 247.935 67.2421 248.21 68.0002C248.698 69.141 249.119 70.3097 249.47 71.5002C249.718 73.0288 249.643 74.5924 249.25 76.0902C248.9 77.6702 248.42 79.0902 248.16 80.4702C247.901 81.6551 247.827 82.8727 247.94 84.0802C248.108 85.1904 248.514 86.2511 249.13 87.1902Z" fill="#455A64"/>
<path d="M249 73C248.531 73.72 247.91 74.3277 247.18 74.78C245.473 75.983 243.443 76.6452 241.355 76.6809C239.267 76.7165 237.217 76.124 235.47 74.98C234.729 74.5535 234.091 73.9698 233.6 73.27C233.66 73.2 234.34 73.9 235.67 74.67C237.391 75.6801 239.357 76.1958 241.353 76.1605C243.348 76.1253 245.295 75.5403 246.98 74.47C248.24 73.62 248.9 72.89 249 73Z" fill="#455A64"/>
<path d="M248.37 74.8102C248.163 75.4904 247.823 76.1227 247.37 76.6702C246.355 78.0609 245.072 79.2346 243.597 80.1224C242.122 81.0103 240.484 81.5943 238.78 81.8402C238.084 81.9822 237.366 81.9822 236.67 81.8402C237.346 81.6761 238.03 81.5493 238.72 81.4602C240.346 81.1212 241.904 80.5128 243.33 79.6602C244.749 78.8006 246.016 77.7126 247.08 76.4402C247.89 75.4702 248.3 74.7702 248.37 74.8102Z" fill="#455A64"/>
<path d="M251.36 91.1501C251.36 91.1501 251.31 91.1501 251.23 91.0101C251.108 90.8588 250.998 90.6983 250.9 90.5301C250.519 89.8923 250.254 89.1912 250.12 88.4601C249.897 87.2954 249.962 86.0937 250.31 84.9601C250.759 83.4343 251.738 82.1188 253.07 81.2501C254.47 80.2501 256.3 79.5701 257.47 77.9901C257.763 77.5959 257.971 77.1454 258.081 76.667C258.191 76.1886 258.201 75.6926 258.11 75.2101C257.884 74.1549 257.549 73.1261 257.11 72.1401C256.645 71.0135 256.419 69.8029 256.444 68.5844C256.47 67.3659 256.748 66.166 257.26 65.0601C257.797 63.8725 258.626 62.8403 259.67 62.0601C260.758 61.3019 261.996 60.7869 263.3 60.5501C264.58 60.2601 265.86 60.0901 267.05 59.7301C268.213 59.4169 269.281 58.8228 270.16 58.0001C270.954 57.147 271.436 56.0513 271.53 54.8901C271.637 53.7325 271.821 52.5833 272.08 51.4501C272.606 49.3195 273.714 47.3771 275.28 45.8401C276.655 44.5195 278.399 43.6477 280.28 43.3401C281.646 43.1082 283.049 43.2668 284.328 43.7976C285.607 44.3283 286.71 45.2097 287.51 46.3401C287.935 46.9457 288.247 47.6233 288.43 48.3401C288.504 48.5869 288.544 48.8425 288.55 49.1001C288.324 48.1462 287.913 47.2459 287.34 46.4501C286.655 45.5345 285.76 44.7971 284.73 44.3001C283.361 43.6482 281.823 43.4418 280.33 43.7101C278.524 44.0207 276.854 44.8714 275.54 46.1501C274.066 47.6502 273.029 49.5241 272.54 51.5701C272.286 52.7005 272.106 53.8463 272 55.0001C271.892 56.2668 271.369 57.4622 270.51 58.4001C269.56 59.2838 268.405 59.9192 267.15 60.2501C265.91 60.6301 264.62 60.8001 263.37 61.0901C262.135 61.3142 260.959 61.7945 259.92 62.5001C258.949 63.2271 258.175 64.1864 257.67 65.2901C257.186 66.3346 256.922 67.4675 256.894 68.6184C256.867 69.7694 257.077 70.9137 257.51 71.9801C257.957 72.9977 258.292 74.0605 258.51 75.1501C258.607 75.6915 258.592 76.2471 258.465 76.7822C258.337 77.3173 258.101 77.8204 257.77 78.2601C256.47 79.9601 254.59 80.6201 253.23 81.5701C251.948 82.3777 250.995 83.6146 250.54 85.0601C250.18 86.1453 250.088 87.3014 250.27 88.4301C250.458 89.3977 250.828 90.3208 251.36 91.1501Z" fill="#455A64"/>
<path d="M252.149 58.0701C252.061 57.8996 252.009 57.7121 251.999 57.5201C251.958 56.9672 252.099 56.4161 252.399 55.9501C252.866 55.1971 253.569 54.6202 254.399 54.3101C255.5 53.9593 256.677 53.9212 257.799 54.2001C259.039 54.4401 260.329 54.9301 261.739 55.2001C262.461 55.4016 263.217 55.446 263.957 55.3304C264.697 55.2148 265.403 54.9419 266.029 54.5301C267.289 53.5301 267.919 51.9101 268.559 50.2701C269.209 48.5092 270.134 46.8621 271.299 45.3901C273.566 42.5044 276.735 40.4621 280.299 39.5901C281.86 39.2217 283.489 39.263 285.029 39.7101C286.363 40.1352 287.548 40.9292 288.449 42.0001C289.209 42.8806 289.668 43.9807 289.759 45.1401C289.841 46.006 289.707 46.8787 289.369 47.6801C289.167 48.186 288.865 48.6454 288.479 49.0301C288.356 49.1759 288.206 49.2979 288.039 49.3901C288.527 48.8735 288.914 48.2697 289.179 47.6101C289.467 46.8311 289.566 45.995 289.469 45.1701C289.358 44.0802 288.903 43.054 288.169 42.2401C287.28 41.2552 286.134 40.5383 284.859 40.1701C283.385 39.7704 281.835 39.7463 280.349 40.1001C276.919 40.9834 273.875 42.9727 271.689 45.7601C270.551 47.1718 269.643 48.7547 268.999 50.4501C268.339 52.0901 267.689 53.8401 266.279 54.9101C265.599 55.4201 264.787 55.7253 263.939 55.7901C263.162 55.8494 262.381 55.7955 261.619 55.6301C260.159 55.3201 258.889 54.8101 257.689 54.5601C256.632 54.2674 255.516 54.2674 254.459 54.5601C253.681 54.8325 253.012 55.3479 252.549 56.0301C252.249 56.4576 252.088 56.9677 252.089 57.4901C252.109 57.8801 252.179 58.0601 252.149 58.0701Z" fill="#455A64"/>
<path d="M416.891 453.93C416.937 453.789 416.994 453.652 417.061 453.52C417.191 453.23 417.381 452.85 417.611 452.35C418.276 450.841 418.814 449.279 419.221 447.68C420.503 441.723 420.455 435.557 419.081 429.62C418.23 425.511 417.111 421.463 415.731 417.5C414.311 413.19 412.671 408.62 411.321 403.69C409.8 398.537 409.068 393.183 409.151 387.81C409.351 382.2 411.011 376.59 412.841 371.01C414.671 365.43 416.551 359.96 417.121 354.47C417.76 349.188 416.709 343.839 414.121 339.19C411.701 334.73 408.661 330.91 406.381 326.96C404.252 323.298 402.685 319.337 401.731 315.21C400.355 309.232 400.253 303.031 401.431 297.01C401.851 294.809 402.487 292.656 403.331 290.58C403.307 290.726 403.27 290.87 403.221 291.01C403.121 291.31 403.001 291.72 402.831 292.24C402.501 293.33 402.071 294.94 401.651 297.05C400.57 303.043 400.733 309.193 402.131 315.12C403.103 319.197 404.677 323.107 406.801 326.72C409.071 330.62 412.131 334.42 414.591 338.93C417.259 343.664 418.355 349.123 417.721 354.52C417.151 360.11 415.251 365.61 413.431 371.19C411.611 376.77 409.961 382.31 409.751 387.83C409.674 393.147 410.392 398.445 411.881 403.55C413.201 408.46 414.881 413.03 416.231 417.34C417.594 421.33 418.693 425.406 419.521 429.54C421.051 437.15 420.621 443.54 419.521 447.74C419.086 449.343 418.507 450.902 417.791 452.4C417.541 452.89 417.341 453.27 417.191 453.55C417.106 453.688 417.005 453.815 416.891 453.93Z" fill="#263238"/>
<path d="M409.44 330.86C409.44 330.86 404.81 316.06 413.11 307.4C413.174 307.329 413.257 307.278 413.35 307.252C413.442 307.227 413.539 307.227 413.631 307.255C413.723 307.282 413.805 307.334 413.869 307.406C413.932 307.478 413.974 307.566 413.99 307.66C414.43 310.1 415 317.54 409.44 330.86Z" fill="#579A72"/>
<path d="M412.21 312.33C412.196 313.248 412.093 314.162 411.9 315.06C411.59 316.94 411.23 319.15 410.84 321.59L409.84 328.11C409.766 329.024 409.602 329.928 409.35 330.81C409.276 329.893 409.306 328.97 409.44 328.06C409.59 326.37 409.89 324.06 410.31 321.49C410.73 318.92 411.17 316.64 411.53 314.99C411.655 314.08 411.883 313.188 412.21 312.33Z" fill="#263238"/>
<path d="M414.871 365.76C414.871 365.76 417.701 350.51 429.091 346.76C429.18 346.728 429.277 346.721 429.369 346.741C429.462 346.761 429.547 346.806 429.616 346.871C429.684 346.936 429.733 347.02 429.757 347.111C429.781 347.203 429.779 347.3 429.751 347.39C429.001 349.74 426.001 356.58 414.871 365.76Z" fill="#579A72"/>
<path d="M426 350.68C425.552 351.481 425.03 352.238 424.44 352.94L420.44 358.22L416.44 363.5C415.943 364.269 415.377 364.992 414.75 365.66C415.097 364.81 415.551 364.006 416.1 363.27C417.03 361.84 418.38 359.93 419.95 357.87C421.52 355.81 422.95 353.98 424.07 352.69C424.628 351.943 425.276 351.268 426 350.68Z" fill="#263238"/>
<path d="M411.79 404C411.79 404 410.07 388.6 419.87 381.68C419.946 381.622 420.037 381.586 420.132 381.577C420.227 381.568 420.323 381.586 420.408 381.629C420.494 381.672 420.565 381.737 420.615 381.819C420.665 381.901 420.691 381.994 420.69 382.09C420.66 384.57 419.78 392 411.79 404Z" fill="#579A72"/>
<path d="M418.05 386.33C417.858 387.228 417.58 388.105 417.22 388.95C416.57 390.74 415.79 392.84 414.94 395.16C414.09 397.48 413.33 399.58 412.68 401.37C412.433 402.251 412.098 403.106 411.68 403.92C411.779 403.006 411.983 402.107 412.29 401.24C412.76 399.61 413.5 397.38 414.4 394.96C415.3 392.54 416.17 390.36 416.84 388.8C417.153 387.936 417.559 387.107 418.05 386.33Z" fill="#263238"/>
<path d="M420.37 442.46C420.37 442.46 419.2 427 429.25 420.46C429.329 420.409 429.421 420.381 429.515 420.378C429.61 420.376 429.703 420.399 429.785 420.445C429.867 420.491 429.935 420.559 429.982 420.641C430.029 420.723 430.052 420.816 430.05 420.91C429.93 423.36 428.79 430.73 420.37 442.46Z" fill="#579A72"/>
<path d="M427.26 425C427.034 425.89 426.726 426.757 426.34 427.59C425.61 429.35 424.77 431.42 423.83 433.71C422.89 436 422.07 438.07 421.35 439.83C421.074 440.705 420.709 441.55 420.26 442.35C420.393 441.439 420.631 440.546 420.97 439.69C421.5 438.08 422.31 435.88 423.3 433.49C424.29 431.1 425.23 428.96 425.96 427.43C426.298 426.573 426.735 425.757 427.26 425Z" fill="#263238"/>
<path d="M402.791 317.86C402.791 317.86 389.041 310.68 388.791 298.69C388.79 298.595 388.814 298.501 388.862 298.419C388.91 298.337 388.979 298.27 389.063 298.225C389.146 298.179 389.241 298.158 389.335 298.162C389.43 298.167 389.522 298.197 389.601 298.25C391.621 299.66 397.281 304.52 402.791 317.86Z" fill="#579A72"/>
<path d="M391.631 302.81C392.27 303.469 392.843 304.189 393.341 304.96C394.461 306.5 395.771 308.31 397.211 310.32C398.651 312.33 399.981 314.12 401.101 315.66C401.69 316.362 402.215 317.115 402.671 317.91C401.961 317.324 401.326 316.652 400.781 315.91C399.691 314.61 398.251 312.76 396.781 310.65C395.311 308.54 393.961 306.65 393.041 305.19C392.483 304.452 392.01 303.654 391.631 302.81Z" fill="#263238"/>
<path d="M417.539 349.64C417.539 349.64 403.389 343.31 402.389 331.35C402.38 331.256 402.396 331.161 402.438 331.075C402.479 330.99 402.543 330.918 402.623 330.867C402.703 330.816 402.795 330.788 402.89 330.787C402.985 330.786 403.078 330.811 403.159 330.86C405.289 332.15 411.229 336.66 417.539 349.64Z" fill="#579A72"/>
<path d="M405.49 335.29C406.169 335.893 406.785 336.563 407.33 337.29L411.52 342.4L415.73 347.5C416.36 348.168 416.929 348.891 417.43 349.66C416.688 349.115 416.017 348.48 415.43 347.77C414.26 346.54 412.72 344.77 411.08 342.77C409.44 340.77 408 339 407 337.58C406.411 336.877 405.904 336.109 405.49 335.29Z" fill="#263238"/>
<path d="M409.401 385.08C409.401 385.08 399.681 373 404.241 361.9C404.275 361.812 404.334 361.735 404.41 361.678C404.486 361.621 404.576 361.586 404.671 361.578C404.766 361.57 404.861 361.588 404.945 361.631C405.03 361.674 405.101 361.739 405.151 361.82C406.461 363.93 409.691 370.65 409.401 385.08Z" fill="#579A72"/>
<path d="M405.201 366.82C405.529 367.68 405.767 368.571 405.911 369.48C406.321 371.34 406.791 373.48 407.321 375.94L408.741 382.39C408.996 383.269 409.174 384.17 409.271 385.08C408.86 384.257 408.547 383.387 408.341 382.49C407.861 380.86 407.341 378.59 406.751 376.06C406.161 373.53 405.751 371.23 405.511 369.55C405.307 368.654 405.203 367.739 405.201 366.82Z" fill="#263238"/>
<path d="M419 426.79C419 426.79 405 420.22 404.16 408.25C404.153 408.156 404.172 408.062 404.215 407.978C404.258 407.894 404.324 407.824 404.405 407.775C404.486 407.726 404.579 407.701 404.673 407.702C404.767 407.703 404.86 407.73 404.94 407.78C407.07 409.1 412.93 413.71 419 426.79Z" fill="#579A72"/>
<path d="M407.211 412.24C407.882 412.871 408.489 413.568 409.021 414.32L413.131 419.5L417.241 424.66C417.864 425.337 418.423 426.07 418.911 426.85C418.169 426.293 417.498 425.648 416.911 424.93C415.771 423.68 414.251 421.93 412.651 419.86C411.051 417.79 409.651 415.95 408.651 414.56C408.087 413.842 407.604 413.064 407.211 412.24Z" fill="#263238"/>
<path d="M447.001 365.84C447.012 365.953 447.012 366.067 447.001 366.18C447.001 366.45 447.001 366.78 447.001 367.18C447.001 368.11 446.901 369.37 446.831 370.94L446.101 384.36C445.101 389.97 442.241 396.18 438.411 402.22C435.591 406.67 432.641 410.71 430.101 414.47C427.782 417.751 425.7 421.193 423.871 424.77C422.665 427.194 421.688 429.725 420.951 432.33C420.701 433.25 420.521 433.98 420.411 434.47C420.369 434.726 420.302 434.977 420.211 435.22C420.213 434.961 420.244 434.703 420.301 434.45C420.371 433.94 420.521 433.21 420.731 432.27C421.386 429.621 422.314 427.047 423.501 424.59C425.292 420.971 427.348 417.488 429.651 414.17C432.181 410.38 435.121 406.34 437.921 401.91C441.731 395.91 444.571 389.78 445.611 384.26C446.001 378.76 446.321 374.15 446.551 370.85C446.681 369.29 446.781 368.03 446.861 367.1C446.861 366.71 446.931 366.38 446.961 366.1C446.991 365.82 447.001 365.84 447.001 365.84Z" fill="#263238"/>
<path d="M438.631 401.1C438.631 401.1 444.581 386.78 437.101 377.4C437.043 377.324 436.966 377.265 436.877 377.23C436.788 377.196 436.691 377.187 436.598 377.204C436.504 377.222 436.417 377.266 436.347 377.33C436.277 377.395 436.226 377.478 436.201 377.57C435.541 380 434.311 387.33 438.631 401.1Z" fill="#579A72"/>
<path d="M437.551 382.39C437.808 383.273 437.965 384.182 438.021 385.1C438.231 386.78 438.471 389.1 438.651 391.69C438.831 394.28 438.931 396.62 438.931 398.31C438.979 399.23 438.922 400.153 438.761 401.06C438.595 400.16 438.515 399.246 438.521 398.33C438.391 396.43 438.241 394.2 438.071 391.73C437.901 389.26 437.751 387.04 437.611 385.14C437.5 384.228 437.48 383.307 437.551 382.39Z" fill="#263238"/>
<g opacity="0.3">
<path opacity="0.3" d="M438.631 401.1C438.631 401.1 444.581 386.78 437.101 377.4C437.043 377.324 436.966 377.265 436.877 377.23C436.788 377.196 436.691 377.187 436.598 377.204C436.504 377.222 436.417 377.266 436.347 377.33C436.277 377.395 436.226 377.478 436.201 377.57C435.541 380 434.311 387.33 438.631 401.1Z" fill="black"/>
</g>
<path d="M420.21 435.6C420.21 435.6 424.98 420.84 416.76 412.1C416.697 412.03 416.614 411.978 416.523 411.952C416.431 411.926 416.334 411.926 416.243 411.952C416.151 411.978 416.069 412.029 416.005 412.099C415.941 412.17 415.898 412.257 415.88 412.35C415.41 414.79 414.79 422.22 420.21 435.6Z" fill="#579A72"/>
<path d="M417.62 417C417.941 417.861 418.172 418.752 418.31 419.66C418.65 421.32 419.08 423.66 419.47 426.18C419.86 428.7 420.14 431.07 420.28 432.76C420.41 433.671 420.427 434.595 420.33 435.51C420.099 434.622 419.945 433.715 419.87 432.8C419.59 430.92 419.26 428.71 418.87 426.27C418.48 423.83 418.16 421.62 417.87 419.73C417.693 418.831 417.609 417.916 417.62 417Z" fill="#263238"/>
<g opacity="0.3">
<path opacity="0.3" d="M420.21 435.6C420.21 435.6 424.98 420.84 416.76 412.1C416.697 412.03 416.614 411.978 416.523 411.952C416.431 411.926 416.334 411.926 416.243 411.952C416.151 411.978 416.069 412.029 416.005 412.099C415.941 412.17 415.898 412.257 415.88 412.35C415.41 414.79 414.79 422.22 420.21 435.6Z" fill="black"/>
</g>
<path d="M446.211 383.6C446.211 383.6 458.911 374.71 457.631 362.78C457.622 362.686 457.587 362.596 457.53 362.521C457.473 362.445 457.396 362.387 457.308 362.353C457.22 362.318 457.124 362.309 457.031 362.327C456.938 362.344 456.851 362.387 456.781 362.45C454.931 364.11 450.001 369.66 446.211 383.6Z" fill="#579A72"/>
<g opacity="0.3">
<path opacity="0.3" d="M446.211 383.6C446.211 383.6 458.911 374.71 457.631 362.78C457.622 362.686 457.587 362.596 457.53 362.521C457.473 362.445 457.396 362.387 457.308 362.353C457.22 362.318 457.124 362.309 457.031 362.327C456.938 362.344 456.851 362.387 456.781 362.45C454.931 364.11 450.001 369.66 446.211 383.6Z" fill="black"/>
</g>
<path d="M455.33 367.24C455.071 368.12 454.715 368.968 454.27 369.77C453.55 371.31 452.5 373.4 451.27 375.68C450.04 377.96 448.86 379.98 447.95 381.41C447.502 382.216 446.958 382.965 446.33 383.64C446.673 382.789 447.095 381.972 447.59 381.2C448.51 379.53 449.59 377.57 450.76 375.4L453.91 369.59C454.301 368.76 454.777 367.972 455.33 367.24Z" fill="#263238"/>
<path d="M425.33 421C425.33 421 440.65 418.61 444.75 407.34C444.785 407.252 444.795 407.156 444.778 407.062C444.762 406.969 444.719 406.882 444.656 406.811C444.592 406.74 444.511 406.689 444.419 406.662C444.328 406.635 444.232 406.635 444.14 406.66C441.75 407.31 434.83 410.11 425.33 421Z" fill="#579A72"/>
<g opacity="0.3">
<path opacity="0.3" d="M425.33 421C425.33 421 440.65 418.61 444.75 407.34C444.785 407.252 444.795 407.156 444.778 407.062C444.762 406.969 444.719 406.882 444.656 406.811C444.592 406.74 444.511 406.689 444.419 406.662C444.328 406.635 444.232 406.635 444.14 406.66C441.75 407.31 434.83 410.11 425.33 421Z" fill="black"/>
</g>
<path d="M440.73 410.3C440.107 410.976 439.413 411.583 438.66 412.11C437.34 413.17 435.47 414.58 433.37 416.11C431.27 417.64 429.31 418.9 427.86 419.79C427.103 420.313 426.287 420.746 425.43 421.08C426.113 420.472 426.849 419.926 427.63 419.45L433.03 415.63L438.42 411.8C439.134 411.22 439.909 410.717 440.73 410.3Z" fill="#263238"/>
<path d="M410.72 449.16L406.25 479.23H434.1L430.49 449.16H410.72Z" fill="#444545"/>
<path d="M431.601 458.48C427.865 458.77 424.116 458.866 420.371 458.77C416.625 458.866 412.876 458.77 409.141 458.48C412.876 458.191 416.625 458.094 420.371 458.19C424.116 458.094 427.865 458.191 431.601 458.48Z" fill="#263238"/>
<path d="M432.15 460.87C432.15 461.03 426.96 461.16 420.56 461.16C414.16 461.16 409 461 409 460.87C409 460.74 414.19 460.58 420.6 460.58C427.01 460.58 432.15 460.71 432.15 460.87Z" fill="#263238"/>
<path d="M79.0805 424.34C80.4883 424.578 81.8337 425.098 83.0364 425.868C84.2391 426.637 85.2744 427.641 86.0805 428.82C87.6735 431.199 88.6997 433.912 89.0805 436.75C89.9905 442.19 88.5205 448.37 86.5005 453.51C80.9505 450.9 77.9905 444.44 76.7005 441.06C74.7005 435.73 74.2005 424.84 79.0405 424.34" fill="#579A72"/>
<path d="M94.7195 461.17C93.8838 459.807 93.4241 458.247 93.3872 456.648C93.3503 455.05 93.7375 453.47 94.5095 452.07C95.3022 450.682 96.3643 449.466 97.6333 448.494C98.9024 447.522 100.353 446.814 101.9 446.41C102.589 446.147 103.327 446.037 104.063 446.089C104.799 446.14 105.514 446.353 106.16 446.71C106.701 447.14 107.117 447.707 107.365 448.353C107.613 448.998 107.684 449.698 107.57 450.38C107.32 451.742 106.716 453.015 105.82 454.07C102.93 457.81 99.4395 460.89 94.7195 461.17Z" fill="#579A72"/>
<path d="M93.3196 478.41C93.2037 478.041 93.1431 477.657 93.1396 477.27C93.0596 476.53 92.9696 475.45 92.8896 474.12C92.6368 470.64 92.8521 467.143 93.5296 463.72C94.2402 460.262 95.8709 457.059 98.2496 454.45C98.986 453.687 99.812 453.015 100.71 452.45C101.013 452.225 101.351 452.049 101.71 451.93C100.575 452.782 99.5145 453.729 98.5396 454.76C96.3162 457.376 94.786 460.509 94.0896 463.87C93.4323 467.245 93.1638 470.684 93.2896 474.12C93.3858 475.548 93.3958 476.981 93.3196 478.41Z" fill="#263238"/>
<path d="M80.3711 432.6C80.6571 433.171 80.8914 433.767 81.0711 434.38C81.4811 435.54 82.0711 437.22 82.7411 439.31C84.1011 443.49 85.8911 449.31 87.7411 455.76C89.5911 462.21 91.0711 468.11 92.0811 472.39C92.5911 474.53 92.9811 476.26 93.2411 477.47C93.402 478.087 93.5124 478.715 93.5711 479.35C93.3325 478.76 93.1418 478.151 93.0011 477.53C92.6611 476.23 92.2011 474.53 91.6611 472.53C90.5311 468.28 88.9611 462.41 87.1511 455.96C85.3411 449.51 83.6111 443.68 82.3511 439.47L80.8711 434.47C80.6528 433.862 80.4856 433.236 80.3711 432.6Z" fill="#263238"/>
<path d="M87.3303 466.35C85.9459 463.276 83.8484 460.577 81.2118 458.476C78.5753 456.375 75.4757 454.933 72.1703 454.27C70.4903 453.95 68.4203 453.99 67.4803 455.43C66.5403 456.87 67.3503 458.79 68.3603 460.17C70.5154 463.032 73.4709 465.191 76.853 466.373C80.235 467.554 83.8917 467.707 87.3603 466.81" fill="#579A72"/>
<path d="M74 459.11C74.3703 459.082 74.7426 459.119 75.1 459.22C75.5325 459.28 75.9602 459.37 76.38 459.49C76.9405 459.62 77.4917 459.787 78.03 459.99C79.4556 460.479 80.8264 461.116 82.12 461.89C85.3081 463.781 88.0073 466.395 90 469.52C90.795 470.785 91.4649 472.125 92 473.52C92.2117 474.057 92.3953 474.604 92.55 475.16C92.6845 475.575 92.7881 476 92.86 476.43C92.9643 476.787 93.0149 477.158 93.01 477.53C92.89 477.53 92.59 476 91.59 473.69C91.0059 472.34 90.3032 471.045 89.49 469.82C88.4771 468.331 87.3217 466.945 86.04 465.68C84.7355 464.44 83.3119 463.331 81.79 462.37C80.5427 461.58 79.2235 460.911 77.85 460.37C75.56 459.48 74 459.22 74 459.11Z" fill="#263238"/>
<path d="M362.801 95.4299C362.801 95.7299 364.971 95.9699 367.641 95.9699C370.311 95.9699 372.481 95.7299 372.481 95.4299C372.481 95.1299 370.321 94.8999 367.641 94.8999C364.961 94.8999 362.801 95.1399 362.801 95.4299Z" fill="#579A72"/>
<path d="M357.661 82.2598C357.361 82.2598 357.121 84.4598 357.121 87.1698C357.121 89.8798 357.361 92.0898 357.661 92.0898C357.961 92.0898 358.191 89.8898 358.191 87.1698C358.191 84.4498 358.001 82.2598 357.661 82.2598Z" fill="#579A72"/>
<path d="M352.18 95.1198C352.18 94.8198 350.01 94.5798 347.34 94.5798C344.67 94.5798 342.5 94.8198 342.5 95.1198C342.5 95.4198 344.66 95.6498 347.34 95.6498C350.02 95.6498 352.18 95.4098 352.18 95.1198Z" fill="#579A72"/>
<path d="M357.321 108.29C357.621 108.29 357.861 106.09 357.861 103.38C357.861 100.67 357.621 98.46 357.321 98.46C357.021 98.46 356.791 100.66 356.791 103.38C356.791 106.1 357.001 108.29 357.321 108.29Z" fill="#579A72"/>
<path d="M349.501 102.64C349.721 102.83 350.681 102.06 351.631 100.92C352.581 99.7798 353.171 98.7098 352.941 98.5198C352.711 98.3298 351.761 99.0998 350.811 100.23C349.861 101.36 349.271 102.45 349.501 102.64Z" fill="#579A72"/>
<path d="M350.001 87.6999C349.791 87.9099 350.421 88.8899 351.411 89.8799C352.401 90.8699 353.361 91.5199 353.571 91.3099C353.781 91.0999 353.151 90.1199 352.171 89.1299C351.191 88.1399 350.161 87.4899 350.001 87.6999Z" fill="#579A72"/>
<path d="M361.051 91.5099C361.241 91.7299 362.151 91.2799 363.051 90.5099C363.951 89.7399 364.601 88.9099 364.411 88.6899C364.221 88.4699 363.311 88.9099 362.411 89.6899C361.511 90.4699 360.861 91.2799 361.051 91.5099Z" fill="#579A72"/>
<path d="M361.481 98.0898C361.271 98.2898 361.811 99.2498 362.711 100.23C363.611 101.21 364.511 101.85 364.711 101.65C364.911 101.45 364.381 100.49 363.481 99.5098C362.581 98.5298 361.701 97.8898 361.481 98.0898Z" fill="#579A72"/>
<path d="M123.49 210.92C124.373 211.223 125.312 211.329 126.24 211.23C127.169 211.329 128.107 211.223 128.99 210.92C128.106 210.623 127.168 210.521 126.24 210.62C125.313 210.521 124.375 210.623 123.49 210.92Z" fill="#579A72"/>
<path d="M120.572 203.44C120.171 205.278 120.171 207.181 120.572 209.02C120.985 207.183 120.985 205.277 120.572 203.44Z" fill="#579A72"/>
<path d="M117.461 210.74C116.577 210.443 115.639 210.341 114.711 210.44C113.783 210.341 112.845 210.443 111.961 210.74C112.844 211.043 113.783 211.149 114.711 211.05C115.639 211.149 116.578 211.043 117.461 210.74Z" fill="#579A72"/>
<path d="M120.38 218.22C120.793 216.383 120.793 214.477 120.38 212.64C119.98 214.478 119.98 216.381 120.38 218.22Z" fill="#579A72"/>
<path d="M115.94 215C116.07 215.11 116.61 214.67 117.15 214C117.69 213.33 118.02 212.74 117.89 212.63C117.76 212.52 117.22 212.96 116.68 213.63C116.14 214.3 115.81 214.91 115.94 215Z" fill="#579A72"/>
<path d="M116.19 206.53C116.08 206.65 116.43 207.2 116.99 207.77C117.55 208.34 118.1 208.7 118.22 208.58C118.34 208.46 117.99 207.91 117.43 207.34C116.87 206.77 116.31 206.41 116.19 206.53Z" fill="#579A72"/>
<path d="M122.501 208.69C122.601 208.82 123.121 208.57 123.661 208.12C124.201 207.67 124.541 207.21 124.431 207.12C124.321 207.03 123.801 207.25 123.271 207.69C122.741 208.13 122.391 208.56 122.501 208.69Z" fill="#579A72"/>
<path d="M122.741 212.43C122.621 212.54 122.931 213.09 123.441 213.65C123.951 214.21 124.441 214.57 124.591 214.45C124.741 214.33 124.401 213.79 123.891 213.24C123.381 212.69 122.871 212.32 122.741 212.43Z" fill="#579A72"/>
<path d="M367.791 270.2C369.603 270.6 371.48 270.6 373.291 270.2C371.481 269.787 369.601 269.787 367.791 270.2Z" fill="#579A72"/>
<path d="M364.87 262.72C364.47 264.558 364.47 266.461 364.87 268.3C365.284 266.463 365.284 264.557 364.87 262.72Z" fill="#579A72"/>
<path d="M361.762 270C359.952 269.587 358.072 269.587 356.262 270C358.073 270.4 359.95 270.4 361.762 270Z" fill="#579A72"/>
<path d="M364.681 277.5C365.094 275.663 365.094 273.757 364.681 271.92C364.281 273.758 364.281 275.661 364.681 277.5Z" fill="#579A72"/>
<path d="M360.241 274.29C360.371 274.4 360.911 273.96 361.451 273.29C361.991 272.62 362.321 272.04 362.191 271.93C362.061 271.82 361.521 272.26 360.981 272.93C360.441 273.6 360.111 274.18 360.241 274.29Z" fill="#579A72"/>
<path d="M360.5 265.81C360.38 265.93 360.73 266.48 361.29 267.05C361.85 267.62 362.41 267.97 362.52 267.86C362.63 267.75 362.29 267.18 361.73 266.62C361.17 266.06 360.61 265.69 360.5 265.81Z" fill="#579A72"/>
<path d="M366.801 268C366.901 268.13 367.421 267.87 367.961 267.43C368.501 266.99 368.842 266.52 368.732 266.43C368.622 266.34 368.102 266.56 367.572 267C367.042 267.44 366.691 267.84 366.801 268Z" fill="#579A72"/>
<path d="M367 271.71C366.88 271.82 367.19 272.36 367.7 272.92C368.21 273.48 368.7 273.84 368.85 273.73C369 273.62 368.66 273.07 368.15 272.51C367.64 271.95 367.17 271.59 367 271.71Z" fill="#579A72"/>
<path d="M165.551 425.05C167.359 425.45 169.233 425.45 171.041 425.05C169.233 424.65 167.359 424.65 165.551 425.05Z" fill="#579A72"/>
<path d="M162.63 417.57C162.217 419.407 162.217 421.313 162.63 423.15C163.03 421.311 163.03 419.408 162.63 417.57Z" fill="#579A72"/>
<path d="M159.521 424.87C157.71 424.47 155.833 424.47 154.021 424.87C155.832 425.283 157.711 425.283 159.521 424.87Z" fill="#579A72"/>
<path d="M162.441 432.35C162.841 430.511 162.841 428.608 162.441 426.77C162.028 428.607 162.028 430.513 162.441 432.35Z" fill="#579A72"/>
<path d="M158.002 429.14C158.132 429.25 158.672 428.81 159.212 428.14C159.752 427.47 160.092 426.88 159.962 426.77C159.832 426.66 159.292 427.1 158.752 427.77C158.212 428.44 157.862 429 158.002 429.14Z" fill="#579A72"/>
<path d="M158.252 420.66C158.132 420.78 158.492 421.33 159.052 421.9C159.612 422.47 160.162 422.83 160.282 422.71C160.402 422.59 160.042 422.04 159.482 421.47C158.922 420.9 158.372 420.54 158.252 420.66Z" fill="#579A72"/>
<path d="M164.552 422.82C164.662 422.95 165.182 422.7 165.712 422.25C166.242 421.8 166.592 421.34 166.482 421.25C166.372 421.16 165.862 421.38 165.322 421.82C164.782 422.26 164.442 422.69 164.552 422.82Z" fill="#579A72"/>
<path d="M164.801 426.56C164.671 426.67 164.991 427.22 165.491 427.78C165.991 428.34 166.491 428.69 166.641 428.58C166.791 428.47 166.451 427.92 165.941 427.37C165.431 426.82 164.921 426.45 164.801 426.56Z" fill="#579A72"/>
<path d="M161.551 170.39L161.231 171.15C160.958 171.804 160.558 172.397 160.055 172.897C159.553 173.396 158.956 173.791 158.301 174.06L157.471 174.39L158.261 174.71C158.939 174.979 159.554 175.385 160.07 175.9C160.586 176.416 160.991 177.032 161.261 177.71L161.491 178.26L161.821 177.57C162.428 176.307 163.505 175.331 164.821 174.85L165.531 174.59L164.601 174.13C163.42 173.56 162.489 172.578 161.981 171.37L161.551 170.39Z" fill="#579A72"/>
<path d="M126.27 157.16L126.11 157.54C125.976 157.868 125.777 158.166 125.527 158.416C125.276 158.667 124.978 158.865 124.65 159L124.23 159.16L124.63 159.32C124.964 159.457 125.267 159.659 125.521 159.915C125.775 160.171 125.976 160.475 126.11 160.81L126.22 161.08L126.39 160.74C126.693 160.107 127.231 159.619 127.89 159.38L128.25 159.25L127.78 159.02C127.191 158.733 126.726 158.243 126.47 157.64L126.27 157.16Z" fill="#579A72"/>
<path d="M399.87 102.83L399.71 103.21C399.573 103.537 399.373 103.833 399.12 104.082C398.868 104.331 398.569 104.527 398.24 104.66L397.83 104.83L398.22 104.99C398.554 105.124 398.857 105.324 399.112 105.578C399.366 105.833 399.566 106.136 399.7 106.47L399.82 106.75L399.98 106.4C400.286 105.77 400.823 105.282 401.48 105.04L401.84 104.91L401.37 104.69C400.78 104.399 400.315 103.906 400.06 103.3L399.87 102.83Z" fill="#579A72"/>
<path d="M384.821 306.42L384.671 306.8C384.392 307.458 383.863 307.979 383.201 308.25L382.791 308.42L383.181 308.58C383.515 308.714 383.818 308.914 384.073 309.168C384.327 309.423 384.527 309.726 384.661 310.06L384.771 310.34L384.941 309.99C385.243 309.357 385.782 308.869 386.441 308.63L386.801 308.5L386.331 308.27C385.738 307.989 385.271 307.497 385.021 306.89L384.821 306.42Z" fill="#579A72"/>
<path d="M174.001 395.6L173.841 395.98C173.704 396.308 173.504 396.606 173.252 396.856C172.999 397.107 172.7 397.305 172.371 397.44L171.961 397.61L172.351 397.77C172.686 397.902 172.99 398.102 173.245 398.356C173.499 398.611 173.699 398.915 173.831 399.25L173.941 399.53L174.111 399.18C174.413 398.547 174.952 398.059 175.611 397.82L175.971 397.69L175.501 397.46C174.91 397.176 174.443 396.685 174.191 396.08L174.001 395.6Z" fill="#579A72"/>
<path d="M332.44 63.3799L332.28 63.7599C332.146 64.0885 331.947 64.3865 331.694 64.6358C331.442 64.8851 331.141 65.0804 330.81 65.2099L330.4 65.3799L330.8 65.5399C331.131 65.6734 331.433 65.8711 331.687 66.1217C331.941 66.3723 332.142 66.6708 332.28 66.9999L332.39 67.2699L332.56 66.9299C332.858 66.2978 333.394 65.809 334.05 65.5699L334.41 65.4299L333.94 65.2099C333.351 64.922 332.888 64.4272 332.64 63.8199L332.44 63.3799Z" fill="#579A72"/>
<path d="M356.33 329.45L356.01 330.21C355.737 330.864 355.338 331.457 354.835 331.957C354.332 332.456 353.736 332.851 353.08 333.12L352.25 333.45L353.04 333.77C353.718 334.04 354.334 334.445 354.849 334.96C355.365 335.476 355.77 336.092 356.04 336.77L356.27 337.32L356.6 336.63C357.205 335.365 358.282 334.389 359.6 333.91L360.32 333.65L359.38 333.19C358.199 332.616 357.267 331.631 356.76 330.42L356.33 329.45Z" fill="#579A72"/>
</svg>
