<svg width="500" height="500" viewBox="0 0 500 500" fill="none" xmlns="http://www.w3.org/2000/svg">
<path d="M150.179 90.82L150.559 88.82C153.709 71.82 165.379 58.11 181.189 53.82C183.228 53.2589 185.307 52.8577 187.409 52.62C202.569 50.93 218.719 57.99 228.829 70.7C234.769 78.18 239.019 87.7 247.019 92.49C257.439 98.72 270.019 94.65 280.879 90.49C291.739 86.33 304.349 82.27 314.739 88.55C321.249 92.48 325.449 99.84 327.659 107.38C333.509 127.33 326.769 149.38 313.479 163.73C300.189 178.08 281.239 185.51 261.999 187.9C235.099 191.24 206.169 184.77 183.929 166.97C161.689 149.17 147.289 119.39 150.179 90.82Z" fill="#F5F5F5"/>
<path d="M160.75 190.78C154.39 185.97 145.62 185.14 137.92 187.2C133.08 188.14 124.25 197.69 125.73 205.89C127.21 214.09 135.05 219.89 143.2 221.66C152.2 223.58 163.14 220.44 166.99 212.03C170.31 204.78 167.11 195.59 160.75 190.78Z" fill="#F5F5F5"/>
<path d="M318.449 35.12C312.079 30.31 303.319 29.48 295.609 31.54C290.779 32.48 281.999 42 283.419 50.23C284.839 58.46 292.749 64.23 300.899 66C309.899 67.93 320.839 64.78 324.679 56.37C327.999 49.12 324.809 39.93 318.449 35.12Z" fill="#F5F5F5"/>
<path d="M71.0397 405.96H41.4297V463.73H71.0397V405.96Z" fill="#F57359"/>
<path d="M135.321 429.6H105.711V463.74H135.321V429.6Z" fill="#F57359"/>
<g opacity="0.79">
<path opacity="0.79" d="M135.321 429.6H105.711V463.74H135.321V429.6Z" fill="white"/>
</g>
<path d="M195.051 463.74L165.441 463.94V386.49H195.051V463.74Z" fill="#F57359"/>
<path d="M257.581 422.95H227.971V463.74H257.581V422.95Z" fill="#F57359"/>
<g opacity="0.79">
<path opacity="0.79" d="M257.581 422.95H227.971V463.74H257.581V422.95Z" fill="white"/>
</g>
<path d="M319.061 386.48H289.451V463.73H319.061V386.48Z" fill="#F57359"/>
<path d="M379.96 287.7H350.35V463.74H379.96V287.7Z" fill="#F57359"/>
<g opacity="0.79">
<path opacity="0.79" d="M379.96 287.7H350.35V463.74H379.96V287.7Z" fill="white"/>
</g>
<path d="M70.9997 433.47C71.2297 433.7 64.8197 440.68 56.6797 449.04C48.5397 457.4 41.7497 464.04 41.5197 463.76C41.2897 463.48 47.6997 456.55 55.8397 448.18C63.9797 439.81 70.7997 433.23 70.9997 433.47Z" fill="white"/>
<path d="M135.121 434C135.351 434.24 128.941 441.22 120.801 449.58C112.661 457.94 105.861 464.58 105.631 464.3C105.401 464.02 111.811 457.09 119.961 448.72C128.111 440.35 134.891 433.74 135.121 434Z" fill="#F57359"/>
<path d="M257.52 433.44C257.75 433.68 251.34 440.65 243.2 449.02C235.06 457.39 228.26 464 228 463.74C227.74 463.48 234.18 456.52 242.33 448.16C250.48 439.8 257.29 433.2 257.52 433.44Z" fill="#F57359"/>
<path d="M70.6305 406.56C70.8605 406.79 64.4505 413.77 56.3105 422.13C48.1705 430.49 41.3805 437.13 41.1505 436.85C40.9205 436.57 47.3305 429.64 55.4705 421.27C63.6105 412.9 70.4005 406.32 70.6305 406.56Z" fill="white"/>
<path d="M195.5 433.9C195.73 434.14 189.32 441.12 181.18 449.48C173.04 457.84 166.24 464.48 166.01 464.2C165.78 463.92 172.19 456.99 180.34 448.62C188.49 440.25 195.27 433.67 195.5 433.9Z" fill="white"/>
<path d="M195.101 407C195.331 407.24 188.921 414.22 180.781 422.58C172.641 430.94 165.841 437.58 165.611 437.3C165.381 437.02 171.791 430.09 179.941 421.72C188.091 413.35 194.871 406.76 195.101 407Z" fill="white"/>
<path d="M185.87 386.48C186.11 386.72 181.76 391.57 176.16 397.32C170.56 403.07 165.84 407.54 165.61 407.32C165.38 407.1 169.73 402.23 175.33 396.48C180.93 390.73 185.64 386.25 185.87 386.48Z" fill="white"/>
<path d="M379.801 433.44C380.031 433.68 373.611 440.65 365.471 449.02C357.331 457.39 350.541 464.02 350.311 463.74C350.081 463.46 356.491 456.52 364.641 448.16C372.791 439.8 379.571 433.2 379.801 433.44Z" fill="#F57359"/>
<path d="M379.4 406.53C379.63 406.77 373.22 413.74 365.07 422.11C356.92 430.48 350.14 437.06 349.91 436.83C349.68 436.6 356.09 429.61 364.24 421.25C372.39 412.89 379.17 406.29 379.4 406.53Z" fill="#F57359"/>
<path d="M379.4 376.54C379.63 376.78 373.22 383.75 365.07 392.12C356.92 400.49 350.14 407.07 349.91 406.84C349.68 406.61 356.09 399.63 364.24 391.26C372.39 382.89 379.17 376.3 379.4 376.54Z" fill="#F57359"/>
<path d="M319.781 433.44C320.011 433.68 313.601 440.65 305.461 449.02C297.321 457.39 290.521 464.02 290.291 463.74C290.061 463.46 296.471 456.52 304.621 448.16C312.771 439.8 319.551 433.2 319.781 433.44Z" fill="white"/>
<path d="M319.381 406.53C319.611 406.77 313.201 413.74 305.061 422.11C296.921 430.48 290.121 437.06 289.891 436.83C289.661 436.6 296.071 429.61 304.221 421.25C312.371 412.89 319.151 406.29 319.381 406.53Z" fill="white"/>
<path d="M310.001 386.22C310.231 386.46 305.921 391.22 300.381 396.96C294.841 402.7 290.161 407.07 289.931 406.84C289.701 406.61 294.011 401.84 299.551 396.1C305.091 390.36 309.721 386 310.001 386.22Z" fill="white"/>
<path d="M379.801 347.54C380.031 347.78 373.611 354.75 365.471 363.12C357.331 371.49 350.541 378.07 350.311 377.83C350.081 377.59 356.491 370.62 364.641 362.26C372.791 353.9 379.571 347.3 379.801 347.54Z" fill="#F57359"/>
<path d="M379.801 293.61C380.031 293.85 373.611 300.82 365.471 309.19C357.331 317.56 350.541 324.14 350.311 323.9C350.081 323.66 356.491 316.69 364.641 308.33C372.791 299.97 379.571 293.37 379.801 293.61Z" fill="#F57359"/>
<path d="M379.4 320.63C379.63 320.87 373.22 327.84 365.07 336.21C356.92 344.58 350.14 351.21 349.91 350.92C349.68 350.63 356.09 343.71 364.24 335.35C372.39 326.99 379.17 320.39 379.4 320.63Z" fill="#F57359"/>
<path d="M442.621 181.55H414.641V463.74H442.621V181.55Z" fill="#F57359"/>
<g opacity="0.6">
<path opacity="0.6" d="M442.751 435.11C442.971 435.33 436.911 441.92 429.221 449.83C421.531 457.74 415.111 464 414.891 463.74C414.671 463.48 420.731 456.92 428.421 449.02C436.111 441.12 442.531 434.88 442.751 435.11Z" fill="white"/>
</g>
<g opacity="0.6">
<path opacity="0.6" d="M442.37 409.68C442.59 409.9 436.53 416.49 428.84 424.4C421.15 432.31 414.73 438.53 414.51 438.31C414.29 438.09 420.35 431.49 428.05 423.59C435.75 415.69 442.16 409.45 442.37 409.68Z" fill="white"/>
</g>
<g opacity="0.6">
<path opacity="0.6" d="M442.37 381.34C442.59 381.57 436.53 388.16 428.84 396.06C421.15 403.96 414.73 410.19 414.51 410C414.29 409.81 420.35 403.18 428.05 395.28C435.75 387.38 442.16 381.12 442.37 381.34Z" fill="white"/>
</g>
<g opacity="0.6">
<path opacity="0.6" d="M442.751 353.93C442.971 354.16 436.911 360.75 429.221 368.65C421.531 376.55 415.111 382.79 414.891 382.56C414.671 382.33 420.731 375.75 428.421 367.84C436.111 359.93 442.531 353.71 442.751 353.93Z" fill="white"/>
</g>
<g opacity="0.6">
<path opacity="0.6" d="M442.37 328.5C442.59 328.73 436.53 335.32 428.84 343.22C421.15 351.12 414.73 357.36 414.51 357.13C414.29 356.9 420.35 350.32 428.05 342.41C435.75 334.5 442.16 328.28 442.37 328.5Z" fill="white"/>
</g>
<g opacity="0.6">
<path opacity="0.6" d="M442.37 300.17C442.59 300.39 436.53 306.98 428.84 314.89C421.15 322.8 414.73 329.02 414.51 328.79C414.29 328.56 420.35 321.98 428.05 314.07C435.75 306.16 442.16 299.94 442.37 300.17Z" fill="white"/>
</g>
<g opacity="0.6">
<path opacity="0.6" d="M442.37 266.9C442.59 267.12 436.53 273.71 428.84 281.62C421.15 289.53 414.73 295.75 414.51 295.53C414.29 295.31 420.35 288.71 428.05 280.81C435.75 272.91 442.16 266.68 442.37 266.9Z" fill="white"/>
</g>
<g opacity="0.6">
<path opacity="0.6" d="M442.751 232.07C442.971 232.3 436.911 238.89 429.221 246.79C421.531 254.69 415.111 260.93 414.891 260.7C414.671 260.47 420.731 253.89 428.421 245.98C436.111 238.07 442.531 231.85 442.751 232.07Z" fill="white"/>
</g>
<g opacity="0.6">
<path opacity="0.6" d="M442.38 197.87C442.59 198.09 436.53 204.68 428.84 212.59C421.15 220.5 414.73 226.72 414.51 226.5C414.29 226.28 420.35 219.68 428.05 211.78C435.75 203.88 442.16 197.64 442.38 197.87Z" fill="white"/>
</g>
<g opacity="0.6">
<path opacity="0.6" d="M431.17 181C431.39 181.22 427.84 185.24 423.24 190C418.64 194.76 414.73 198.38 414.51 198.16C414.29 197.94 417.85 193.92 422.45 189.16C427.05 184.4 431 180.81 431.17 181Z" fill="white"/>
</g>
<path d="M469.33 179.12L468.08 178.25L466.56 177.18L464.4 175.78C459.592 172.743 454.456 170.26 449.09 168.38C445.212 167.02 441.219 166.016 437.16 165.38C432.335 164.631 427.433 164.52 422.58 165.05C412.14 166.17 400.68 171.1 390.69 179.78C385.468 184.334 380.75 189.437 376.62 195C372.37 200.84 368.14 207.06 363.76 213.5C355.02 226.4 346.05 240.42 336.76 255.25C327.47 270.08 317.76 285.73 307.44 301.75C302.25 309.75 296.92 317.85 291.35 325.97C288.56 330.02 285.92 334.21 283.21 338.41C280.5 342.61 277.76 346.81 274.93 351C269.416 359.353 263.405 367.368 256.93 375C253.757 378.74 250.271 382.202 246.51 385.35C244.659 386.921 242.648 388.292 240.51 389.44C238.384 390.638 236.007 391.323 233.57 391.44C231.166 391.224 228.826 390.545 226.68 389.44C224.51 388.44 222.45 387.31 220.42 386.14C216.42 383.77 212.51 381.19 208.74 378.57C201.22 373.3 194.1 367.83 187.25 362.36C183.816 359.627 180.463 356.893 177.19 354.16C173.92 351.42 170.67 348.74 167.44 346.16C160.96 340.97 154.6 336.02 148.27 331.5C141.94 326.98 135.42 323.11 128.46 321.15C121.771 319.33 114.751 319.08 107.95 320.42C101.8 321.753 95.9163 324.102 90.5397 327.37C85.7438 330.282 81.2485 333.661 77.1197 337.46C69.3597 344.58 62.8197 350.85 57.5097 356.01C52.1997 361.17 48.1297 365.25 45.3797 368.01L42.2497 371.16L41.1797 372.23C41.1797 372.23 41.5197 371.84 42.1797 371.12C42.8397 370.4 43.9197 369.33 45.2697 367.94C47.9997 365.15 52.0497 361.06 57.3397 355.87C62.6297 350.68 69.1497 344.38 76.8897 337.24C81.0277 333.419 85.5329 330.016 90.3397 327.08C95.7472 323.791 101.665 321.425 107.85 320.08C114.708 318.715 121.789 318.954 128.54 320.78C135.54 322.78 142.2 326.58 148.49 331.16C154.78 335.74 161.21 340.64 167.69 345.82C170.93 348.41 174.19 351.09 177.46 353.82C180.73 356.55 184.09 359.28 187.52 362.01C194.37 367.46 201.52 372.93 209 378.18C212.76 380.79 216.61 383.37 220.65 385.72C222.65 386.89 224.72 388.03 226.86 389C228.943 390.066 231.21 390.724 233.54 390.94C235.898 390.802 238.192 390.118 240.24 388.94C242.351 387.813 244.341 386.472 246.18 384.94C249.915 381.81 253.378 378.367 256.53 374.65C262.994 367.041 269.005 359.057 274.53 350.74C277.36 346.56 280.1 342.35 282.8 338.15C285.5 333.95 288.15 329.77 290.95 325.71C296.52 317.59 301.85 309.49 307.04 301.5C317.38 285.5 327.04 269.85 336.38 255.02C345.72 240.19 354.71 226.18 363.46 213.29C367.85 206.85 372.09 200.64 376.36 194.79C380.513 189.215 385.257 184.105 390.51 179.55C400.56 170.85 412.11 165.91 422.61 164.81C427.488 164.285 432.415 164.413 437.26 165.19C441.328 165.817 445.328 166.821 449.21 168.19C454.586 170.09 459.723 172.607 464.52 175.69L466.67 177.11L468.17 178.21C468.92 178.8 469.33 179.12 469.33 179.12Z" fill="#F57359"/>
<path d="M122.26 321.59C122.225 322.733 121.854 323.84 121.193 324.773C120.533 325.706 119.612 326.424 118.546 326.837C117.479 327.25 116.315 327.34 115.199 327.095C114.082 326.851 113.062 326.283 112.266 325.462C111.469 324.642 110.933 323.605 110.722 322.481C110.512 321.357 110.637 320.196 111.083 319.143C111.528 318.09 112.274 317.192 113.226 316.56C114.179 315.928 115.297 315.591 116.44 315.59C117.217 315.601 117.984 315.764 118.697 316.072C119.41 316.379 120.055 316.824 120.596 317.382C121.137 317.939 121.562 318.598 121.848 319.32C122.133 320.042 122.274 320.814 122.26 321.59Z" fill="#F57359"/>
<path d="M116.44 332.27C114.318 332.32 112.229 331.736 110.44 330.593C108.651 329.45 107.243 327.8 106.396 325.853C105.549 323.907 105.302 321.752 105.685 319.664C106.069 317.576 107.066 315.65 108.549 314.131C110.032 312.612 111.934 311.57 114.013 311.137C116.091 310.705 118.251 310.901 120.217 311.701C122.183 312.502 123.866 313.87 125.051 315.632C126.236 317.393 126.869 319.467 126.87 321.59C126.899 324.388 125.818 327.084 123.862 329.086C121.907 331.088 119.238 332.233 116.44 332.27ZM116.44 311.91C114.515 311.86 112.62 312.386 110.995 313.419C109.371 314.452 108.092 315.945 107.32 317.709C106.549 319.473 106.322 321.427 106.666 323.321C107.011 325.215 107.913 326.963 109.256 328.342C110.599 329.72 112.323 330.668 114.207 331.062C116.092 331.456 118.051 331.279 119.834 330.555C121.617 329.83 123.144 328.59 124.219 326.993C125.295 325.396 125.869 323.515 125.87 321.59C125.899 319.057 124.923 316.616 123.155 314.801C121.388 312.987 118.973 311.947 116.44 311.91Z" fill="#F57359"/>
<path d="M435.051 164.57C435.016 165.713 434.645 166.82 433.984 167.753C433.324 168.686 432.403 169.404 431.337 169.817C430.271 170.23 429.106 170.32 427.99 170.075C426.873 169.831 425.853 169.263 425.057 168.442C424.26 167.622 423.724 166.585 423.513 165.461C423.303 164.337 423.428 163.176 423.874 162.123C424.319 161.07 425.065 160.172 426.017 159.54C426.97 158.908 428.088 158.571 429.231 158.57C430.008 158.579 430.776 158.742 431.489 159.049C432.203 159.356 432.849 159.801 433.39 160.359C433.931 160.916 434.356 161.576 434.641 162.298C434.927 163.021 435.066 163.793 435.051 164.57Z" fill="#F57359"/>
<path d="M429.231 175.24C427.108 175.288 425.02 174.702 423.232 173.557C421.444 172.413 420.038 170.761 419.193 168.814C418.348 166.866 418.103 164.711 418.488 162.624C418.873 160.536 419.872 158.611 421.357 157.094C422.841 155.576 424.745 154.536 426.823 154.105C428.902 153.674 431.062 153.873 433.027 154.675C434.993 155.477 436.674 156.847 437.858 158.61C439.041 160.372 439.672 162.447 439.671 164.57C439.697 167.368 438.613 170.063 436.656 172.063C434.699 174.063 432.029 175.206 429.231 175.24ZM429.231 154.89C427.307 154.842 425.412 155.369 423.789 156.404C422.166 157.438 420.888 158.932 420.118 160.696C419.349 162.46 419.122 164.414 419.468 166.307C419.814 168.2 420.717 169.948 422.06 171.325C423.404 172.703 425.128 173.649 427.012 174.043C428.896 174.436 430.855 174.259 432.637 173.534C434.42 172.809 435.946 171.569 437.021 169.972C438.096 168.375 438.67 166.495 438.671 164.57C438.7 162.035 437.722 159.593 435.953 157.778C434.183 155.963 431.765 154.924 429.231 154.89Z" fill="#F57359"/>
<path d="M308.239 320.14L312.239 331.34C312.239 331.34 330.549 348.15 333.239 370.66C335.929 393.17 335.939 398.08 335.939 398.08L330.269 463.74H208.269C208.269 463.74 204.269 410.66 205.719 395.65C207.169 380.64 215.939 363.65 215.939 363.65L225.239 341.14L225.519 329.81L308.239 320.14Z" fill="#444545"/>
<path d="M312 332.49C311.717 332.567 311.43 332.627 311.14 332.67L308.67 333.11L299.58 334.6C291.89 335.83 281.27 337.46 269.51 339.11C257.75 340.76 247.07 342.11 239.32 342.84C235.45 343.24 232.32 343.5 230.14 343.65L227.64 343.81C227.35 343.834 227.059 343.834 226.77 343.81C227.052 343.742 227.34 343.699 227.63 343.68L230.12 343.43C232.29 343.21 235.42 342.9 239.28 342.43C247.02 341.57 257.68 340.19 269.44 338.55C281.2 336.91 291.82 335.33 299.52 334.2L308.64 332.87L311.12 332.53C311.411 332.492 311.706 332.478 312 332.49Z" fill="#455A64"/>
<path d="M242.729 372.22C242.618 372.598 242.467 372.964 242.279 373.31C241.969 374.01 241.469 374.99 240.829 376.19C239.145 379.309 237.261 382.315 235.189 385.19C233.116 388.071 230.865 390.82 228.449 393.42C227.519 394.42 226.739 395.19 226.179 395.71C225.911 396.001 225.612 396.262 225.289 396.49C225.499 396.153 225.751 395.844 226.039 395.57L228.169 393.17C229.959 391.17 232.349 388.24 234.769 384.88C237.189 381.52 239.149 378.33 240.509 375.98L242.099 373.19C242.274 372.845 242.485 372.52 242.729 372.22Z" fill="#455A64"/>
<path d="M386.569 201.14C386.569 201.14 389.069 243.2 389.819 247.96C390.569 252.72 386.569 258.73 386.569 258.73C386.569 258.73 377.309 259.73 371.049 248.21L367.049 239.21C369.462 231.526 370.228 223.42 369.299 215.42C367.799 201.9 367.049 195.64 367.049 195.64L386.569 201.14Z" fill="#FFBE9D"/>
<path d="M375.339 142.51C376.429 152.66 376.339 161.44 371.339 163.24C370.919 163.39 367.559 163.52 367.119 163.57C361.359 164.19 355.729 155.77 354.539 144.77C353.349 133.77 357.049 124.34 362.809 123.71C363.349 123.71 366.419 123.22 366.949 123.31C372.059 124.23 374.259 132.54 375.339 142.51Z" fill="#4F8C68"/>
<path d="M391.33 178.85C391.33 178.85 395.55 180.26 394.78 184.33C393.869 188.166 392.717 191.94 391.33 195.63L386.08 201.44L367.08 195.63C366.172 193.874 365.725 191.916 365.78 189.94C365.91 186.75 365.78 178.85 365.78 178.85C367.441 176.707 368.618 174.231 369.23 171.59C369.87 168.3 370.33 164.47 370.46 163.3C370.466 163.251 370.482 163.205 370.506 163.163C370.531 163.12 370.564 163.084 370.603 163.055C370.643 163.026 370.687 163.005 370.735 162.994C370.782 162.983 370.832 162.981 370.88 162.99C371.742 163.172 372.54 163.582 373.19 164.176C373.841 164.77 374.321 165.528 374.58 166.37C375.58 169.56 375.35 170.45 375.35 170.45L391.33 178.85Z" fill="#FFBE9D"/>
<path d="M376.189 165.29L373.469 160.94L370.609 163.14L375.909 173.61L377.349 169.22L376.189 165.29Z" fill="#4F8C68"/>
<path d="M376.189 165.29C376.189 165.29 379.189 160.79 381.939 162.93C384.689 165.07 384.059 166.35 381.939 170.29C381.939 170.29 387.359 169.54 386.079 175.29C386.079 175.29 391.459 174.23 391.329 178.85C391.329 178.85 395.759 182.52 393.849 185.29C391.939 188.06 384.599 193.37 382.569 192.73C380.539 192.09 380.309 189.33 380.309 189.33C380.309 189.33 377.889 188.48 377.149 187.33C376.409 186.18 377.359 184.33 377.359 184.33C377.359 184.33 375.229 182.49 374.699 181.98C374.169 181.47 374.699 178.8 374.699 178.8L377.569 175.5C377.569 175.5 373.429 177.73 372.469 177.1C371.509 176.47 370.469 175.93 371.299 174.54C372.524 172.923 373.861 171.392 375.299 169.96L376.189 165.29Z" fill="#FFBE9D"/>
<path d="M380.77 189.61C381.14 188.967 381.561 188.355 382.03 187.78C383.028 186.253 384.271 184.901 385.71 183.78C387.189 182.795 388.599 181.709 389.93 180.53C390.427 179.989 390.894 179.422 391.33 178.83C391.153 179.591 390.761 180.286 390.2 180.83C388.927 182.109 387.526 183.255 386.02 184.25C384.626 185.343 383.385 186.617 382.33 188.04C381.892 188.639 381.366 189.169 380.77 189.61Z" fill="#EB996E"/>
<path d="M377.35 185.14C378.568 183.302 379.929 181.564 381.42 179.94C382.6 178.57 383.6 177.25 384.49 176.42C384.918 175.918 385.464 175.529 386.08 175.29C386.13 175.35 385.54 175.79 384.76 176.68C383.98 177.57 383.01 178.89 381.81 180.28C380.457 182.018 378.966 183.644 377.35 185.14Z" fill="#EB996E"/>
<path d="M377.568 175.5C378.26 174.557 379.033 173.677 379.878 172.87C380.597 171.968 381.265 171.027 381.878 170.05C381.733 171.256 381.171 172.374 380.288 173.21C379.551 174.154 378.625 174.934 377.568 175.5Z" fill="#EB996E"/>
<path d="M369.929 181C370.571 181.09 371.18 181.341 371.699 181.73C373.001 182.595 374.085 183.748 374.869 185.1C375.638 186.436 376.242 187.859 376.669 189.34C376.905 189.932 377.05 190.555 377.099 191.19C376.766 190.651 376.507 190.069 376.329 189.46C375.801 188.049 375.163 186.681 374.419 185.37C373.663 184.081 372.668 182.948 371.489 182.03C370.569 181.3 369.889 181 369.929 181Z" fill="#EB996E"/>
<path d="M370.877 163.158C375.791 162.626 378.809 153.275 377.617 142.271C376.426 131.268 371.476 122.779 366.562 123.311C361.648 123.844 358.63 133.195 359.821 144.198C361.013 155.202 365.963 163.691 370.877 163.158Z" fill="#30533E"/>
<path d="M369.058 162.92C373.658 160.62 376.408 152.15 375.358 142.46C374.308 132.77 369.858 125.17 364.898 123.84C360.998 126.06 358.778 134.47 359.828 144.17C360.878 153.87 364.798 161.51 369.058 162.92Z" fill="#E0E0E0"/>
<path d="M369.27 155C368.826 151.874 368.553 148.726 368.45 145.57C368.178 142.424 368.075 139.266 368.14 136.11C368.596 139.235 368.873 142.383 368.97 145.54C369.241 148.685 369.342 151.843 369.27 155Z" fill="white"/>
<path d="M367.55 148.64C367.268 147.783 367.084 146.898 367 146C366.77 144.36 366.53 142.1 366.39 139.58C366.25 137.06 366.25 134.79 366.3 133.14C366.274 132.248 366.348 131.356 366.52 130.48C366.647 131.361 366.698 132.251 366.67 133.14C366.67 134.79 366.77 137.05 366.91 139.56C367.05 142.07 367.23 144.32 367.37 145.96C367.503 146.847 367.564 147.743 367.55 148.64Z" fill="white"/>
<path d="M376.19 165.27C376.203 165.376 376.203 165.484 376.19 165.59L376.05 166.5L375.46 169.97C374.88 170.57 374.23 171.27 373.52 172.05C372.735 172.876 372.028 173.773 371.41 174.73C371.267 174.974 371.207 175.259 371.24 175.54C371.312 175.822 371.482 176.07 371.72 176.24C371.982 176.445 372.256 176.635 372.54 176.81C372.81 176.951 373.124 176.987 373.42 176.91C374.857 176.535 376.238 175.974 377.53 175.24L378.53 174.74L377.81 175.56L374.95 178.87L375 178.8C374.779 179.305 374.666 179.849 374.666 180.4C374.666 180.95 374.779 181.495 375 182C375.729 182.941 376.641 183.727 377.68 184.31L377.9 184.45L377.75 184.67C377.14 185.53 376.75 186.84 377.75 187.55C378.691 188.298 379.744 188.895 380.87 189.32L380.52 189.55V189.47C380.59 189.54 380.36 189.3 380.69 189.68C381.37 189.29 380.88 189.52 381.03 189.46V189.58V189.83C381.048 190.002 381.078 190.172 381.12 190.34C381.196 190.686 381.314 191.022 381.47 191.34C381.625 191.639 381.839 191.905 382.1 192.12C382.331 192.338 382.625 192.478 382.94 192.52C383.639 192.467 384.32 192.269 384.94 191.94C385.629 191.615 386.297 191.248 386.94 190.84C388.142 190.081 389.294 189.246 390.39 188.34C391.479 187.477 392.483 186.513 393.39 185.46C393.816 184.99 394.061 184.384 394.08 183.75C394.055 183.117 393.888 182.498 393.59 181.94C392.973 180.824 392.156 179.83 391.18 179.01L391.1 178.93V178.81C391.131 178.202 391.018 177.596 390.77 177.04C390.507 176.517 390.083 176.093 389.56 175.83C388.482 175.381 387.297 175.256 386.15 175.47H385.84L385.89 175.15C385.94 174.81 386.01 174.46 386.05 174.15C386.08 173.817 386.08 173.482 386.05 173.15C386.021 172.508 385.77 171.896 385.34 171.42C384.889 171.018 384.355 170.72 383.776 170.547C383.197 170.374 382.587 170.331 381.99 170.42H381.63L381.8 170.11C382.358 169.139 382.862 168.137 383.31 167.11C383.507 166.651 383.619 166.159 383.64 165.66C383.641 165.198 383.505 164.745 383.25 164.36C382.758 163.658 382.12 163.071 381.38 162.64C381.056 162.494 380.705 162.419 380.35 162.419C379.994 162.419 379.643 162.494 379.32 162.64C378.395 163.053 377.575 163.668 376.92 164.44C376.68 164.69 376.52 164.9 376.4 165.04C376.28 165.18 376.23 165.25 376.22 165.24C376.257 165.158 376.304 165.081 376.36 165.01C376.506 164.783 376.666 164.566 376.84 164.36C377.117 164.026 377.418 163.712 377.74 163.42C378.178 163.002 378.685 162.663 379.24 162.42C379.593 162.261 379.977 162.179 380.365 162.179C380.752 162.179 381.136 162.261 381.49 162.42L382.04 162.76L382.55 163.17C382.929 163.454 383.265 163.791 383.55 164.17C383.85 164.601 384.011 165.114 384.01 165.64C383.997 166.182 383.885 166.718 383.68 167.22C383.241 168.269 382.74 169.29 382.18 170.28L381.99 170C382.632 169.93 383.281 169.971 383.91 170.12C384.593 170.267 385.216 170.615 385.7 171.12C386.204 171.668 386.501 172.376 386.54 173.12C386.57 173.483 386.57 173.847 386.54 174.21C386.54 174.57 386.43 174.93 386.37 175.3L386.11 175.03C387.356 174.783 388.649 174.915 389.82 175.41C390.436 175.718 390.937 176.216 391.25 176.83C391.538 177.456 391.671 178.142 391.64 178.83L391.55 178.63C392.581 179.489 393.443 180.533 394.09 181.71C394.433 182.322 394.621 183.008 394.64 183.71C394.64 184.083 394.569 184.453 394.43 184.8C394.277 185.133 394.082 185.446 393.85 185.73C392.952 186.827 391.947 187.832 390.85 188.73C389.738 189.657 388.565 190.509 387.34 191.28C386.696 191.693 386.028 192.067 385.34 192.4C384.636 192.776 383.857 192.988 383.06 193.02C382.624 192.978 382.206 192.826 381.845 192.577C381.485 192.329 381.194 191.992 381 191.6C380.824 191.254 380.69 190.888 380.6 190.51C380.557 190.325 380.523 190.138 380.5 189.95V189.66V189.48C380.65 189.41 380.17 189.65 380.84 189.26C381.17 189.63 380.94 189.39 381.01 189.47V190L380.66 189.86C379.485 189.409 378.385 188.782 377.4 188C377.143 187.776 376.939 187.5 376.8 187.19C376.668 186.874 376.623 186.529 376.67 186.19C376.758 185.56 377.002 184.962 377.38 184.45L377.45 184.81C376.346 184.186 375.383 183.342 374.62 182.33C374.296 181.78 374.143 181.147 374.18 180.51C374.191 179.911 374.295 179.317 374.49 178.75L377.38 175.47L377.63 175.79C376.297 176.541 374.867 177.103 373.38 177.46C372.99 177.556 372.578 177.499 372.23 177.3C371.95 177.1 371.66 176.92 371.39 176.69C371.089 176.468 370.879 176.145 370.8 175.78C370.76 175.433 370.834 175.082 371.01 174.78C371.657 173.81 372.393 172.903 373.21 172.07C373.93 171.29 374.6 170.61 375.21 170.07C375.51 168.6 375.74 167.44 375.91 166.61L376.11 165.72C376.104 165.566 376.132 165.413 376.19 165.27Z" fill="#EB996E"/>
<path d="M210.279 351L172.509 304.11C172.509 304.11 152.429 321.02 151.899 321.55C151.369 322.08 183.309 353.16 203.829 365.19L210.279 360.92V351Z" fill="#FFBE9D"/>
<path d="M241.999 336C241.999 336 230.079 334.12 228.999 334.9C227.919 335.68 219.739 341.18 219.739 341.18C218.651 342.883 217.445 344.507 216.129 346.04C216.129 346.04 213.469 349.18 211.429 349.49C210.338 349.693 209.219 349.693 208.129 349.49L202.799 364.24C202.799 364.24 206.879 368.48 209.389 368.16C211.899 367.84 225.229 360.48 225.229 360.48L228.529 359.38C228.529 359.38 241.389 359.85 242.019 355.93V354.83L229.309 353.73L224.609 354.52L232.769 351.45C232.769 351.45 244.689 350.75 245.769 350.45C246.849 350.15 248.119 348.45 247.649 347.45L245.139 347.14C245.139 347.14 247.849 345.27 247.749 343.54L236.469 341.75C236.469 341.75 243.259 338.34 241.999 336Z" fill="#FFBE9D"/>
<path d="M246.439 347C246.102 346.99 245.766 346.943 245.439 346.86C244.789 346.74 243.829 346.58 242.649 346.41C240.279 346.06 236.999 345.64 233.369 345.24C232.935 345.176 232.498 345.139 232.059 345.13C231.647 345.137 231.239 345.208 230.849 345.34C230.079 345.65 229.309 346.01 228.599 346.34C227.169 347.01 225.899 347.66 224.859 348.25C224.039 348.706 223.245 349.207 222.479 349.75C222.209 349.97 221.921 350.167 221.619 350.34C221.813 350.046 222.061 349.792 222.349 349.59C223.079 348.978 223.855 348.423 224.669 347.93C225.669 347.3 226.959 346.61 228.389 345.93C229.109 345.58 229.839 345.23 230.679 344.93C231.117 344.776 231.575 344.691 232.039 344.68C232.504 344.69 232.968 344.727 233.429 344.79C237.069 345.2 240.349 345.67 242.709 346.12C243.889 346.34 244.839 346.55 245.489 346.73C245.817 346.774 246.137 346.865 246.439 347Z" fill="#EB996E"/>
<path d="M236.799 342.25C236.799 342.33 235.879 341.94 234.369 341.65C232.41 341.254 230.386 341.308 228.451 341.809C226.516 342.31 224.72 343.243 223.199 344.54C222.029 345.54 221.439 346.3 221.369 346.24C221.761 345.474 222.301 344.794 222.959 344.24C224.469 342.817 226.313 341.797 228.321 341.272C230.329 340.748 232.436 340.737 234.449 341.24C235.293 341.412 236.093 341.756 236.799 342.25Z" fill="#EB996E"/>
<path d="M389.91 249.59C391.242 252.06 392.027 254.789 392.21 257.59C392.21 261.5 389.92 268.34 389.92 268.34L387.07 271.03C387.07 271.03 388.94 279.58 378.07 282.03C367.2 284.48 306.61 249.62 306.61 249.62L305 203.38C305 203.38 313.8 207.05 320.15 213.38C326.5 219.71 362.68 246.38 362.68 246.38C362.68 246.38 364.15 236.94 365.77 237.56C367.39 238.18 389.91 249.59 389.91 249.59Z" fill="#E0E0E0"/>
<path d="M305 203.38L272.19 196.38L263.65 187.6L225.92 187.24L221.37 195.5L193.1 212.69C193.1 212.69 200.22 259.78 202.82 265.27C205.42 270.76 226 331.27 226 331.27L308.26 321.46L308.96 283.46L311.34 265.07C311.849 261.137 311.93 257.16 311.58 253.21C310 236.07 305 203.38 305 203.38Z" fill="#E0E0E0"/>
<path d="M183.319 315.45L156.319 333.94L146.899 320.51L149.419 318.27C149.419 318.27 135.509 306.77 136.349 298.66C137.189 290.55 151.849 269.66 151.849 269.66C151.849 269.66 183.279 218.22 193.019 212.66C194.379 211.89 206.209 240.44 206.209 251.66C206.209 262.88 203.999 262.88 203.999 262.88C203.999 262.88 194.489 272.11 189.999 280.51C185.509 288.91 177.939 298 172.909 301.39L183.319 315.45Z" fill="#E0E0E0"/>
<path d="M157.828 294.81C157.828 294.81 158.088 294.75 158.558 294.73C159.227 294.72 159.895 294.757 160.558 294.84C162.737 295.118 164.853 295.76 166.818 296.74C168.784 297.721 170.58 299.011 172.138 300.56C172.812 301.168 173.391 301.872 173.858 302.65C173.728 302.79 171.138 299.45 166.588 297.21C164.667 296.258 162.619 295.585 160.508 295.21C158.858 294.93 157.828 294.9 157.828 294.81Z" fill="#263238"/>
<path d="M166.049 285.7C166.806 286.156 167.482 286.733 168.049 287.41C169.508 288.969 170.686 290.769 171.529 292.73C172.373 294.691 172.88 296.78 173.029 298.91C173.138 299.787 173.101 300.675 172.919 301.54C172.839 301.54 172.859 300.54 172.669 298.94C172.412 296.874 171.866 294.855 171.049 292.94C170.218 291.027 169.113 289.245 167.769 287.65C166.749 286.43 165.999 285.77 166.049 285.7Z" fill="#263238"/>
<path d="M269.499 256.42C269.627 256.867 269.711 257.326 269.749 257.79C269.831 258.323 269.885 258.861 269.909 259.4C269.966 260.115 269.986 260.833 269.969 261.55C269.976 262.421 269.935 263.293 269.849 264.16C269.799 265.1 269.619 266.09 269.459 267.16C268.663 271.689 266.962 276.012 264.459 279.87C263.859 280.74 263.309 281.58 262.709 282.31C262.176 283.005 261.609 283.673 261.009 284.31C260.53 284.847 260.022 285.358 259.489 285.84C259.105 286.222 258.698 286.58 258.269 286.91C257.927 287.223 257.555 287.501 257.159 287.74C257.089 287.65 258.649 286.44 260.739 284.07C261.259 283.47 261.818 282.82 262.358 282.07C262.898 281.32 263.468 280.51 264.048 279.64C265.244 277.731 266.275 275.724 267.129 273.64C267.939 271.527 268.568 269.349 269.009 267.13C269.179 266.13 269.369 265.13 269.439 264.2C269.509 263.27 269.589 262.42 269.619 261.63C269.699 258.39 269.389 256.44 269.499 256.42Z" fill="#263238"/>
<path d="M267.468 238.5C267.239 238.362 267.025 238.201 266.828 238.02C266.408 237.7 265.828 237.19 265.038 236.59C263.478 235.35 261.158 233.59 258.208 231.59C255.258 229.59 251.698 227.21 247.748 224.59C243.394 221.742 239.22 218.63 235.248 215.27H235.638C235.218 215.87 234.788 216.53 234.388 217.21C232.725 220.03 231.558 223.115 230.938 226.33L230.788 227.12L230.468 226.39C227.352 219.358 224.879 212.058 223.078 204.58C222.408 201.79 221.948 199.58 221.688 197.99C221.538 197.22 221.458 196.62 221.398 196.21C221.359 196.005 221.336 195.798 221.328 195.59C221.406 195.783 221.459 195.984 221.488 196.19C221.578 196.64 221.698 197.19 221.858 197.96C222.178 199.5 222.678 201.73 223.388 204.5C225.288 211.926 227.81 219.178 230.928 226.18H230.448C231.069 222.906 232.25 219.763 233.938 216.89C234.348 216.2 234.788 215.53 235.208 214.89L235.378 214.65L235.598 214.85C239.547 218.197 243.688 221.313 247.998 224.18C251.928 226.86 255.488 229.24 258.408 231.32C261.328 233.4 263.628 235.15 265.148 236.44C265.928 237.06 266.488 237.6 266.878 237.95C267.088 238.119 267.285 238.303 267.468 238.5Z" fill="#263238"/>
<path d="M272.148 196.41C272.257 196.533 272.348 196.671 272.418 196.82C272.588 197.1 272.838 197.51 273.128 198.06C273.738 199.14 274.578 200.74 275.558 202.78C278.218 208.201 280.261 213.903 281.648 219.78L281.808 220.47L281.248 220.03C279.533 218.705 277.94 217.229 276.488 215.62C275.585 214.621 274.737 213.572 273.948 212.48L274.418 212.34C274.088 218.12 273.798 223.34 273.548 227.73C271.738 230.97 270.248 233.64 269.178 235.57L267.948 237.7C267.821 237.959 267.667 238.204 267.488 238.43C267.579 238.157 267.699 237.896 267.848 237.65C268.128 237.09 268.508 236.36 268.978 235.45C269.978 233.51 271.438 230.81 273.188 227.54V227.62C273.408 223.29 273.668 218.01 273.948 212.23V211.5L274.378 212.1C276.411 214.911 278.831 217.419 281.568 219.55L281.158 219.8C279.791 213.944 277.817 208.246 275.268 202.8C274.328 200.8 273.538 199.13 272.978 198.02C272.728 197.5 272.518 197.08 272.348 196.74C272.273 196.636 272.206 196.525 272.148 196.41Z" fill="#263238"/>
<path d="M311.999 255.19C311.849 255.19 310.999 247.27 310.049 237.48C309.099 227.69 308.489 219.73 308.629 219.72C308.769 219.71 309.629 227.63 310.569 237.43C311.509 247.23 312.129 255.17 311.999 255.19Z" fill="#263238"/>
<path d="M370.329 260.06C369.668 259.591 369.078 259.028 368.579 258.39C367.288 256.922 366.165 255.316 365.229 253.6C364.296 251.882 363.551 250.068 363.009 248.19C362.745 247.422 362.59 246.621 362.549 245.81C363.42 248.393 364.469 250.912 365.689 253.35C367.075 255.693 368.626 257.935 370.329 260.06Z" fill="#263238"/>
<path d="M365.418 261.21C365.418 261.21 365.218 261.03 364.928 260.64C364.52 260.091 364.159 259.509 363.848 258.9C361.758 254.847 361.272 250.155 362.488 245.76C362.667 245.102 362.897 244.46 363.178 243.84C363.265 243.601 363.39 243.379 363.548 243.18C363.628 243.18 363.228 244.18 362.848 245.85C362.356 248 362.218 250.216 362.438 252.41C362.675 254.6 363.263 256.737 364.178 258.74C364.888 260.28 365.488 261.15 365.418 261.21Z" fill="#263238"/>
<path d="M191.84 241.59C192.053 241.904 192.234 242.239 192.38 242.59L193.7 245.39L198.1 254.61C199.82 258.22 201.33 261.5 202.36 263.91C202.88 265.12 203.28 266.1 203.53 266.78C203.689 267.129 203.81 267.494 203.89 267.87C203.667 267.561 203.486 267.225 203.35 266.87L202.02 264.07C200.85 261.6 199.32 258.39 197.63 254.85C195.94 251.31 194.39 247.96 193.37 245.55C192.85 244.34 192.45 243.36 192.19 242.68C192.031 242.331 191.914 241.966 191.84 241.59Z" fill="#263238"/>
<path d="M288.729 296.45C288.682 296.867 288.585 297.277 288.439 297.67C288.219 298.44 287.869 299.55 287.439 300.92C286.519 303.64 285.139 307.37 283.439 311.39C281.739 315.41 279.929 318.98 278.569 321.51C277.889 322.78 277.319 323.79 276.899 324.51C276.706 324.865 276.479 325.2 276.219 325.51C276.347 325.113 276.518 324.73 276.729 324.37C277.129 323.55 277.639 322.53 278.239 321.32C279.509 318.76 281.239 315.18 282.959 311.17C284.679 307.16 286.119 303.46 287.119 300.77C287.589 299.5 287.979 298.44 288.299 297.59C288.405 297.197 288.549 296.815 288.729 296.45Z" fill="#263238"/>
<path d="M288.149 313.21C287.98 313.867 287.71 314.495 287.349 315.07C286.597 316.503 285.752 317.886 284.819 319.21C283.885 320.537 282.866 321.803 281.769 323C281.353 323.53 280.857 323.992 280.299 324.37C280.189 324.27 282.229 321.99 284.389 318.91C286.549 315.83 287.999 313.14 288.149 313.21Z" fill="#263238"/>
<path d="M282.299 313.21C282.24 312.957 282.203 312.699 282.189 312.44C282.129 311.89 282.059 311.15 281.969 310.22C281.789 308.29 281.509 305.5 281.149 302.06C280.399 295.17 279.229 285.66 277.219 275.29C275.534 266.416 273.371 257.64 270.739 249C270.249 247.34 269.739 245.85 269.339 244.54C268.939 243.23 268.549 242.1 268.229 241.19C267.909 240.28 267.699 239.6 267.519 239.07C267.42 238.829 267.349 238.577 267.309 238.32C267.427 238.553 267.53 238.794 267.619 239.04C267.819 239.56 268.079 240.25 268.419 241.12C268.759 241.99 269.169 243.12 269.609 244.45C270.049 245.78 270.609 247.23 271.089 248.89C273.833 257.504 276.051 266.276 277.729 275.16C279.729 285.56 280.859 295.09 281.519 301.99C281.829 305.44 282.059 308.24 282.169 310.18L282.289 312.4C282.323 312.669 282.326 312.94 282.299 313.21Z" fill="#263238"/>
<path d="M284 319.82C284.442 318.29 284.655 316.702 284.63 315.11C284.44 313.525 284.005 311.98 283.34 310.53C283.39 310.53 283.78 310.9 284.21 311.69C284.747 312.742 285.067 313.891 285.15 315.07C285.237 316.249 285.081 317.434 284.69 318.55C284.38 319.4 284.05 319.85 284 319.82Z" fill="#263238"/>
<path d="M282.449 324.65C282.299 324.65 282.219 324 282.269 323.22C282.319 322.44 282.469 321.8 282.609 321.81C282.749 321.82 282.839 322.46 282.789 323.25C282.739 324.04 282.589 324.66 282.449 324.65Z" fill="#263238"/>
<path d="M174.809 305.31C174.422 305.48 174.02 305.614 173.609 305.71C172.829 305.94 171.719 306.29 170.349 306.77C168.979 307.25 167.349 307.89 165.639 308.65C163.929 309.41 162.019 310.37 160.089 311.44C156.808 313.292 153.657 315.367 150.659 317.65C149.509 318.53 148.589 319.25 147.959 319.76C147.655 320.046 147.319 320.298 146.959 320.51C147.22 320.177 147.519 319.875 147.849 319.61C148.439 319.05 149.329 318.28 150.449 317.36C153.403 314.978 156.55 312.847 159.859 310.99C161.799 309.91 163.699 308.99 165.469 308.21C167.035 307.533 168.633 306.936 170.259 306.42C171.349 306.062 172.457 305.761 173.579 305.52C173.98 305.403 174.392 305.332 174.809 305.31Z" fill="#263238"/>
<path d="M173.759 305.34C173.759 305.43 172.389 305.34 170.199 305.58C167.357 305.836 164.554 306.423 161.849 307.33C159.148 308.258 156.54 309.436 154.059 310.85C152.149 311.94 151.059 312.7 150.969 312.63C151.181 312.389 151.427 312.18 151.699 312.01C152.397 311.484 153.121 310.993 153.869 310.54C156.322 309.006 158.947 307.764 161.689 306.84C164.432 305.914 167.288 305.366 170.179 305.21C171.051 305.158 171.926 305.158 172.799 305.21C173.124 305.204 173.447 305.247 173.759 305.34Z" fill="#263238"/>
<g opacity="0.3">
<path opacity="0.3" d="M193.719 245.17C193.152 249.174 193.733 253.256 195.393 256.943C197.054 260.63 199.725 263.77 203.099 266C200.739 260 196.659 251.34 193.719 245.17Z" fill="black"/>
</g>
<g opacity="0.3">
<path opacity="0.3" d="M231.939 221.81C233.206 224.385 234.946 226.699 237.069 228.63L236.969 223.16L261.969 234.29L235.129 215C233.659 217.47 233.409 219.32 231.939 221.79" fill="black"/>
</g>
<g opacity="0.3">
<path opacity="0.3" d="M278.189 217.55C277.119 215.87 274.189 212.32 274.189 212.32C274.089 214.94 273.859 218.53 273.769 221.16L273.389 227.45C273.779 225.26 274.069 221.03 274.459 218.83L279.119 223.25C279.407 222.292 279.474 221.28 279.312 220.292C279.151 219.305 278.767 218.367 278.189 217.55Z" fill="black"/>
</g>
<g opacity="0.3">
<path opacity="0.3" d="M308.76 224L312 252.84C313.34 243.45 315.9 238.35 308.76 224Z" fill="black"/>
</g>
<g opacity="0.3">
<path opacity="0.3" d="M379.999 265.58C378.799 264.58 376.139 263.96 374.769 263.22C368.559 259.84 365.269 253.66 362.849 247.02L362.629 246.28C362.879 255.18 368.529 264.7 376.629 268.36C377.447 268.799 378.374 268.993 379.299 268.92C379.757 268.866 380.179 268.646 380.485 268.301C380.791 267.956 380.96 267.511 380.959 267.05C380.835 266.456 380.492 265.932 379.999 265.58Z" fill="black"/>
</g>
<g opacity="0.3">
<path opacity="0.3" d="M251.189 290.31C261.469 286.9 266.429 277.22 269.069 268.76C269.217 272.43 268.775 276.1 267.759 279.63C266.717 283.18 264.57 286.304 261.629 288.55C260.151 289.645 258.435 290.375 256.62 290.681C254.806 290.987 252.945 290.86 251.189 290.31Z" fill="black"/>
</g>
<g opacity="0.3">
<path opacity="0.3" d="M172.81 306C165.277 305.521 157.842 307.911 152 312.69C151.58 313.04 151.12 313.54 151.3 314.06C151.392 314.241 151.537 314.389 151.716 314.486C151.894 314.582 152.098 314.622 152.3 314.6C152.709 314.527 153.098 314.366 153.44 314.13C159.542 310.598 166.041 307.798 172.8 305.79" fill="black"/>
</g>
<g opacity="0.3">
<path opacity="0.3" d="M296.169 285.89C295.789 285.53 295.287 285.326 294.764 285.316C294.24 285.307 293.732 285.494 293.339 285.84C292.575 286.564 292.01 287.474 291.699 288.48L279.489 318.79L277.619 323.28L290.419 301.82C292.969 297.54 295.569 293.14 296.419 288.23C296.545 287.844 296.588 287.436 296.545 287.033C296.502 286.63 296.374 286.24 296.169 285.89Z" fill="black"/>
</g>
<path d="M212.179 115.56C219.749 104.99 232.299 98.8099 245.089 96.4599C250.469 95.4599 253.999 96.1899 259.359 97.2799C264.718 98.2089 269.578 100.995 273.089 105.15C277.159 110.21 280.679 115.95 281.799 122.35C282.949 128.93 284.099 135.55 284.029 142.22C283.959 148.89 282.569 155.7 279.029 161.34L262.309 165.34C252.999 166.25 243.549 167.16 234.309 165.62C225.069 164.08 215.929 159.74 210.549 152.08C203.069 141.46 204.599 126.13 212.179 115.56Z" fill="#263238"/>
<path d="M274.5 171.19C274.5 171.19 274.8 171.59 275.57 172.01C276.662 172.608 277.876 172.95 279.12 173.01C280.996 173.099 282.853 172.599 284.43 171.58C286.347 170.257 287.676 168.243 288.138 165.96C288.601 163.678 288.161 161.305 286.91 159.34C285.854 157.794 284.345 156.613 282.59 155.96C281.428 155.516 280.18 155.341 278.94 155.45C278.07 155.54 277.62 155.74 277.64 155.79C277.66 155.84 279.59 155.44 282.32 156.62C283.876 157.305 285.2 158.427 286.13 159.85C287.198 161.631 287.562 163.747 287.149 165.783C286.737 167.818 285.578 169.626 283.9 170.85C282.489 171.8 280.831 172.318 279.13 172.34C276.17 172.27 274.58 171 274.5 171.19Z" fill="#E0E0E0"/>
<path d="M199.108 163.67C199.152 161.743 199.636 159.851 200.521 158.139C201.407 156.427 202.671 154.94 204.218 153.79C207.398 151.63 212.028 151.53 214.948 154.03L217.808 157.03C219.936 157.845 221.755 159.305 223.01 161.206C224.265 163.107 224.894 165.354 224.808 167.63C224.639 169.899 223.828 172.073 222.47 173.898C221.112 175.724 219.263 177.125 217.138 177.94C214.993 178.695 212.69 178.885 210.45 178.493C208.211 178.1 206.109 177.139 204.348 175.7C202.611 174.231 201.235 172.382 200.326 170.296C199.418 168.21 199.001 165.943 199.108 163.67Z" fill="#263238"/>
<path d="M203.188 174.85C202.481 173.892 202.086 172.74 202.058 171.55C202.058 169.37 203.458 166.44 205.448 163.7C207.197 161.356 209.375 159.367 211.868 157.84C213.788 156.65 215.118 156.17 215.068 156.04C213.83 156.23 212.643 156.669 211.578 157.33C207.411 159.568 204.139 163.168 202.308 167.53C201.734 168.784 201.45 170.151 201.478 171.53C201.519 172.481 201.839 173.399 202.398 174.17C202.818 174.72 203.158 174.89 203.188 174.85Z" fill="#455A64"/>
<path d="M211.68 179.32C211.96 179.32 210.48 174.25 211.68 168.11C212.88 161.97 216.09 157.83 215.85 157.7C215.001 158.447 214.299 159.346 213.78 160.35C210.953 165.074 209.87 170.64 210.72 176.08C210.838 177.21 211.164 178.308 211.68 179.32Z" fill="#455A64"/>
<path d="M264.05 192.78C263.56 186.86 263.11 182.01 263.11 182.04C263.11 182.07 276.79 179.64 279.47 161.73C280.81 152.83 280.23 138.25 279.37 126.34C278.6 115.62 268.53 101.59 255.28 102.34L249.35 102.03L227.35 112.43C225.785 112.61 224.344 113.37 223.313 114.561C222.282 115.751 221.735 117.285 221.78 118.86L226.59 195.46L267.43 238.46L269.77 226.33L264.05 192.78Z" fill="#FFBE9D"/>
<path d="M252.708 159.29C252.791 158.376 253.203 157.523 253.868 156.89C254.471 156.297 255.253 155.921 256.092 155.817C256.931 155.714 257.78 155.891 258.508 156.32C259.27 156.833 259.881 157.54 260.279 158.368C260.676 159.196 260.845 160.115 260.768 161.03C260.417 161.599 259.948 162.086 259.393 162.459C258.837 162.832 258.208 163.081 257.548 163.19C257.335 163.19 257.125 163.21 256.918 163.25C255.868 163.312 254.833 162.976 254.018 162.31C253.586 161.938 253.243 161.474 253.016 160.95C252.79 160.427 252.684 159.86 252.708 159.29Z" fill="#EB996E"/>
<path d="M274.649 138.49C274.66 139.088 274.437 139.667 274.028 140.104C273.62 140.541 273.056 140.801 272.459 140.83C272.167 140.856 271.873 140.823 271.594 140.733C271.315 140.644 271.057 140.499 270.836 140.308C270.614 140.117 270.432 139.883 270.302 139.621C270.172 139.358 270.096 139.072 270.079 138.78C270.065 138.184 270.286 137.606 270.693 137.17C271.101 136.735 271.663 136.476 272.259 136.45C272.55 136.423 272.845 136.454 273.124 136.543C273.403 136.631 273.662 136.774 273.885 136.965C274.108 137.155 274.29 137.388 274.421 137.65C274.553 137.912 274.63 138.198 274.649 138.49Z" fill="#263238"/>
<path d="M275.41 133.23C275.13 133.53 273.41 132.23 270.91 132.29C268.41 132.35 266.64 133.57 266.37 133.29C266.24 133.16 266.53 132.62 267.31 132.04C268.371 131.288 269.639 130.883 270.94 130.88C272.221 130.869 273.473 131.26 274.52 132C275.28 132.56 275.55 133.1 275.41 133.23Z" fill="#263238"/>
<path d="M261.14 152.85C261.14 152.71 262.66 152.43 265.14 152.09C265.77 152.02 266.37 151.89 266.47 151.46C266.523 150.809 266.369 150.158 266.03 149.6L264.13 144.81C261.48 138 259.55 132.4 259.83 132.3C260.11 132.2 262.48 137.63 265.12 144.44L266.95 149.25C267.36 150.004 267.484 150.881 267.3 151.72C267.214 151.941 267.08 152.139 266.907 152.3C266.734 152.461 266.526 152.581 266.3 152.65C265.955 152.751 265.599 152.804 265.24 152.81C262.7 153 261.15 153 261.14 152.85Z" fill="#263238"/>
<path d="M263.109 182C254.693 182.2 246.386 180.064 239.109 175.83C239.109 175.83 245.599 188.16 263.489 186.33L263.109 182Z" fill="#EB996E"/>
<path d="M253.888 154.62C254.298 154.62 254.328 157.27 256.638 159.16C258.948 161.05 261.788 160.72 261.818 161.09C261.818 161.26 261.188 161.62 259.978 161.66C258.411 161.697 256.881 161.18 255.658 160.2C254.482 159.254 253.718 157.888 253.528 156.39C253.418 155.28 253.708 154.61 253.888 154.62Z" fill="#263238"/>
<path d="M274.25 123.05C273.82 123.61 272.11 123.05 270.07 123.05C268.03 123.05 266.29 123.46 265.89 122.87C265.71 122.59 265.98 122.03 266.73 121.49C267.741 120.843 268.922 120.512 270.123 120.539C271.323 120.566 272.488 120.949 273.47 121.64C274.19 122.2 274.44 122.77 274.25 123.05Z" fill="#263238"/>
<path d="M246.889 139C246.912 139.597 247.168 140.161 247.601 140.572C248.035 140.983 248.611 141.208 249.209 141.2C249.501 141.209 249.792 141.16 250.065 141.056C250.338 140.951 250.588 140.793 250.799 140.591C251.01 140.389 251.179 140.147 251.296 139.879C251.413 139.611 251.475 139.322 251.479 139.03C251.455 138.432 251.2 137.867 250.767 137.455C250.334 137.042 249.757 136.814 249.159 136.82C248.866 136.811 248.574 136.86 248.3 136.965C248.026 137.07 247.776 137.229 247.565 137.432C247.353 137.635 247.184 137.878 247.068 138.148C246.952 138.417 246.891 138.707 246.889 139Z" fill="#263238"/>
<path d="M243.07 135.07C243.37 135.36 245.07 133.99 247.51 133.88C249.95 133.77 251.84 134.93 252.09 134.61C252.22 134.47 251.9 133.95 251.09 133.41C249.989 132.716 248.699 132.384 247.4 132.46C246.12 132.511 244.89 132.97 243.89 133.77C243.16 134.39 242.92 134.94 243.07 135.07Z" fill="#263238"/>
<path d="M243.1 131.62C243.56 132.16 245.23 131.5 247.27 131.38C249.31 131.26 251.06 131.58 251.43 130.98C251.6 130.69 251.3 130.14 250.52 129.64C249.474 129.051 248.277 128.787 247.081 128.879C245.884 128.972 244.742 129.418 243.8 130.16C243.11 130.77 242.9 131.36 243.1 131.62Z" fill="#263238"/>
<path d="M228.199 148.93C228.199 147.6 226.619 144.47 225.309 144.28C221.789 143.76 215.459 144.1 215.479 153.02C215.479 165.22 227.749 162.67 227.769 162.32C227.789 161.97 228.259 153.53 228.199 148.93Z" fill="#FFBE9D"/>
<path d="M222.999 157.6C222.999 157.6 222.789 157.75 222.429 157.92C221.919 158.126 221.349 158.126 220.839 157.92C219.549 157.45 218.459 155.41 218.399 153.21C218.375 152.179 218.576 151.155 218.989 150.21C219.101 149.829 219.304 149.481 219.581 149.197C219.858 148.913 220.201 148.701 220.579 148.58C220.824 148.513 221.084 148.535 221.314 148.641C221.545 148.747 221.73 148.931 221.839 149.16C221.999 149.5 221.919 149.74 221.989 149.76C222.059 149.78 222.249 149.56 222.149 149.05C222.083 148.748 221.913 148.479 221.669 148.29C221.502 148.163 221.312 148.07 221.11 148.017C220.907 147.964 220.696 147.951 220.489 147.98C219.989 148.083 219.524 148.311 219.138 148.644C218.751 148.976 218.455 149.402 218.279 149.88C217.761 150.936 217.51 152.104 217.549 153.28C217.629 155.74 218.899 158.03 220.659 158.54C220.986 158.635 221.331 158.654 221.667 158.597C222.003 158.54 222.321 158.408 222.599 158.21C222.999 157.9 222.999 157.62 222.999 157.6Z" fill="#EB996E"/>
<path d="M223.399 144.07L226.689 147.07C239.199 133.46 263.209 99.8599 261.869 101.86C255.651 99.9765 249.061 99.6809 242.699 101C232.899 103.32 214.429 109.48 215.459 121.14C216.489 132.8 223.399 144.07 223.399 144.07Z" fill="#263238"/>
<path d="M225.619 174.31C225.619 174.31 225.369 174.74 224.619 175.26C223.6 175.974 222.436 176.452 221.209 176.66C219.362 176.983 217.46 176.721 215.769 175.91C214.737 175.392 213.818 174.674 213.064 173.799C212.311 172.924 211.738 171.908 211.379 170.81C210.61 168.61 210.739 166.195 211.739 164.09C212.592 162.42 213.94 161.054 215.599 160.18C216.697 159.588 217.913 159.246 219.159 159.18C220.029 159.18 220.499 159.3 220.489 159.36C220.479 159.42 218.489 159.26 215.949 160.77C214.492 161.652 213.321 162.937 212.579 164.47C211.761 166.366 211.676 168.498 212.342 170.453C213.007 172.408 214.374 174.046 216.179 175.05C217.703 175.814 219.416 176.116 221.109 175.92C224.099 175.59 225.519 174.13 225.619 174.31Z" fill="#E0E0E0"/>
<path d="M215.129 154.75C215.169 153.806 215.149 152.861 215.069 151.92C215.02 149.359 215.197 146.799 215.599 144.27C217.047 135.926 220.503 128.06 225.669 121.35C230.905 114.697 237.131 108.886 244.129 104.12C246.789 102.25 248.999 100.82 250.539 99.84C251.36 99.3754 252.146 98.8507 252.889 98.27C252.652 98.3352 252.426 98.4364 252.219 98.57C251.789 98.79 251.159 99.11 250.369 99.57C248.779 100.46 246.509 101.82 243.789 103.63C236.627 108.305 230.28 114.122 224.999 120.85C219.735 127.653 216.293 135.686 214.999 144.19C214.645 146.754 214.554 149.348 214.729 151.93C214.729 152.85 214.909 153.55 214.959 154.03C214.986 154.276 215.043 154.518 215.129 154.75Z" fill="#455A64"/>
<path d="M245.199 98C244.958 98.0616 244.726 98.1558 244.509 98.28C244.059 98.48 243.419 98.81 242.599 99.28C240.959 100.14 238.599 101.46 235.819 103.28C232.55 105.389 229.402 107.679 226.389 110.14C222.619 113.087 219.215 116.474 216.249 120.23C214.743 122.226 213.512 124.416 212.589 126.74C211.765 128.916 211.24 131.193 211.029 133.51C210.716 137.417 210.975 141.348 211.799 145.18C212.459 148.44 213.219 151.02 213.799 152.79C214.079 153.68 214.299 154.36 214.469 154.79C214.534 155.031 214.628 155.263 214.749 155.48C214.608 154.529 214.398 153.59 214.119 152.67C213.669 150.88 212.999 148.28 212.419 145.04C211.695 141.259 211.497 137.396 211.829 133.56C212.059 131.314 212.584 129.109 213.389 127C214.293 124.75 215.494 122.631 216.959 120.7C219.895 116.991 223.251 113.636 226.959 110.7C229.926 108.212 233.017 105.876 236.219 103.7C238.959 101.85 241.219 100.46 242.829 99.51C243.651 99.0581 244.443 98.5537 245.199 98Z" fill="#455A64"/>
<path d="M223.18 144.39C223.734 143.899 224.234 143.349 224.67 142.75L228.49 138.1C231.68 134.15 236.05 128.66 240.83 122.56C245.61 116.46 249.91 110.92 252.99 106.87L256.6 102.06C257.071 101.49 257.483 100.873 257.83 100.22C257.283 100.715 256.784 101.261 256.34 101.85L252.53 106.5C249.33 110.5 244.96 115.95 240.18 122.05C235.4 128.15 231.1 133.7 228 137.74L224.39 142.56C223.935 143.134 223.53 143.747 223.18 144.39Z" fill="#E0E0E0"/>
<path d="M254.76 153.84C254.006 153.802 253.25 153.826 252.5 153.91C251.78 154.144 251.081 154.439 250.41 154.79C250.28 154.72 250.98 153.7 252.41 153.4C252.807 153.269 253.231 153.241 253.641 153.318C254.052 153.395 254.437 153.574 254.76 153.84Z" fill="#EB996E"/>
<path d="M242.069 138.51C241.346 138.823 240.547 138.92 239.769 138.79C238.986 138.82 238.21 138.63 237.529 138.24C238.281 138.119 239.047 138.119 239.799 138.24C240.565 138.219 241.33 138.31 242.069 138.51Z" fill="#EB996E"/>
<path d="M241.509 139.35C241.509 139.5 240.819 139.71 239.969 139.98C239.119 140.25 238.419 140.48 238.349 140.34C238.279 140.2 238.909 139.76 239.819 139.48C240.729 139.2 241.499 139.21 241.509 139.35Z" fill="#EB996E"/>
<path d="M278.84 137.12C278.89 137.26 278.31 137.6 277.54 137.88C276.77 138.16 276.11 138.28 276.06 138.14C276.01 138 276.59 137.67 277.36 137.39C278.13 137.11 278.79 137 278.84 137.12Z" fill="#EB996E"/>
<path d="M278.66 139.52C278.61 139.66 277.97 139.52 277.23 139.31C276.49 139.1 275.92 138.73 275.97 138.6C276.02 138.47 276.66 138.6 277.4 138.81C278.14 139.02 278.7 139.39 278.66 139.52Z" fill="#EB996E"/>
</svg>
