<svg width="500" height="443" viewBox="0 0 500 443" fill="none" xmlns="http://www.w3.org/2000/svg">
<path d="M454.927 259.178C466.189 209.615 407.804 138.186 301.833 113.075C195.861 87.9643 218.934 45.9662 162.429 10.862C105.923 -24.2422 -47.55 23.0026 38.6304 192.752C124.811 362.502 420.567 410.259 454.927 259.178Z" fill="#F5F5F5"/>
<path d="M242.825 442.874C350.235 442.874 437.308 439.809 437.308 436.029C437.308 432.248 350.235 429.184 242.825 429.184C135.416 429.184 48.3428 432.248 48.3428 436.029C48.3428 439.809 135.416 442.874 242.825 442.874Z" fill="#F0F0F0"/>
<path d="M500 400.888C500 401.059 388.062 401.206 250.012 401.206C111.963 401.206 0 401.059 0 400.888C0 400.717 111.914 400.571 250.012 400.571C388.111 400.571 500 400.717 500 400.888Z" fill="#263238"/>
<path d="M419.908 331.803C418.167 328.447 415.259 325.843 411.732 324.482C415.155 326.009 418.013 328.569 419.908 331.803Z" fill="#455A64"/>
<path d="M201.827 325.726C205.691 327.925 209.998 329.23 214.432 329.545C218.911 329.735 223.287 328.172 226.633 325.189C227.18 324.659 227.686 324.088 228.146 323.481H197.874L198.338 323.762C199.143 324.213 200.327 324.921 201.827 325.726Z" fill="#455A64"/>
<path d="M126.067 328.545C128.758 329.972 131.717 330.824 134.755 331.046C138.784 331.269 142.825 330.932 146.761 330.045C151.528 328.925 156.375 328.175 161.257 327.8C166.877 327.596 172.503 328.005 178.034 329.02C183.891 330.021 189.943 331.461 196.251 332.803C202.743 334.287 209.363 335.137 216.018 335.341C222.677 335.587 229.308 334.367 235.443 331.766C238.284 330.371 241.031 328.794 243.667 327.044C246.209 325.344 249.055 324.151 252.05 323.53L252.965 323.408H228.269C227.805 324.064 227.282 324.677 226.707 325.238C223.368 328.296 218.956 329.91 214.432 329.728C209.961 329.43 205.619 328.106 201.742 325.86C200.254 325.031 199.082 324.298 198.277 323.774L197.74 323.408H120.564C120.884 323.934 121.243 324.436 121.638 324.909C122.862 326.399 124.367 327.635 126.067 328.545Z" fill="#263238"/>
<path d="M268.18 327.605C270.48 328.685 272.873 329.555 275.33 330.204C277.605 330.759 279.932 331.074 282.273 331.144C286.305 331.207 290.319 330.588 294.145 329.313C297.029 328.34 299.768 326.977 302.283 325.262C303.223 324.616 304.016 324.042 304.724 323.432H255.917C257.537 323.598 259.133 323.946 260.676 324.469C263.228 325.388 265.733 326.434 268.18 327.605Z" fill="#263238"/>
<path d="M361.986 334.121C366.102 331.341 369.559 327.692 372.113 323.432H344.623C344.452 323.566 344.269 323.688 344.074 323.823C343.184 324.513 342.241 325.133 341.255 325.677L339.547 326.641C338.925 326.946 338.327 327.227 337.607 327.532C336.289 328.191 334.788 328.679 333.239 329.265C330.103 330.326 326.601 331.29 322.904 332.242C319.207 333.193 315.705 334.145 312.569 335.182C311.032 335.768 309.531 336.232 308.213 336.878C307.542 337.171 306.883 337.452 306.273 337.745L304.565 338.672C303.577 339.205 302.628 339.804 301.722 340.466C301.319 340.759 300.929 341.003 300.587 341.259L299.709 342.027L298.781 342.833H344.415L348.576 341.137C353.281 339.276 357.775 336.925 361.986 334.121Z" fill="#263238"/>
<path d="M376.104 335.097C377.816 334.166 379.686 333.561 381.619 333.315C382.758 330.862 384.437 328.698 386.531 326.987C388.625 325.275 391.08 324.06 393.711 323.432H377.849C377.727 323.676 377.495 324.115 377.117 324.75C376.238 326.076 375.22 327.303 374.078 328.41C372.368 330.041 370.545 331.549 368.624 332.925C366.275 334.592 364.015 336.38 361.852 338.282C360.402 339.636 359.12 341.16 358.033 342.821H370.235C370.383 342.274 370.562 341.736 370.772 341.21C371.811 338.63 373.689 336.477 376.104 335.097Z" fill="#263238"/>
<path d="M368.527 332.742C370.457 331.388 372.299 329.913 374.042 328.325C375.192 327.215 376.222 325.989 377.117 324.664C377.434 324.201 377.641 323.81 377.8 323.566C377.827 323.51 377.86 323.457 377.898 323.408H372.37C369.845 327.766 366.361 331.492 362.182 334.304C357.958 337.116 353.436 339.453 348.699 341.271C347.076 341.93 345.746 342.43 344.758 342.808H357.826C358.92 341.077 360.228 339.491 361.718 338.086C363.891 336.185 366.163 334.401 368.527 332.742Z" fill="#263238"/>
<path d="M300.515 341.161C300.844 340.905 301.235 340.649 301.637 340.356C302.531 339.673 303.478 339.061 304.468 338.526L306.188 337.562C306.799 337.269 307.409 336.988 308.128 336.683C309.458 336.036 310.959 335.548 312.497 334.963C315.645 333.913 319.147 332.949 322.844 331.998C326.541 331.046 330.03 330.082 333.166 329.045C334.704 328.459 336.205 327.983 337.522 327.337L339.45 326.47L341.171 325.519C342.155 324.984 343.101 324.381 344.001 323.713L344.392 323.432H304.834C304.126 324.03 303.309 324.652 302.394 325.348C299.875 327.078 297.133 328.457 294.243 329.448C290.401 330.747 286.365 331.383 282.31 331.327C279.958 331.255 277.619 330.945 275.33 330.399C272.862 329.749 270.457 328.879 268.144 327.8C265.703 326.739 263.263 325.555 260.615 324.677C257.903 323.694 254.992 323.389 252.135 323.786C249.171 324.406 246.354 325.591 243.838 327.276C241.182 329.024 238.414 330.597 235.553 331.986C229.393 334.623 222.728 335.872 216.03 335.646C209.359 335.434 202.723 334.58 196.215 333.096C189.906 331.766 183.842 330.302 178.01 329.301C172.491 328.286 166.877 327.877 161.269 328.081C156.398 328.46 151.561 329.198 146.798 330.289C142.849 331.176 138.795 331.505 134.755 331.266C131.701 331.026 128.73 330.153 126.031 328.703C124.326 327.789 122.82 326.545 121.602 325.043C121.286 324.659 121 324.251 120.747 323.823C120.68 323.729 120.619 323.631 120.564 323.53H92.3786C88.7237 323.531 85.1875 324.827 82.3976 327.188C79.6076 329.549 77.7445 332.823 77.1387 336.427C77.9424 336.222 78.7571 336.063 79.579 335.951C80.5429 335.817 81.6289 335.585 82.8491 335.512C84.1702 335.367 85.4978 335.29 86.8268 335.28C88.2666 335.207 89.7918 335.28 91.4024 335.365C94.8964 335.625 98.3596 336.2 101.749 337.086C105.108 338.006 108.375 339.231 111.511 340.746C112.877 341.466 114.195 342.125 115.354 342.869H192.713L191.127 341.844C187.45 339.547 183.459 337.796 179.279 336.647C173.079 334.925 166.589 334.51 160.22 335.426C156.468 335.989 152.802 337.026 149.312 338.513C145.651 339.978 141.869 341.747 137.622 342.015C133.376 342.284 129.362 340.685 125.872 338.892C122.382 337.098 119.112 335.085 115.757 333.706C109.836 331.177 103.498 329.767 97.064 329.545C92.7313 329.424 88.3999 329.834 84.1668 330.765C82.6782 331.119 81.5191 331.424 80.7504 331.668L79.5302 331.998L80.7504 331.619C81.5191 331.351 82.666 331.046 84.1546 330.68C88.3863 329.711 92.7248 329.288 97.064 329.423C103.524 329.584 109.896 330.95 115.855 333.45C119.234 334.829 122.492 336.842 126.006 338.635C129.52 340.429 133.413 341.979 137.61 341.735C141.808 341.491 145.59 339.709 149.226 338.245C152.741 336.755 156.431 335.717 160.208 335.158C166.605 334.233 173.124 334.648 179.352 336.378C183.54 337.546 187.532 339.326 191.2 341.661C191.834 342.076 192.42 342.442 192.884 342.772H241.288C241.471 342.552 241.776 342.21 242.252 341.735C243.384 340.656 244.651 339.729 246.022 338.977C248.062 337.866 250.259 337.072 252.538 336.622C255.32 336.071 258.164 335.89 260.993 336.085C263.819 336.266 266.631 336.621 269.413 337.147C271.701 337.474 273.961 337.976 276.172 338.648C276.921 338.9 277.611 339.303 278.198 339.832C278.786 340.361 279.259 341.004 279.589 341.722C279.724 342.058 279.806 342.412 279.833 342.772H298.733L299.685 341.893L300.515 341.161Z" fill="#263238"/>
<path d="M101.64 337.232C98.2625 336.362 94.8172 335.783 91.3413 335.5C89.7307 335.439 88.2055 335.329 86.7779 335.39C85.4534 335.392 84.1299 335.462 82.8123 335.597C81.5922 335.658 80.5184 335.866 79.5545 336C78.734 336.099 77.9194 336.241 77.1142 336.427C76.9754 337.233 76.902 338.049 76.8945 338.867V342.796H114.915C113.817 342.137 112.633 341.576 111.389 340.881C108.253 339.379 104.991 338.158 101.64 337.232Z" fill="#263238"/>
<path d="M276.074 338.879C273.868 338.232 271.617 337.751 269.339 337.44C266.562 336.932 263.76 336.582 260.944 336.39C258.131 336.206 255.307 336.378 252.537 336.903C250.282 337.351 248.104 338.124 246.07 339.197C244.704 339.927 243.433 340.825 242.288 341.869C241.812 342.296 241.507 342.625 241.312 342.833H279.735C279.693 342.487 279.598 342.149 279.454 341.832C279.12 341.137 278.648 340.517 278.067 340.009C277.486 339.501 276.808 339.117 276.074 338.879Z" fill="#263238"/>
<path d="M379.959 340.527C379.996 338.13 380.514 335.764 381.484 333.572C379.641 333.818 377.858 334.401 376.226 335.292C373.429 336.981 371.382 339.674 370.503 342.821H421.628V342.65H379.923L379.959 340.527Z" fill="#263238"/>
<path d="M179.315 336.439C173.087 334.709 166.568 334.294 160.171 335.219C156.394 335.778 152.704 336.816 149.189 338.306C145.529 339.77 141.758 341.527 137.573 341.796C133.388 342.064 129.447 340.478 125.969 338.697C122.492 336.915 119.197 334.89 115.818 333.511C109.859 331.011 103.487 329.645 97.027 329.484C92.6868 329.358 88.3482 329.788 84.1176 330.765C82.629 331.131 81.482 331.437 80.7133 331.705L79.4932 332.083L80.7133 331.754C81.482 331.51 82.6412 331.205 84.1298 330.851C88.3713 329.887 92.7151 329.449 97.0636 329.545C103.497 329.738 109.838 331.12 115.769 333.621C119.124 334.999 122.37 337 125.884 338.806C129.398 340.612 133.364 342.186 137.634 341.93C141.905 341.674 145.687 339.892 149.323 338.428C152.814 336.941 156.479 335.903 160.232 335.341C166.601 334.424 173.091 334.84 179.291 336.561C183.471 337.711 187.462 339.462 191.138 341.759L192.725 342.784H192.871C192.395 342.455 191.822 342.089 191.187 341.674C187.509 339.354 183.509 337.59 179.315 336.439Z" fill="#455A64"/>
<path d="M121.589 324.957C122.808 326.459 124.313 327.704 126.018 328.618C128.717 330.067 131.688 330.94 134.742 331.18C138.783 331.419 142.836 331.091 146.785 330.204C151.548 329.113 156.385 328.374 161.256 327.996C166.865 327.791 172.478 328.201 177.997 329.216C183.83 330.216 189.894 331.656 196.202 333.01C202.707 334.523 209.343 335.406 216.018 335.646C222.715 335.872 229.38 334.623 235.54 331.985C238.385 330.588 241.137 329.006 243.776 327.251C246.293 325.566 249.11 324.382 252.074 323.762C254.936 323.366 257.851 323.676 260.566 324.664C263.226 325.543 265.691 326.727 268.094 327.788C270.408 328.867 272.813 329.736 275.281 330.387C277.57 330.933 279.909 331.243 282.26 331.314C286.316 331.37 290.352 330.735 294.194 329.435C297.084 328.445 299.826 327.065 302.344 325.336C303.308 324.664 304.126 324.018 304.785 323.42H304.663C303.967 323.993 303.174 324.64 302.222 325.25C299.707 326.965 296.969 328.328 294.084 329.301C290.258 330.576 286.244 331.194 282.212 331.131C279.871 331.062 277.544 330.747 275.269 330.192C272.812 329.542 270.419 328.673 268.119 327.593C265.656 326.421 263.135 325.374 260.566 324.457C259.024 323.934 257.427 323.586 255.807 323.42H252.903L251.988 323.542C248.994 324.163 246.148 325.356 243.606 327.056C240.969 328.806 238.222 330.384 235.382 331.778C229.247 334.379 222.615 335.599 215.957 335.353C209.301 335.149 202.681 334.299 196.19 332.815C189.882 331.485 183.83 330.033 177.973 329.033C172.441 328.017 166.816 327.608 161.195 327.813C156.313 328.187 151.467 328.937 146.7 330.058C142.763 330.944 138.723 331.281 134.693 331.058C131.655 330.836 128.697 329.984 126.006 328.557C124.303 327.64 122.798 326.396 121.577 324.896C121.181 324.424 120.822 323.922 120.503 323.396C120.557 323.497 120.618 323.595 120.686 323.688C120.952 324.135 121.254 324.559 121.589 324.957Z" fill="#455A64"/>
<path d="M276.136 338.709C273.924 338.037 271.664 337.536 269.376 337.208C266.594 336.682 263.782 336.328 260.957 336.146C258.127 335.951 255.283 336.132 252.501 336.683C250.222 337.133 248.025 337.927 245.985 339.038C244.634 339.778 243.383 340.689 242.264 341.747C241.788 342.223 241.483 342.564 241.3 342.784H241.361C241.556 342.577 241.861 342.247 242.337 341.82C243.482 340.776 244.753 339.879 246.119 339.148C248.153 338.075 250.331 337.302 252.586 336.854C255.356 336.33 258.181 336.158 260.993 336.342C263.809 336.533 266.612 336.884 269.388 337.391C271.666 337.702 273.917 338.184 276.123 338.831C276.857 339.069 277.535 339.453 278.116 339.96C278.697 340.468 279.169 341.088 279.503 341.784C279.647 342.101 279.742 342.438 279.784 342.784H279.845C279.818 342.424 279.736 342.07 279.601 341.735C279.26 341.021 278.777 340.384 278.181 339.863C277.585 339.343 276.889 338.95 276.136 338.709Z" fill="#455A64"/>
<path d="M300.588 341.259C300.929 341.003 301.32 340.759 301.722 340.466C302.628 339.804 303.578 339.205 304.565 338.672L306.274 337.745C306.884 337.452 307.494 337.171 308.214 336.878C309.531 336.232 311.032 335.768 312.57 335.182C315.705 334.145 319.207 333.193 322.904 332.242C326.602 331.29 330.103 330.326 333.239 329.265C334.789 328.679 336.29 328.191 337.607 327.532C338.279 327.227 338.925 326.946 339.547 326.641L341.256 325.677C342.242 325.133 343.184 324.513 344.074 323.823C344.27 323.688 344.453 323.566 344.623 323.432H344.392L344.001 323.713C343.101 324.381 342.155 324.984 341.17 325.519L339.45 326.47L337.522 327.337C336.204 327.983 334.703 328.459 333.166 329.045C330.03 330.082 326.528 331.046 322.843 331.998C319.158 332.949 315.644 333.913 312.496 334.963C310.959 335.548 309.458 336.036 308.128 336.683C307.457 336.988 306.798 337.269 306.188 337.562L304.468 338.526C303.478 339.061 302.531 339.673 301.637 340.356C301.234 340.649 300.844 340.905 300.514 341.161L299.648 341.954L298.696 342.833H298.782L299.709 342.027L300.588 341.259Z" fill="#455A64"/>
<path d="M362.133 334.328C366.312 331.516 369.796 327.79 372.322 323.432H372.114C369.56 327.692 366.103 331.341 361.987 334.121C357.773 336.926 353.274 339.277 348.565 341.137L344.404 342.833H344.758C345.746 342.455 347.076 341.954 348.699 341.295C353.42 339.474 357.925 337.138 362.133 334.328Z" fill="#455A64"/>
<path d="M368.662 332.937C370.583 331.562 372.405 330.053 374.116 328.423C375.257 327.315 376.276 326.088 377.154 324.762C377.532 324.128 377.764 323.688 377.886 323.444C377.848 323.494 377.816 323.547 377.789 323.603C377.63 323.847 377.423 324.237 377.105 324.701C376.211 326.025 375.18 327.252 374.03 328.362C372.304 329.956 370.478 331.44 368.564 332.803C366.2 334.47 363.927 336.262 361.756 338.172C360.248 339.573 358.924 341.16 357.814 342.894H358.107C359.194 341.234 360.476 339.71 361.926 338.355C364.076 336.433 366.324 334.625 368.662 332.937Z" fill="#455A64"/>
<path d="M101.701 336.988C98.3108 336.103 94.8476 335.527 91.3536 335.268C89.743 335.207 88.2178 335.109 86.778 335.182C85.449 335.192 84.1213 335.269 82.8002 335.414C81.5801 335.487 80.4941 335.719 79.5302 335.853C78.7083 335.965 77.8935 336.124 77.0898 336.329C77.0898 336.329 77.0898 336.403 77.0898 336.427C77.8951 336.241 78.7097 336.099 79.5302 336C80.4941 335.866 81.5679 335.658 82.788 335.597C84.1055 335.461 85.4291 335.392 86.7536 335.39C88.1812 335.329 89.7064 335.39 91.317 335.5C94.7929 335.782 98.2382 336.362 101.615 337.232C104.971 338.161 108.238 339.386 111.377 340.893C112.597 341.539 113.817 342.113 114.903 342.808H115.366C114.207 342.064 112.926 341.405 111.523 340.685C108.369 339.154 105.081 337.916 101.701 336.988Z" fill="#455A64"/>
<path d="M201.741 325.885C205.618 328.131 209.96 329.454 214.431 329.753C218.955 329.934 223.367 328.32 226.706 325.262C227.281 324.701 227.804 324.089 228.268 323.432H228.097C227.637 324.039 227.131 324.61 226.584 325.14C223.238 328.123 218.861 329.686 214.382 329.496C209.952 329.196 205.645 327.908 201.778 325.726C200.277 324.921 199.094 324.213 198.288 323.713L197.825 323.432H197.69L198.227 323.798C199.081 324.323 200.253 325.055 201.741 325.885Z" fill="#455A64"/>
<path d="M422.361 340.82C422.355 336.09 420.478 331.555 417.141 328.204C413.803 324.853 409.276 322.958 404.546 322.932H397.836C396.446 322.943 395.063 323.111 393.711 323.432C391.08 324.06 388.626 325.275 386.532 326.987C384.437 328.698 382.758 330.862 381.62 333.316C379.686 333.561 377.816 334.166 376.104 335.097C373.729 336.491 371.886 338.638 370.87 341.198C370.66 341.724 370.481 342.262 370.333 342.808H370.504C371.383 339.662 373.43 336.969 376.226 335.28C377.859 334.389 379.642 333.806 381.485 333.56C380.515 335.752 379.997 338.117 379.96 340.514V342.638H422.361V340.82Z" fill="#455A64"/>
<path d="M112.609 278.896C110.486 285.802 108.302 292.391 107.728 298.638C107.728 299.407 107.618 300.188 107.57 300.944C107.521 301.701 107.57 302.457 107.57 303.19C107.599 304.626 107.738 306.057 107.984 307.472C108.432 310.017 109.093 312.519 109.961 314.952C111.181 318.271 112.401 321.053 113.353 323.237V312.573C113.036 312.036 112.719 311.462 112.401 310.816C110.28 305.824 109.931 300.256 111.413 295.039C111.921 293.206 112.569 291.415 113.353 289.682V276.26C113.134 277.163 112.926 278.03 112.609 278.896Z" fill="#263238"/>
<path d="M110.852 231.529C110.328 235.238 110.56 239.015 111.535 242.633C112.011 244.695 112.682 246.903 113.366 249.246V227.673H111.975C111.975 227.82 111.816 228.113 111.633 228.576C111.291 229.537 111.03 230.525 110.852 231.529Z" fill="#263238"/>
<path d="M112.584 310.73C112.84 311.304 113.108 311.804 113.365 312.268V290.305C112.688 291.87 112.121 293.48 111.669 295.124C110.205 300.281 110.528 305.78 112.584 310.73Z" fill="#263238"/>
<path d="M108.887 263.436C110.551 261.526 111.504 259.099 111.583 256.567C111.656 253.699 110.192 250.795 108.838 247.818C107.489 244.988 106.804 241.887 106.837 238.752C106.885 236.207 107.209 233.675 107.801 231.2C108.118 229.833 108.435 228.662 108.703 227.673H105.116V266.267C106.561 265.605 107.847 264.639 108.887 263.436Z" fill="#263238"/>
<path d="M107.776 281.837C108.109 280.13 107.961 278.364 107.349 276.736C107.124 276.297 106.808 275.911 106.424 275.602C106.039 275.293 105.593 275.068 105.116 274.943V292.025C105.25 291.72 105.385 291.415 105.519 291.061C106.694 288.105 107.454 285.001 107.776 281.837Z" fill="#263238"/>
<path d="M109.802 315.001C108.918 312.566 108.245 310.059 107.789 307.509C107.534 306.086 107.388 304.646 107.35 303.202C107.35 302.457 107.35 301.701 107.35 300.932C107.35 300.163 107.435 299.395 107.484 298.614C108.069 292.33 110.266 285.729 112.364 278.823C112.706 277.603 113.048 276.492 113.353 275.333V250.002C112.609 247.379 111.864 244.939 111.34 242.681C110.378 239.04 110.175 235.24 110.742 231.517C110.931 230.514 111.209 229.53 111.571 228.576C111.767 228.113 111.901 227.82 111.962 227.686H108.826C108.558 228.686 108.265 229.87 107.96 231.248C107.398 233.716 107.095 236.235 107.057 238.765C107.043 241.862 107.727 244.923 109.058 247.721C110.412 250.698 111.889 253.639 111.815 256.591C111.718 259.173 110.726 261.641 109.009 263.571C107.934 264.79 106.6 265.753 105.104 266.389V274.747C105.372 274.819 105.633 274.913 105.885 275.028C106.605 275.368 107.189 275.939 107.545 276.651C108.187 278.313 108.352 280.122 108.021 281.873C107.69 285.058 106.897 288.178 105.666 291.134C105.471 291.598 105.288 292.013 105.104 292.354V323.749H113.475C112.438 321.516 111.096 318.564 109.802 315.001Z" fill="#263238"/>
<path d="M113.609 323.774H115.696V323.444H113.438C113.499 323.53 113.56 323.652 113.609 323.774Z" fill="#455A64"/>
<path d="M111.827 256.579C111.9 253.626 110.424 250.686 109.07 247.708C107.739 244.911 107.055 241.85 107.068 238.752C107.107 236.222 107.409 233.703 107.971 231.236C108.276 229.857 108.569 228.674 108.838 227.673H108.703C108.435 228.662 108.118 229.833 107.801 231.2C107.209 233.675 106.885 236.207 106.837 238.752C106.804 241.887 107.489 244.988 108.838 247.818C110.192 250.795 111.656 253.699 111.583 256.567C111.504 259.099 110.551 261.526 108.887 263.436C107.847 264.639 106.561 265.605 105.116 266.267V266.377C106.612 265.741 107.946 264.778 109.021 263.558C110.738 261.628 111.73 259.161 111.827 256.579Z" fill="#455A64"/>
<path d="M110.754 231.505C110.187 235.228 110.391 239.028 111.352 242.669C111.877 244.939 112.572 247.379 113.365 249.99V275.321C113.06 276.48 112.719 277.639 112.377 278.811C110.254 285.717 108.057 292.318 107.496 298.602C107.496 299.383 107.399 300.163 107.362 300.92C107.325 301.676 107.362 302.445 107.362 303.189C107.4 304.634 107.547 306.074 107.801 307.497C108.257 310.047 108.931 312.553 109.815 314.988C111.108 318.576 112.45 321.504 113.475 323.761H113.597C113.597 323.639 113.487 323.517 113.426 323.383H115.684V227.673H113.353V249.246C112.67 246.903 111.999 244.695 111.523 242.633C110.548 239.015 110.315 235.238 110.839 231.529C111.017 230.525 111.279 229.537 111.62 228.576C111.803 228.113 111.913 227.82 111.962 227.673C111.901 227.808 111.767 228.1 111.572 228.564C111.213 229.518 110.94 230.502 110.754 231.505ZM113.365 312.267C113.109 311.804 112.841 311.304 112.584 310.73C110.523 305.773 110.2 300.264 111.669 295.1C112.122 293.456 112.688 291.845 113.365 290.28V312.267ZM111.425 295.039C109.943 300.256 110.292 305.824 112.413 310.815C112.731 311.462 113.048 312.036 113.365 312.573V323.237C112.377 321.04 111.157 318.271 109.973 314.952C109.105 312.519 108.444 310.017 107.996 307.472C107.75 306.057 107.611 304.626 107.582 303.189C107.582 302.457 107.582 301.701 107.582 300.944C107.582 300.188 107.679 299.407 107.74 298.638C108.326 292.391 110.51 285.802 112.621 278.896C112.889 278.03 113.146 277.163 113.377 276.309V289.731C112.592 291.448 111.939 293.222 111.425 295.039Z" fill="#455A64"/>
<path d="M108.045 281.861C108.377 280.11 108.212 278.301 107.569 276.639C107.214 275.927 106.629 275.356 105.91 275.016C105.658 274.901 105.397 274.807 105.129 274.735V274.943C105.606 275.068 106.052 275.293 106.436 275.602C106.821 275.911 107.136 276.297 107.362 276.736C107.973 278.364 108.121 280.13 107.789 281.837C107.465 284.997 106.706 288.097 105.532 291.049C105.397 291.403 105.263 291.708 105.129 292.013V292.379C105.312 292.001 105.495 291.586 105.69 291.159C106.925 288.191 107.718 285.059 108.045 281.861Z" fill="#455A64"/>
<path d="M374.164 263.436C375.833 261.528 376.79 259.101 376.873 256.567C376.934 253.699 375.482 250.795 374.116 247.818C372.772 244.986 372.088 241.887 372.114 238.752C372.163 236.207 372.486 233.675 373.078 231.2C373.408 229.833 373.713 228.662 373.994 227.673H370.382V266.267C371.83 265.604 373.119 264.638 374.164 263.436Z" fill="#263238"/>
<path d="M377.861 310.73C378.097 311.256 378.362 311.77 378.654 312.268V290.305C377.978 291.872 377.408 293.482 376.945 295.124C375.494 300.282 375.816 305.778 377.861 310.73Z" fill="#263238"/>
<path d="M377.896 278.896C375.773 285.802 373.577 292.391 373.016 298.638C373.016 299.407 372.918 300.188 372.869 300.944C372.821 301.701 372.869 302.457 372.869 303.19C372.899 304.626 373.037 306.057 373.284 307.472C373.746 309.998 374.407 312.482 375.261 314.903C376.481 318.222 377.701 321.004 378.665 323.188V312.524C378.316 311.956 377.998 311.37 377.713 310.767C375.588 305.776 375.235 300.209 376.713 294.99C377.224 293.157 377.877 291.366 378.665 289.634V276.212C378.409 277.163 378.153 278.03 377.896 278.896Z" fill="#263238"/>
<path d="M378.922 323.774H381.008V323.444H378.751C378.788 323.53 378.836 323.652 378.922 323.774Z" fill="#455A64"/>
<path d="M375.09 315.001C374.208 312.564 373.53 310.058 373.065 307.509C372.815 306.086 372.672 304.646 372.638 303.202C372.638 302.457 372.638 301.701 372.638 300.932C372.638 300.163 372.735 299.395 372.784 298.614C373.37 292.33 375.554 285.729 377.665 278.823C378.019 277.603 378.348 276.492 378.665 275.333V250.002C377.909 247.379 377.165 244.939 376.652 242.681C375.691 239.04 375.487 235.24 376.054 231.517C376.235 230.513 376.509 229.529 376.872 228.576C377.067 228.113 377.201 227.82 377.262 227.686H374.138C373.87 228.686 373.565 229.87 373.272 231.248C372.706 233.715 372.399 236.234 372.357 238.765C372.343 241.862 373.027 244.923 374.358 247.721C375.713 250.698 377.189 253.639 377.116 256.591C377.025 259.174 376.032 261.644 374.309 263.571C373.241 264.792 371.911 265.755 370.417 266.389V274.747C370.681 274.819 370.938 274.913 371.186 275.028C371.91 275.361 372.496 275.935 372.845 276.651C373.5 278.31 373.665 280.123 373.321 281.873C373 285.059 372.21 288.179 370.978 291.134C370.783 291.598 370.6 292.013 370.417 292.354V323.749H378.775C377.701 321.516 376.384 318.564 375.09 315.001Z" fill="#263238"/>
<path d="M373.053 281.837C373.385 280.13 373.238 278.364 372.626 276.736C372.403 276.298 372.09 275.911 371.707 275.602C371.325 275.293 370.881 275.068 370.405 274.943V292.025C370.527 291.72 370.662 291.415 370.796 291.061C371.971 288.105 372.731 285.001 373.053 281.837Z" fill="#263238"/>
<path d="M376.14 231.529C375.617 235.238 375.845 239.014 376.811 242.633C377.287 244.695 377.958 246.903 378.653 249.246V227.673H377.262C377.262 227.82 377.092 228.113 376.909 228.576C376.572 229.538 376.315 230.525 376.14 231.529Z" fill="#263238"/>
<path d="M377.104 256.579C377.177 253.626 375.701 250.686 374.346 247.708C373.016 244.911 372.332 241.85 372.345 238.752C372.387 236.222 372.694 233.703 373.26 231.236C373.553 229.857 373.858 228.674 374.127 227.673H374.041C373.761 228.662 373.456 229.833 373.126 231.2C372.534 233.675 372.211 236.207 372.162 238.752C372.136 241.887 372.82 244.986 374.163 247.818C375.53 250.795 376.982 253.699 376.921 256.567C376.838 259.101 375.881 261.528 374.212 263.436C373.174 264.636 371.893 265.601 370.454 266.267V266.377C371.948 265.743 373.278 264.78 374.346 263.558C376.051 261.625 377.027 259.156 377.104 256.579Z" fill="#455A64"/>
<path d="M376.043 231.505C375.476 235.228 375.679 239.028 376.641 242.669C377.153 244.939 377.861 247.379 378.654 249.99V275.321C378.337 276.48 378.007 277.639 377.653 278.811C375.53 285.717 373.346 292.318 372.773 298.602C372.773 299.383 372.675 300.163 372.626 300.92C372.577 301.676 372.626 302.445 372.626 303.189C372.66 304.634 372.803 306.074 373.053 307.497C373.519 310.046 374.196 312.552 375.079 314.988C376.372 318.576 377.702 321.504 378.739 323.761H378.922C378.861 323.639 378.812 323.517 378.751 323.383H381.009V227.673H378.678V249.246C377.983 246.903 377.312 244.695 376.836 242.633C375.87 239.014 375.642 235.238 376.165 231.529C376.34 230.525 376.597 229.538 376.933 228.576C377.116 228.113 377.238 227.82 377.287 227.673C377.226 227.808 377.092 228.1 376.897 228.564C376.521 229.516 376.235 230.5 376.043 231.505ZM378.654 312.267C378.362 311.769 378.098 311.256 377.861 310.73C375.81 305.77 375.488 300.265 376.946 295.1C377.408 293.457 377.978 291.847 378.654 290.28V312.267ZM376.702 295.039C375.223 300.258 375.576 305.825 377.702 310.815C377.987 311.418 378.304 312.005 378.654 312.573V323.237C377.702 321.004 376.482 318.271 375.262 314.903C374.405 312.466 373.744 309.965 373.285 307.423C373.038 306.008 372.9 304.577 372.87 303.141C372.87 302.409 372.87 301.652 372.87 300.896C372.87 300.139 372.968 299.358 373.017 298.589C373.602 292.342 375.799 285.753 377.897 278.847C378.154 277.981 378.41 277.114 378.654 276.26V289.682C377.866 291.415 377.213 293.206 376.702 295.039Z" fill="#455A64"/>
<path d="M373.309 281.861C373.654 280.111 373.488 278.298 372.833 276.639C372.484 275.923 371.898 275.349 371.174 275.016C370.926 274.901 370.669 274.807 370.405 274.735V274.943C370.881 275.068 371.325 275.293 371.707 275.602C372.09 275.911 372.403 276.298 372.626 276.736C373.238 278.364 373.385 280.13 373.053 281.837C372.73 284.997 371.97 288.097 370.796 291.049C370.662 291.403 370.527 291.708 370.405 292.013V292.379C370.588 292.001 370.771 291.586 370.967 291.159C372.202 288.192 372.992 285.059 373.309 281.861Z" fill="#455A64"/>
<path d="M384.742 376.363C386.419 374.459 387.377 372.029 387.451 369.493C387.512 366.626 386.06 363.722 384.694 360.745C383.356 357.911 382.672 354.813 382.693 351.679C382.741 349.134 383.065 346.602 383.657 344.126C383.986 342.76 384.291 341.588 384.572 340.6H380.984V379.182C382.428 378.528 383.711 377.566 384.742 376.363Z" fill="#263238"/>
<path d="M385.67 427.927C384.788 425.491 384.11 422.985 383.645 420.435C383.401 419.012 383.258 417.572 383.218 416.128C383.218 415.384 383.218 414.627 383.218 413.859L383.364 411.54C383.95 405.257 386.134 398.643 388.245 391.749C388.599 390.529 388.928 389.419 389.245 388.247V362.917C388.489 360.306 387.745 357.865 387.232 355.596C386.271 351.954 386.067 348.154 386.634 344.431C386.825 343.43 387.098 342.446 387.452 341.491C387.647 341.027 387.781 340.734 387.842 340.6H384.719C384.45 341.6 384.145 342.784 383.852 344.163C383.284 346.629 382.982 349.149 382.949 351.679C382.925 354.776 383.605 357.839 384.938 360.635C386.293 363.612 387.769 366.541 387.696 369.506C387.611 372.09 386.617 374.561 384.889 376.485C383.821 377.706 382.491 378.67 380.997 379.304V387.662C381.261 387.734 381.518 387.827 381.766 387.942C382.491 388.278 383.08 388.85 383.437 389.565C384.082 391.227 384.243 393.038 383.901 394.787C383.58 397.973 382.79 401.094 381.558 404.049C381.363 404.512 381.18 404.927 380.997 405.269V436.664H389.367C388.306 434.48 386.964 431.515 385.67 427.927Z" fill="#263238"/>
<path d="M383.644 394.763C383.967 393.055 383.815 391.291 383.205 389.663C382.982 389.224 382.669 388.838 382.286 388.529C381.904 388.219 381.46 387.995 380.984 387.869V404.951L381.363 403.975C382.54 401.023 383.308 397.924 383.644 394.763Z" fill="#263238"/>
<path d="M388.476 391.774C386.353 398.68 384.169 405.196 383.596 411.504L383.449 413.822C383.449 414.579 383.449 415.335 383.449 416.067C383.485 417.503 383.623 418.934 383.864 420.35C384.319 422.89 384.985 425.388 385.853 427.817C387.073 431.149 388.293 433.918 389.245 436.115V425.45C388.898 424.877 388.58 424.287 388.293 423.681C386.167 418.695 385.814 413.131 387.293 407.917C387.802 406.083 388.455 404.292 389.245 402.56V389.138C388.989 390.09 388.684 390.956 388.476 391.774Z" fill="#263238"/>
<path d="M386.719 344.443C386.196 348.156 386.424 351.936 387.39 355.559C387.878 357.621 388.537 359.817 389.233 362.172V340.6H387.842L387.488 341.503C387.153 342.461 386.896 343.444 386.719 344.443Z" fill="#263238"/>
<path d="M389.476 436.7H391.563V436.322H389.306C389.367 436.456 389.415 436.578 389.476 436.7Z" fill="#455A64"/>
<path d="M388.44 423.657C388.696 424.218 388.964 424.731 389.233 425.194V403.231C388.557 404.798 387.987 406.408 387.524 408.051C386.073 413.208 386.395 418.704 388.44 423.657Z" fill="#263238"/>
<path d="M387.684 369.506C387.757 366.541 386.28 363.612 384.926 360.635C383.593 357.839 382.913 354.776 382.937 351.679C382.959 349.158 383.25 346.647 383.803 344.187C384.096 342.808 384.401 341.625 384.67 340.624H384.536C384.255 341.613 383.95 342.784 383.62 344.151C383.028 346.626 382.705 349.158 382.656 351.703C382.636 354.837 383.32 357.935 384.658 360.769C386.024 363.746 387.476 366.65 387.415 369.518C387.339 371.573 386.694 373.566 385.552 375.277C384.411 376.987 382.817 378.347 380.948 379.206V379.328C382.442 378.694 383.772 377.731 384.841 376.509C386.587 374.585 387.595 372.103 387.684 369.506Z" fill="#455A64"/>
<path d="M386.622 344.431C386.055 348.154 386.258 351.954 387.219 355.596C387.732 357.865 388.44 360.306 389.233 362.917V388.247C388.915 389.468 388.586 390.578 388.232 391.749C386.109 398.643 383.925 405.257 383.351 411.54L383.205 413.859C383.205 414.627 383.205 415.384 383.205 416.128C383.245 417.572 383.388 419.012 383.632 420.435C384.097 422.985 384.775 425.491 385.658 427.927C386.951 431.515 388.293 434.443 389.318 436.7H389.44C389.44 436.578 389.33 436.456 389.269 436.322H391.527V340.6H389.196V362.172C388.501 359.817 387.842 357.621 387.354 355.559C386.387 351.936 386.159 348.156 386.683 344.443C386.859 343.444 387.116 342.461 387.451 341.503L387.805 340.6C387.744 340.734 387.61 341.027 387.415 341.491C387.07 342.447 386.804 343.431 386.622 344.431ZM389.233 425.194C388.964 424.73 388.696 424.218 388.44 423.657C386.389 418.697 386.067 413.191 387.524 408.026C387.987 406.384 388.557 404.774 389.233 403.207V425.194ZM387.28 407.965C385.802 413.18 386.155 418.744 388.281 423.73C388.568 424.335 388.885 424.926 389.233 425.499V436.163C388.244 433.967 387.012 431.197 385.841 427.866C384.972 425.436 384.307 422.939 383.852 420.399C383.611 418.983 383.472 417.552 383.437 416.116C383.437 415.384 383.437 414.627 383.437 413.871L383.583 411.553C384.181 405.305 386.365 398.729 388.464 391.822C388.72 390.956 388.976 390.09 389.22 389.236V402.658C388.437 404.374 387.788 406.148 387.28 407.965Z" fill="#455A64"/>
<path d="M383.888 394.787C384.23 393.038 384.069 391.227 383.424 389.565C383.067 388.85 382.478 388.278 381.753 387.942C381.505 387.827 381.248 387.733 380.984 387.662V387.869C381.46 387.995 381.903 388.219 382.286 388.528C382.669 388.838 382.982 389.224 383.205 389.663C383.815 391.291 383.967 393.055 383.644 394.763C383.307 397.923 382.54 401.023 381.362 403.975L380.972 404.939V405.305C381.155 404.927 381.338 404.512 381.533 404.085C382.773 401.119 383.566 397.986 383.888 394.787Z" fill="#455A64"/>
<path d="M98.1741 376.168C99.8429 374.259 100.8 371.832 100.883 369.298C100.944 366.431 99.4919 363.527 98.1253 360.55C96.7819 357.718 96.0977 354.618 96.1242 351.484C96.173 348.939 96.4962 346.406 97.0882 343.931C97.4176 342.564 97.7227 341.393 98.0033 340.405H94.416V378.986C95.8574 378.329 97.1394 377.367 98.1741 376.168Z" fill="#263238"/>
<path d="M99.102 427.732C98.2194 425.295 97.5419 422.789 97.0765 420.24C96.8323 418.816 96.6896 417.377 96.6494 415.933C96.6494 415.189 96.6494 414.432 96.6494 413.663C96.6494 412.895 96.747 412.126 96.7958 411.345C97.3815 405.061 99.5656 398.46 101.677 391.554C102.03 390.334 102.36 389.223 102.677 388.052V362.721C101.921 360.11 101.176 357.67 100.664 355.4C99.7025 351.759 99.499 347.959 100.066 344.236C100.247 343.232 100.52 342.248 100.883 341.295C101.079 340.832 101.213 340.539 101.274 340.405H98.138C97.8818 341.405 97.5767 342.589 97.2839 343.967C96.7174 346.434 96.4107 348.953 96.3688 351.484C96.355 354.581 97.039 357.642 98.3699 360.44C99.7242 363.417 101.201 366.357 101.127 369.31C101.037 371.893 100.044 374.363 98.321 376.29C97.2529 377.511 95.9222 378.474 94.4287 379.108V387.466C94.6924 387.538 94.9495 387.632 95.1974 387.747C95.9212 388.08 96.5075 388.654 96.8568 389.37C97.5119 391.029 97.6771 392.842 97.3327 394.592C97.0115 397.778 96.2221 400.898 94.99 403.853C94.7948 404.317 94.6117 404.732 94.4287 405.073V436.468H102.787C101.725 434.248 100.395 431.319 99.102 427.732Z" fill="#263238"/>
<path d="M102.908 436.505H104.995V436.127H102.737C102.787 436.256 102.844 436.382 102.908 436.505Z" fill="#455A64"/>
<path d="M101.871 423.498C102.108 424.024 102.373 424.537 102.664 425.036V403.073C101.98 404.657 101.41 406.288 100.956 407.953C99.518 413.092 99.8401 418.564 101.871 423.498Z" fill="#263238"/>
<path d="M100.151 344.26C99.6276 347.969 99.8558 351.745 100.822 355.364C101.298 357.426 101.969 359.622 102.664 361.977V340.405H101.273C101.273 340.551 101.102 340.844 100.919 341.307C100.583 342.269 100.326 343.257 100.151 344.26Z" fill="#263238"/>
<path d="M97.0638 394.568C97.3962 392.861 97.2483 391.096 96.6367 389.468C96.4139 389.029 96.1009 388.643 95.7182 388.333C95.3354 388.024 94.8917 387.8 94.416 387.674V404.756C94.538 404.451 94.6722 404.146 94.8065 403.792C95.9818 400.837 96.7415 397.732 97.0638 394.568Z" fill="#455A64"/>
<path d="M101.945 391.627C99.822 398.533 97.6379 405.122 97.0644 411.37L96.918 413.676C96.918 414.432 96.918 415.189 96.918 415.921C96.9474 417.357 97.0861 418.789 97.3328 420.204C97.7917 422.745 98.4527 425.247 99.3095 427.683C100.53 431.002 101.75 433.784 102.714 435.968V425.304C102.364 424.736 102.047 424.15 101.762 423.547C99.6363 418.557 99.2832 412.989 100.761 407.77C101.273 405.937 101.926 404.146 102.714 402.414V388.992C102.421 389.895 102.165 390.761 101.945 391.627Z" fill="#263238"/>
<path d="M101.115 369.31C101.188 366.357 99.7115 363.417 98.3571 360.44C97.0263 357.642 96.3423 354.581 96.3561 351.484C96.398 348.953 96.7047 346.434 97.2712 343.967C97.564 342.589 97.8691 341.405 98.1253 340.405H98.0033C97.7227 341.393 97.4176 342.564 97.0882 343.931C96.4962 346.406 96.173 348.939 96.1242 351.484C96.0977 354.618 96.7819 357.718 98.1253 360.55C99.4919 363.527 100.944 366.431 100.883 369.298C100.807 371.353 100.162 373.347 99.0201 375.057C97.8784 376.767 96.2846 378.128 94.416 378.986V379.108C95.9095 378.474 97.2402 377.511 98.3084 376.29C100.031 374.363 101.024 371.893 101.115 369.31Z" fill="#455A64"/>
<path d="M100.053 344.187C99.4865 347.91 99.69 351.71 100.651 355.352C101.164 357.621 101.871 360.061 102.665 362.673V388.113C102.347 389.333 102.018 390.444 101.664 391.615C99.5409 398.521 97.3568 405.122 96.7834 411.406C96.7834 412.187 96.6857 412.968 96.6369 413.724C96.5881 414.481 96.6369 415.25 96.6369 415.994C96.6771 417.438 96.8198 418.877 97.064 420.301C97.5294 422.85 98.2069 425.356 99.0895 427.793C100.383 431.38 101.713 434.309 102.75 436.566H102.884C102.82 436.443 102.763 436.317 102.713 436.188H104.971V340.405H102.64V361.977C101.945 359.622 101.274 357.426 100.798 355.364C99.8318 351.745 99.6035 347.969 100.127 344.26C100.302 343.257 100.559 342.269 100.895 341.307C101.078 340.844 101.2 340.551 101.249 340.405C101.188 340.539 101.054 340.832 100.859 341.295C100.503 342.233 100.233 343.201 100.053 344.187ZM102.665 424.95C102.373 424.452 102.108 423.939 101.871 423.412C99.8212 418.453 99.4989 412.947 100.956 407.782C101.41 406.117 101.981 404.486 102.665 402.901V424.95ZM100.724 407.77C99.2462 412.989 99.5993 418.556 101.725 423.547C102.01 424.15 102.327 424.736 102.677 425.304V435.968C101.688 433.772 100.456 431.002 99.2725 427.683C98.4157 425.246 97.7547 422.745 97.2958 420.203C97.0491 418.788 96.9104 417.357 96.881 415.921C96.881 415.189 96.881 414.432 96.881 413.676L97.0274 411.369C97.6253 405.122 99.8094 398.533 101.908 391.627C102.164 390.761 102.421 389.895 102.665 389.04V402.462C101.883 404.179 101.234 405.954 100.724 407.77Z" fill="#455A64"/>
<path d="M97.32 394.592C97.6644 392.842 97.4992 391.029 96.8442 389.37C96.4948 388.654 95.9085 388.08 95.1847 387.747C94.9368 387.632 94.6797 387.538 94.416 387.467V387.674C94.8917 387.8 95.3354 388.024 95.7182 388.333C96.1009 388.642 96.4139 389.029 96.6367 389.468C97.2483 391.095 97.3962 392.861 97.0638 394.568C96.7404 397.728 95.9807 400.828 94.8065 403.78C94.6722 404.134 94.538 404.439 94.416 404.744V405.11C94.599 404.732 94.7821 404.317 94.9773 403.89C96.2128 400.923 97.0023 397.79 97.32 394.592Z" fill="#455A64"/>
<path d="M306.688 250.014C310.996 247.666 315.55 245.8 320.268 244.45C325.423 243.268 330.761 243.123 335.972 244.023C341.153 244.93 346.282 246.12 351.334 247.586C356.034 248.928 360.809 249.995 365.634 250.783C373.824 252.071 382.138 252.394 390.403 251.747L391.623 251.637V240.656H307.688C305.756 241.278 303.777 241.744 301.77 242.047C297.805 242.73 292.997 242.998 287.812 244.121C282.626 245.244 277.086 247.086 271.217 248.892C265.733 250.711 260.059 251.898 254.306 252.43C249.584 252.826 244.832 252.202 240.372 250.6C237.377 249.527 234.627 247.868 232.282 245.719C231.913 245.38 231.563 245.022 231.233 244.646C230.982 244.382 230.746 244.105 230.525 243.816C230.159 243.352 229.976 243.096 229.976 243.096L230.561 243.779C230.744 244.011 230.988 244.28 231.294 244.597C231.625 244.965 231.975 245.315 232.343 245.646C234.693 247.789 237.442 249.447 240.433 250.527C244.875 252.094 249.6 252.697 254.294 252.296C260.026 251.75 265.679 250.559 271.144 248.745C277.001 246.952 282.553 245.085 287.763 243.987C292.973 242.889 297.78 242.632 301.734 241.974C303.595 241.698 305.434 241.29 307.237 240.753H267.886L266.666 241.205C264.591 241.909 262.466 242.456 260.309 242.84C258.151 243.193 255.968 243.376 253.781 243.389C251.993 243.395 250.207 243.273 248.437 243.023C246.805 242.814 245.193 242.471 243.617 241.998H243.959L244.911 242.205C245.74 242.401 246.948 242.608 248.461 242.803C250.222 243.017 251.995 243.119 253.769 243.108C255.948 243.075 258.121 242.884 260.273 242.535C262.412 242.153 264.52 241.615 266.581 240.924L267.203 240.705H205.097L202.546 241.302L188.466 244.56C183.158 245.78 177.35 247.208 171.151 248.221C165.334 249.312 159.408 249.722 153.496 249.441C148.665 249.152 143.909 248.107 139.403 246.342C136.369 245.127 133.526 243.483 130.959 241.461L129.971 240.631H91.4502V257.384H235.527C234.686 256.994 233.6 256.518 232.257 255.993C227.332 254.015 222.234 252.496 217.03 251.454C209.308 249.868 201.409 249.318 193.542 249.819C188.898 250.134 184.288 250.819 179.754 251.869C175.032 252.906 170.175 254.224 165.112 254.858C160.122 255.454 155.067 255.194 150.165 254.09C145.406 253.126 140.916 251.796 136.584 250.795C128.91 248.992 121.053 248.079 113.169 248.074C107.859 248.08 102.556 248.488 97.307 249.295C95.4523 249.6 94.0126 249.844 93.0486 250.051L91.56 250.332C91.56 250.332 93.5855 249.819 97.2948 249.197C110.38 247.094 123.75 247.558 136.657 250.563C140.989 251.564 145.479 252.894 150.226 253.846C155.1 254.945 160.127 255.201 165.087 254.602C170.188 253.98 175.032 252.662 179.729 251.625C192.008 248.782 204.762 248.665 217.091 251.283C222.302 252.366 227.4 253.934 232.318 255.969C233.722 256.542 234.844 257.055 235.698 257.457H287.97C290.225 256.94 292.449 256.296 294.632 255.53C298.773 253.97 302.801 252.128 306.688 250.014Z" fill="#263238"/>
<path d="M322.977 254.847C321.306 255.376 319.691 256.071 318.158 256.921C317.804 257.104 317.536 257.275 317.304 257.421H351.969C348.144 255.91 344.185 254.762 340.145 253.992C334.437 252.889 328.548 253.182 322.977 254.847Z" fill="#263238"/>
<path d="M139.476 246.159C143.971 247.895 148.709 248.92 153.52 249.197C159.408 249.471 165.308 249.061 171.103 247.977C177.289 246.928 183.097 245.537 188.405 244.316L202.497 241.107L204.377 240.68H130.093L131.02 241.437C133.604 243.398 136.451 244.987 139.476 246.159Z" fill="#263238"/>
<path d="M390.416 251.931C382.14 252.602 373.814 252.295 365.61 251.015C360.773 250.223 355.985 249.147 351.273 247.794C346.229 246.33 341.109 245.141 335.936 244.231C330.758 243.332 325.453 243.474 320.33 244.646C315.631 246.015 311.094 247.888 306.798 250.234C302.89 252.333 298.842 254.159 294.682 255.701C292.693 256.396 290.741 256.921 288.85 257.433H317.182L318.109 256.848C319.632 255.954 321.248 255.23 322.929 254.688C328.516 252.965 334.441 252.642 340.182 253.749C344.422 254.555 348.57 255.781 352.567 257.409H391.685V251.796L390.416 251.931Z" fill="#263238"/>
<path d="M217.067 251.247C204.738 248.629 191.985 248.746 179.705 251.589C174.971 252.626 170.127 253.944 165.063 254.566C160.103 255.165 155.076 254.909 150.202 253.809C145.455 252.858 140.965 251.528 136.633 250.527C123.726 247.522 110.356 247.058 97.2709 249.161C93.6104 249.783 91.5361 250.295 91.5361 250.295L93.0247 250.015C93.9887 249.807 95.4651 249.563 97.2831 249.258C102.532 248.451 107.835 248.043 113.145 248.038C121.029 248.043 128.886 248.956 136.56 250.759C140.892 251.76 145.382 253.09 150.141 254.054C155.043 255.158 160.098 255.418 165.088 254.822C170.2 254.188 175.057 252.87 179.73 251.833C184.264 250.783 188.874 250.097 193.518 249.783C201.395 249.291 209.302 249.853 217.03 251.455C222.237 252.52 227.335 254.064 232.258 256.067C233.6 256.591 234.698 257.067 235.528 257.458H235.674C234.82 257.055 233.698 256.543 232.295 255.969C227.378 253.922 222.279 252.341 217.067 251.247Z" fill="#455A64"/>
<path d="M139.404 246.33C143.91 248.095 148.666 249.141 153.497 249.429C159.41 249.71 165.335 249.3 171.153 248.209C177.351 247.147 183.159 245.707 188.467 244.548L202.548 241.291L205.098 240.693H204.439L202.56 241.12L188.467 244.329C183.159 245.549 177.351 246.952 171.165 247.989C165.371 249.074 159.471 249.483 153.582 249.209C148.772 248.933 144.033 247.908 139.538 246.171C136.512 244.996 133.666 243.402 131.083 241.437L130.155 240.68H130.009L130.997 241.51C133.556 243.508 136.387 245.131 139.404 246.33Z" fill="#455A64"/>
<path d="M322.929 254.676C321.248 255.217 319.632 255.942 318.109 256.835L317.182 257.421H317.304C317.535 257.275 317.804 257.104 318.158 256.921C319.691 256.071 321.306 255.376 322.977 254.847C328.547 253.182 334.437 252.889 340.145 253.992C344.185 254.762 348.144 255.91 351.969 257.421H352.566C348.57 255.793 344.421 254.567 340.182 253.761C334.443 252.646 328.518 252.96 322.929 254.676Z" fill="#455A64"/>
<path d="M287.764 243.902C282.554 245 277.002 246.867 271.145 248.661C265.68 250.474 260.027 251.665 254.294 252.211C249.601 252.612 244.876 252.009 240.433 250.442C237.442 249.362 234.694 247.704 232.344 245.561C231.976 245.23 231.625 244.88 231.294 244.512C230.989 244.195 230.745 243.926 230.562 243.694L229.977 243.011C229.977 243.011 230.16 243.267 230.526 243.731C230.747 244.02 230.983 244.297 231.233 244.561C231.564 244.937 231.914 245.296 232.283 245.635C234.628 247.783 237.378 249.442 240.372 250.515C244.832 252.117 249.584 252.741 254.307 252.345C260.06 251.814 265.734 250.626 271.218 248.807C277.087 247.001 282.627 245.146 287.812 244.036C292.998 242.926 297.806 242.645 301.771 241.962C303.778 241.659 305.757 241.194 307.689 240.571H307.238C305.434 241.107 303.595 241.515 301.735 241.791C297.781 242.547 292.986 242.792 287.764 243.902Z" fill="#455A64"/>
<path d="M260.286 242.498C258.135 242.847 255.962 243.039 253.783 243.072C252.009 243.083 250.236 242.981 248.475 242.767C246.962 242.572 245.754 242.364 244.924 242.169L243.973 241.962H243.631C245.207 242.435 246.819 242.777 248.451 242.987C250.221 243.236 252.007 243.359 253.795 243.353C255.982 243.34 258.164 243.156 260.323 242.804C262.48 242.42 264.605 241.873 266.68 241.168L267.9 240.717H267.253L266.631 240.937C264.557 241.612 262.437 242.134 260.286 242.498Z" fill="#455A64"/>
<path d="M407.095 240.668H391.684V251.649L390.464 251.759C382.198 252.406 373.885 252.083 365.695 250.795C360.87 250.008 356.095 248.94 351.395 247.599C346.343 246.132 341.214 244.942 336.033 244.036C330.822 243.135 325.483 243.28 320.329 244.463C315.611 245.812 311.057 247.678 306.749 250.027C302.853 252.128 298.817 253.959 294.669 255.505C292.486 256.272 290.262 256.915 288.007 257.433H288.91C290.801 256.969 292.753 256.396 294.742 255.7C298.902 254.159 302.95 252.332 306.858 250.234C311.144 247.903 315.668 246.042 320.353 244.682C325.476 243.51 330.781 243.369 335.959 244.267C341.124 245.166 346.236 246.343 351.272 247.794C355.985 249.134 360.772 250.198 365.609 250.978C373.813 252.258 382.14 252.565 390.415 251.893L391.636 251.771V257.384H407.046L407.095 240.668Z" fill="#455A64"/>
<path d="M322.977 311.67C321.306 312.199 319.691 312.894 318.158 313.744C317.804 313.927 317.536 314.098 317.304 314.244H351.969C348.144 312.734 344.185 311.586 340.145 310.816C334.437 309.712 328.548 310.005 322.977 311.67Z" fill="#263238"/>
<path d="M306.688 306.838C310.998 304.49 315.552 302.62 320.268 301.262C325.424 300.089 330.761 299.948 335.972 300.847C341.153 301.753 346.282 302.943 351.334 304.41C356.036 305.737 360.811 306.796 365.634 307.582C373.824 308.869 382.138 309.193 390.403 308.546L391.623 308.436V297.455H307.688C305.756 298.077 303.777 298.542 301.77 298.846C297.805 299.529 292.997 299.797 287.812 300.92C282.626 302.042 277.086 303.885 271.217 305.691C265.733 307.51 260.059 308.697 254.306 309.229C249.584 309.625 244.832 309 240.372 307.399C237.37 306.313 234.618 304.632 232.282 302.457C231.93 302.151 231.596 301.826 231.281 301.481C231.031 301.217 230.795 300.94 230.574 300.651C230.208 300.188 230.025 299.932 230.025 299.932L230.61 300.615C230.793 300.847 231.037 301.115 231.342 301.432C231.671 301.799 232.021 302.145 232.392 302.469C234.738 304.616 237.488 306.275 240.481 307.35C244.924 308.917 249.649 309.52 254.342 309.119C260.075 308.573 265.728 307.382 271.193 305.569C277.05 303.775 282.602 301.908 287.812 300.81C293.022 299.712 297.829 299.456 301.783 298.797C303.643 298.521 305.482 298.113 307.286 297.577H267.886L266.666 298.028C264.591 298.733 262.466 299.279 260.309 299.663C258.151 300.016 255.968 300.2 253.781 300.212C251.993 300.218 250.207 300.096 248.437 299.846C246.805 299.637 245.193 299.294 243.617 298.821H243.959L244.911 299.029C245.74 299.224 246.948 299.431 248.461 299.626C250.222 299.84 251.995 299.942 253.769 299.932C255.948 299.899 258.121 299.707 260.273 299.358C262.412 298.976 264.52 298.438 266.581 297.747L267.203 297.528H205.084L202.546 298.126L188.466 301.384C183.158 302.604 177.35 304.031 171.151 305.044C165.334 306.136 159.408 306.545 153.496 306.264C148.665 305.976 143.909 304.93 139.403 303.165C136.369 301.95 133.526 300.307 130.959 298.284L129.971 297.455H91.4502V314.207H235.527C234.686 313.817 233.6 313.341 232.257 312.816C227.334 310.814 222.237 309.27 217.03 308.204C209.308 306.618 201.409 306.068 193.542 306.569C188.898 306.884 184.288 307.569 179.754 308.619C175.032 309.656 170.175 310.974 165.112 311.596C160.123 312.201 155.067 311.945 150.165 310.84C145.406 309.876 140.916 308.546 136.584 307.545C128.91 305.742 121.053 304.829 113.169 304.824C107.859 304.83 102.556 305.238 97.307 306.045C95.4523 306.35 94.0126 306.594 93.0486 306.801L91.56 307.082C91.56 307.082 93.5855 306.569 97.2948 305.947C102.541 305.104 107.844 304.667 113.157 304.641C121.06 304.617 128.938 305.513 136.633 307.314C140.965 308.314 145.455 309.644 150.201 310.596C155.075 311.695 160.102 311.951 165.063 311.352C170.163 310.73 175.007 309.412 179.705 308.375C184.247 307.331 188.866 306.658 193.517 306.362C201.407 305.871 209.328 306.442 217.066 308.058C222.278 309.14 227.376 310.709 232.294 312.743C233.697 313.317 234.82 313.817 235.674 314.232H287.946C290.201 313.714 292.425 313.071 294.608 312.304C298.755 310.762 302.791 308.935 306.688 306.838Z" fill="#263238"/>
<path d="M390.416 308.802C382.14 309.474 373.814 309.167 365.61 307.887C360.773 307.107 355.986 306.043 351.273 304.703C346.229 303.239 341.109 302.049 335.936 301.14C330.771 300.22 325.474 300.336 320.354 301.481C315.657 302.834 311.12 304.692 306.823 307.021C302.922 309.11 298.881 310.928 294.731 312.463C292.742 313.158 290.79 313.683 288.898 314.196H317.182L318.109 313.61C319.632 312.716 321.248 311.992 322.929 311.45C328.516 309.727 334.441 309.404 340.182 310.511C344.422 311.317 348.57 312.543 352.567 314.171H391.685V308.558L390.416 308.802Z" fill="#263238"/>
<path d="M139.476 302.982C143.971 304.719 148.709 305.744 153.52 306.02C159.408 306.294 165.308 305.885 171.103 304.8C177.289 303.751 183.097 302.36 188.405 301.14L202.497 297.919L204.377 297.504H130.093L131.02 298.26C133.607 300.217 136.453 301.806 139.476 302.982Z" fill="#263238"/>
<path d="M217.067 308.07C209.328 306.454 201.408 305.884 193.518 306.374C188.866 306.678 184.247 307.36 179.705 308.412C174.971 309.449 170.127 310.767 165.063 311.389C160.103 311.988 155.076 311.732 150.202 310.633C145.455 309.681 140.965 308.351 136.634 307.35C128.939 305.55 121.06 304.653 113.158 304.678C107.844 304.704 102.541 305.141 97.2953 305.984C93.6348 306.606 91.5605 307.119 91.5605 307.119L93.0492 306.838C94.0131 306.631 95.4895 306.386 97.3075 306.081C102.556 305.275 107.859 304.867 113.17 304.861C121.037 304.87 128.877 305.783 136.536 307.582C140.868 308.583 145.358 309.913 150.116 310.877C155.019 311.982 160.074 312.238 165.063 311.633C170.176 311.011 175.032 309.693 179.705 308.656C184.239 307.606 188.85 306.921 193.493 306.606C201.361 306.105 209.26 306.654 216.982 308.241C222.189 309.307 227.286 310.851 232.209 312.853C233.551 313.378 234.65 313.854 235.479 314.244H235.626C234.772 313.829 233.649 313.329 232.246 312.756C227.343 310.724 222.262 309.155 217.067 308.07Z" fill="#455A64"/>
<path d="M139.404 303.153C143.91 304.918 148.666 305.964 153.497 306.252C159.41 306.533 165.335 306.124 171.153 305.032C177.351 303.971 183.159 302.531 188.467 301.372L202.548 298.114L205.086 297.516H204.439L202.56 297.931L188.467 301.152C183.159 302.372 177.351 303.775 171.165 304.812C165.371 305.897 159.471 306.306 153.582 306.033C148.772 305.756 144.033 304.731 139.538 302.994C136.515 301.814 133.669 300.221 131.083 298.26L130.155 297.504H130.009L130.997 298.333C133.556 300.331 136.387 301.954 139.404 303.153Z" fill="#455A64"/>
<path d="M322.929 311.499C321.248 312.041 319.632 312.765 318.109 313.659L317.182 314.244H317.304C317.535 314.098 317.804 313.927 318.158 313.744C319.691 312.894 321.306 312.199 322.977 311.67C328.547 310.005 334.437 309.712 340.145 310.816C344.185 311.586 348.144 312.734 351.969 314.244H352.566C348.57 312.616 344.421 311.39 340.182 310.584C334.443 309.469 328.518 309.784 322.929 311.499Z" fill="#455A64"/>
<path d="M287.764 300.725C282.554 301.823 277.002 303.69 271.145 305.483C265.68 307.297 260.027 308.488 254.294 309.034C249.601 309.435 244.876 308.831 240.433 307.265C237.44 306.19 234.69 304.531 232.344 302.384C231.973 302.06 231.623 301.714 231.294 301.347C230.989 301.03 230.745 300.761 230.562 300.529L229.977 299.846C229.977 299.846 230.16 300.102 230.526 300.566C230.747 300.855 230.983 301.132 231.233 301.396C231.561 301.771 231.911 302.125 232.283 302.457C234.619 304.632 237.371 306.313 240.372 307.399C244.832 309 249.584 309.625 254.307 309.229C260.06 308.697 265.734 307.51 271.218 305.691C277.087 303.885 282.627 302.03 287.812 300.92C292.998 299.81 297.806 299.529 301.771 298.846C303.778 298.542 305.757 298.077 307.689 297.455H307.238C305.434 297.991 303.595 298.399 301.735 298.675C297.781 299.37 292.986 299.602 287.764 300.725Z" fill="#455A64"/>
<path d="M260.286 299.322C258.135 299.671 255.962 299.862 253.783 299.895C252.009 299.906 250.236 299.804 248.475 299.59C246.962 299.395 245.754 299.187 244.924 298.992L243.973 298.785H243.631C245.207 299.258 246.819 299.601 248.451 299.81C250.221 300.059 252.007 300.182 253.795 300.176C255.982 300.163 258.164 299.98 260.323 299.627C262.477 299.226 264.598 298.663 266.668 297.943L267.888 297.491H267.241L266.619 297.711C264.55 298.403 262.434 298.941 260.286 299.322Z" fill="#455A64"/>
<path d="M407.095 297.491H391.684V308.473L390.464 308.583C382.198 309.23 373.885 308.906 365.695 307.619C360.871 306.825 356.097 305.758 351.395 304.422C346.343 302.955 341.214 301.766 336.033 300.859C330.822 299.961 325.485 300.102 320.329 301.274C315.613 302.633 311.059 304.502 306.749 306.85C302.853 308.952 298.817 310.782 294.669 312.329C292.486 313.095 290.262 313.739 288.007 314.257H288.91C290.801 313.793 292.753 313.219 294.742 312.524C298.902 310.982 302.95 309.156 306.858 307.058C311.143 304.718 315.667 302.849 320.353 301.481C325.476 300.309 330.781 300.168 335.959 301.067C341.133 301.976 346.253 303.165 351.297 304.629C356.01 305.97 360.797 307.033 365.634 307.814C373.838 309.093 382.164 309.4 390.44 308.729L391.66 308.607V314.22H407.071L407.095 297.491Z" fill="#455A64"/>
<path d="M175.569 271.453C177.241 270.924 178.855 270.229 180.389 269.379C180.743 269.196 181.011 269.025 181.243 268.878H146.578C150.407 270.391 154.37 271.539 158.414 272.307C164.117 273.411 170.004 273.118 175.569 271.453Z" fill="#263238"/>
<path d="M359.07 280.14C354.579 278.405 349.845 277.38 345.038 277.102C339.146 276.834 333.242 277.243 327.443 278.322C321.257 279.384 315.449 280.763 310.141 281.983L296.048 285.192L294.182 285.619H368.453L367.526 284.863C364.942 282.902 362.095 281.312 359.07 280.14Z" fill="#263238"/>
<path d="M281.517 274.882C289.243 276.468 297.146 277.018 305.017 276.517C309.656 276.201 314.263 275.516 318.793 274.467C323.515 273.43 328.371 272.112 333.435 271.477C338.434 270.868 343.501 271.112 348.419 272.197C353.165 273.173 357.655 274.491 361.987 275.504C369.667 277.333 377.532 278.27 385.426 278.298C387.671 278.298 389.746 278.213 391.686 278.103V268.915H263.007C263.849 269.305 264.947 269.781 266.277 270.306C271.206 272.296 276.307 273.827 281.517 274.882Z" fill="#263238"/>
<path d="M108.13 274.369C116.41 273.698 124.74 274.005 132.948 275.284C137.785 276.066 142.572 277.13 147.285 278.469C152.325 279.933 157.441 281.122 162.61 282.032C167.789 282.918 173.092 282.777 178.216 281.617C182.916 280.265 187.453 278.403 191.748 276.065C195.659 273.976 199.707 272.153 203.864 270.611C205.778 269.935 207.724 269.357 209.697 268.878H181.364C181.12 269.037 180.827 269.232 180.437 269.464C178.915 270.351 177.303 271.075 175.63 271.624C170.038 273.347 164.109 273.67 158.364 272.563C154.125 271.756 149.977 270.529 145.979 268.903H91.4502V277.078H91.5966C97.0258 275.732 102.555 274.826 108.13 274.369Z" fill="#263238"/>
<path d="M385.425 278.432C377.527 278.462 369.652 277.569 361.961 275.772C357.617 274.76 353.127 273.442 348.393 272.478C343.513 271.389 338.483 271.137 333.519 271.734C328.431 272.356 323.575 273.674 318.877 274.711C306.594 277.553 293.837 277.67 281.503 275.052C276.292 273.97 271.194 272.402 266.276 270.367C264.873 269.794 263.75 269.281 262.908 268.878H210.612C208.352 269.394 206.124 270.038 203.937 270.806C199.792 272.357 195.756 274.188 191.858 276.285C187.547 278.629 182.993 280.494 178.277 281.849C173.123 283.031 167.785 283.177 162.574 282.276C157.392 281.369 152.264 280.18 147.212 278.713C142.511 277.37 137.736 276.303 132.911 275.516C119.172 273.373 105.147 273.903 91.6088 277.078H91.4502V285.619H190.857C192.793 284.997 194.776 284.532 196.787 284.228C200.753 283.545 205.548 283.276 210.734 282.154C215.919 281.031 221.471 279.189 227.328 277.383C232.813 275.566 238.486 274.379 244.239 273.845C248.962 273.448 253.714 274.073 258.174 275.675C261.173 276.745 263.928 278.404 266.276 280.555C266.678 280.946 267.032 281.3 267.313 281.629C267.569 281.891 267.81 282.168 268.033 282.459C268.399 282.923 268.582 283.179 268.582 283.179L267.996 282.495C267.813 282.264 267.557 281.983 267.264 281.678C266.971 281.373 266.617 281.007 266.202 280.629C263.856 278.482 261.106 276.823 258.113 275.748C253.675 274.181 248.953 273.578 244.264 273.979C238.527 274.524 232.87 275.715 227.401 277.529C221.544 279.323 215.993 281.19 210.783 282.288C205.572 283.386 200.777 283.752 196.812 284.399C194.955 284.675 193.12 285.083 191.321 285.619H230.683L231.904 285.168C233.974 284.462 236.095 283.915 238.248 283.533C240.411 283.18 242.598 282.996 244.789 282.984C246.577 282.972 248.363 283.095 250.133 283.35C251.764 283.561 253.376 283.903 254.953 284.375C254.839 284.386 254.724 284.386 254.611 284.375L253.647 284.167C252.817 283.972 251.609 283.764 250.109 283.569C248.343 283.356 246.567 283.254 244.789 283.264C242.614 283.297 240.444 283.489 238.297 283.838C236.156 284.222 234.044 284.756 231.977 285.436L231.367 285.668H293.51L296.06 285.07L310.141 281.812C315.436 280.592 321.256 279.164 327.443 278.152C333.26 277.054 339.186 276.645 345.098 276.932C349.929 277.22 354.685 278.266 359.191 280.031C362.226 281.242 365.07 282.886 367.635 284.911C368.013 285.216 368.33 285.485 368.623 285.741H391.733V278.322C389.744 278.298 387.67 278.432 385.425 278.432Z" fill="#263238"/>
<path d="M359.144 279.97C354.637 278.205 349.882 277.159 345.051 276.871C339.138 276.584 333.212 276.993 327.395 278.091C321.209 279.152 315.388 280.592 310.093 281.751L296.012 285.009L293.511 285.619H294.231L296.097 285.192L310.142 281.959C315.449 280.739 321.257 279.335 327.444 278.298C333.242 277.219 339.146 276.81 345.038 277.078C349.845 277.356 354.579 278.381 359.07 280.116C362.096 281.292 364.942 282.885 367.526 284.851L368.453 285.607H368.575C368.283 285.351 367.965 285.082 367.587 284.777C365.018 282.778 362.174 281.159 359.144 279.97Z" fill="#455A64"/>
<path d="M108.154 274.552C116.416 273.905 124.725 274.229 132.911 275.516C137.736 276.303 142.511 277.37 147.212 278.713C152.264 280.18 157.392 281.369 162.574 282.276C167.785 283.177 173.123 283.031 178.277 281.849C182.993 280.494 187.547 278.629 191.858 276.285C195.756 274.188 199.792 272.357 203.937 270.806C206.124 270.038 208.352 269.394 210.612 268.878H209.697C207.724 269.357 205.778 269.935 203.864 270.611C199.707 272.153 195.659 273.976 191.748 276.065C187.453 278.403 182.916 280.265 178.216 281.617C173.092 282.777 167.789 282.918 162.61 282.032C157.441 281.122 152.325 279.933 147.285 278.469C142.572 277.13 137.785 276.066 132.948 275.284C124.74 274.005 116.41 273.698 108.13 274.369C102.555 274.826 97.0258 275.732 91.5966 277.078H91.4502V277.188H91.6088C97.0459 275.875 102.578 274.993 108.154 274.552Z" fill="#455A64"/>
<path d="M175.63 271.624C177.304 271.075 178.915 270.351 180.437 269.464C180.828 269.232 181.121 269.037 181.365 268.878H181.255C181.023 269.025 180.755 269.196 180.401 269.379C178.867 270.229 177.253 270.924 175.581 271.453C170.016 273.118 164.129 273.411 158.426 272.307C154.381 271.539 150.419 270.391 146.59 268.878H145.992C149.989 270.505 154.138 271.731 158.377 272.539C164.116 273.651 170.041 273.337 175.63 271.624Z" fill="#455A64"/>
<path d="M210.783 282.398C215.993 281.3 221.545 279.433 227.402 277.639C232.871 275.825 238.528 274.633 244.265 274.089C248.958 273.686 253.684 274.289 258.126 275.858C261.119 276.933 263.869 278.592 266.215 280.738C266.63 281.117 266.984 281.471 267.277 281.788C267.57 282.105 267.826 282.373 268.009 282.605L268.595 283.289C268.595 283.289 268.412 283.032 268.046 282.569C267.823 282.278 267.582 282.001 267.326 281.739C267.045 281.41 266.691 281.056 266.289 280.665C263.941 278.514 261.186 276.855 258.187 275.785C253.727 274.182 248.975 273.558 244.252 273.954C238.499 274.489 232.826 275.676 227.341 277.493C221.484 279.299 215.945 281.153 210.747 282.264C205.549 283.374 200.766 283.655 196.8 284.338C194.789 284.641 192.806 285.107 190.87 285.729H191.334C193.133 285.192 194.968 284.785 196.825 284.509C200.778 283.752 205.573 283.508 210.783 282.398Z" fill="#455A64"/>
<path d="M238.273 283.801C240.42 283.452 242.589 283.261 244.764 283.228C246.542 283.217 248.319 283.319 250.084 283.533C251.585 283.728 252.793 283.935 253.623 284.131L254.587 284.338C254.7 284.35 254.815 284.35 254.928 284.338C253.352 283.867 251.74 283.524 250.109 283.313C248.339 283.058 246.552 282.936 244.764 282.947C242.573 282.959 240.387 283.143 238.224 283.496C236.071 283.879 233.95 284.425 231.879 285.131L230.659 285.583H231.318L231.928 285.351C234.004 284.686 236.124 284.168 238.273 283.801Z" fill="#455A64"/>
<path d="M391.686 268.878V278.066C389.746 278.176 387.672 278.262 385.427 278.262C377.543 278.256 369.686 277.343 362.012 275.541C357.68 274.528 353.19 273.21 348.443 272.234C343.539 271.14 338.486 270.885 333.496 271.477C328.372 272.112 323.515 273.43 318.854 274.467C314.324 275.516 309.718 276.201 305.079 276.517C297.207 277.018 289.304 276.468 281.578 274.882C276.372 273.815 271.274 272.271 266.351 270.269C265.021 269.745 263.91 269.269 263.08 268.878H262.946C263.788 269.281 264.911 269.794 266.314 270.367C271.232 272.402 276.33 273.97 281.542 275.052C293.875 277.67 306.632 277.553 318.915 274.711C323.637 273.674 328.494 272.356 333.557 271.734C338.522 271.137 343.551 271.389 348.431 272.478C353.165 273.442 357.656 274.76 361.999 275.772C369.691 277.569 377.565 278.462 385.463 278.432C387.708 278.432 389.783 278.347 391.723 278.213V285.619H407.133V268.878H391.686Z" fill="#455A64"/>
<path d="M254.551 155.269C252.843 153.594 250.778 152.328 248.512 151.565C246.245 150.801 243.835 150.56 241.462 150.859C239.09 151.158 236.815 151.99 234.809 153.293C232.803 154.595 231.118 156.334 229.879 158.38C228.268 161.064 227.439 164.164 226.218 167.043C224.998 169.923 223.034 172.754 220.118 173.84C217.201 174.926 214.188 174.169 211.223 174.584C208.99 174.931 206.902 175.904 205.2 177.389C203.498 178.875 202.252 180.813 201.608 182.979C201.071 184.882 201.01 186.944 200.082 188.677C198.24 192.106 193.799 193.094 191.004 195.79C189.53 197.342 188.548 199.294 188.181 201.402C187.814 203.511 188.079 205.68 188.942 207.638C189.859 209.57 191.2 211.269 192.865 212.611C194.529 213.952 196.475 214.901 198.557 215.386C202.755 216.317 207.138 215.921 211.101 214.252C215.664 212.433 219.764 209.371 224.583 208.431C228.451 207.675 232.441 208.358 236.334 209.017C240.226 209.676 244.24 210.31 248.096 209.444C251.952 208.578 255.637 205.784 256.454 201.977" fill="#263238"/>
<path d="M245.546 194.204C245.546 194.204 238.225 194.204 225.328 198.048C213.358 201.708 206.025 192.923 200.107 191.678C195.267 190.879 190.371 190.471 185.465 190.458L184.916 203.599C184.916 203.599 195.507 203.966 202.133 208.261C208.758 212.555 218.983 212.751 223.693 211.396C228.403 210.042 237.883 204.161 246.437 205.613L245.546 194.204Z" fill="#FF725E"/>
<path opacity="0.2" d="M245.546 194.204C245.546 194.204 238.225 194.204 225.328 198.048C213.358 201.708 206.025 192.923 200.107 191.678C195.267 190.879 190.371 190.471 185.465 190.458L184.916 203.599C184.916 203.599 195.507 203.966 202.133 208.261C208.758 212.555 218.983 212.751 223.693 211.396C228.403 210.042 237.883 204.161 246.437 205.613L245.546 194.204Z" fill="black"/>
<path d="M185.403 195.327C182.678 196.014 179.798 195.725 177.265 194.509C178.627 194.596 179.984 194.758 181.328 194.997C182.691 195.031 184.052 195.141 185.403 195.327Z" fill="#FF725E"/>
<path d="M185.416 198.89C182.976 199.989 180.2 200.081 177.692 199.146C178.981 199.08 180.272 199.08 181.56 199.146C183.696 199.073 185.367 198.719 185.416 198.89Z" fill="#FF725E"/>
<path d="M186.246 201.94C185.126 202.79 183.818 203.354 182.432 203.586C181.046 203.818 179.625 203.709 178.29 203.27C178.29 203.087 180.132 203.331 182.329 202.953C184.525 202.575 186.136 201.769 186.246 201.94Z" fill="#FF725E"/>
<path d="M186.014 191.727C184.857 192.33 183.556 192.6 182.256 192.508C180.958 192.621 179.654 192.376 178.485 191.8C179.741 191.733 181 191.733 182.256 191.8C184.306 191.861 185.965 191.556 186.014 191.727Z" fill="#FF725E"/>
<path d="M219.848 219.596C219.848 219.596 212.088 250.771 209.66 249.441C196.458 242.218 183.365 228.882 178.473 223.635C178.29 222.927 178.094 222.134 177.911 221.195C177.702 220.15 177.669 219.078 177.814 218.022C177.931 216.702 178.231 215.404 178.704 214.166C179.254 213.08 178.229 211.885 177.265 212.385C176.301 212.885 174.727 215.85 174.556 219.767C174.385 223.684 170.798 218.754 169.456 216.973C168.113 215.191 163.721 209.908 162.854 209.896C161.634 209.896 161.341 211.275 162.72 213.019C164.099 214.764 167.869 220.34 166.918 220.963C165.966 221.585 159.279 212.507 159.279 212.507C159.279 212.507 158.157 210.311 157.034 211.067C154.997 212.421 162.818 221.597 163.587 222.451C164.123 223.049 163.111 223.83 162.574 223.159C162.037 222.488 156.095 213.886 154.033 215.252C152.446 216.302 160.402 222.866 160.67 225.343C160.939 227.82 155.119 219.743 153.63 220.804C153.081 221.207 152.727 221.573 156.717 225.685C160.078 228.868 163.609 231.866 167.296 234.665C177.863 246.476 216.944 284.472 224.937 264.108C234.442 239.863 232.977 224.196 232.977 224.196L219.848 219.596Z" fill="#E6BBAC"/>
<path d="M253.062 155.525L254.66 155.061C257.393 154.775 260.152 155.226 262.652 156.367C263.891 156.955 264.954 157.859 265.733 158.988C266.513 160.116 266.982 161.43 267.093 162.797C267.167 165.603 265.324 168.276 265.715 171.058C266.032 173.364 267.813 175.17 268.973 177.158C270.05 179.075 270.616 181.237 270.616 183.436C270.616 185.635 270.05 187.797 268.973 189.714C267.484 192.276 265.153 194.229 263.25 196.498C261.346 198.768 259.809 201.696 260.407 204.6L254.306 205.1L253.062 155.525Z" fill="#263238"/>
<path d="M193.884 182.418C193.689 182.392 193.493 182.392 193.298 182.418C193.031 182.492 192.787 182.631 192.587 182.823C192.387 183.015 192.237 183.252 192.151 183.516C192.025 183.929 192.054 184.375 192.234 184.769C192.414 185.162 192.732 185.476 193.127 185.651C193.652 185.914 194.225 186.067 194.81 186.098C195.396 186.13 195.982 186.04 196.532 185.834C197.886 185.362 199.079 184.515 199.973 183.394C201.03 182.087 201.904 180.642 202.571 179.099C203.298 177.345 204.154 175.649 205.134 174.023C206.205 172.199 207.892 170.818 209.892 170.131C211.903 169.759 213.953 169.64 215.993 169.777C217.826 169.828 219.624 169.27 221.106 168.19C222.426 167.153 223.578 165.918 224.522 164.53C225.45 163.31 226.243 161.98 227.036 160.869C227.734 159.848 228.509 158.881 229.354 157.978C230.009 157.308 230.747 156.726 231.55 156.245L232.466 155.781C232.746 155.672 232.99 155.611 233.185 155.55C233.377 155.474 233.578 155.429 233.783 155.415C233.608 155.524 233.419 155.61 233.222 155.672C233.039 155.757 232.807 155.83 232.551 155.952L231.685 156.452C230.928 156.961 230.232 157.554 229.61 158.222C228.811 159.14 228.073 160.11 227.402 161.126C226.645 162.248 225.864 163.566 224.962 164.786C224.008 166.239 222.83 167.533 221.472 168.617C220.704 169.184 219.852 169.624 218.946 169.923C217.997 170.211 217.01 170.355 216.018 170.35C214.026 170.219 212.027 170.334 210.063 170.692C208.199 171.341 206.631 172.641 205.646 174.352C204.676 175.948 203.824 177.611 203.096 179.331C202.39 180.913 201.47 182.391 200.363 183.723C199.411 184.911 198.142 185.804 196.702 186.298C196.105 186.506 195.47 186.586 194.84 186.533C194.209 186.481 193.597 186.297 193.042 185.993C192.567 185.713 192.198 185.284 191.993 184.773C191.904 184.56 191.858 184.332 191.858 184.101C191.858 183.871 191.904 183.643 191.993 183.43C192.099 183.139 192.28 182.881 192.518 182.682C192.756 182.483 193.042 182.349 193.347 182.296C193.535 182.273 193.724 182.316 193.884 182.418Z" fill="#263238"/>
<path d="M262.311 197.56C262.757 197.242 263.235 196.972 263.738 196.755C264.665 196.254 266.032 195.534 267.606 194.57C269.459 193.435 271.051 191.922 272.279 190.129C273.023 189.057 273.518 187.833 273.729 186.545C273.94 185.258 273.862 183.939 273.499 182.686C272.572 180.05 270.364 178.257 268.619 176.585C266.878 175.134 265.58 173.223 264.873 171.07C264.668 170.329 264.616 169.554 264.721 168.792C264.826 168.031 265.085 167.299 265.483 166.641C265.71 166.294 265.99 165.986 266.313 165.726C266.557 165.567 266.679 165.494 266.691 165.518C266.314 165.888 265.979 166.297 265.69 166.738C265.03 168.037 264.89 169.538 265.3 170.936C266.052 172.971 267.338 174.766 269.021 176.134C269.924 176.988 270.913 177.854 271.84 178.879C272.845 179.926 273.619 181.174 274.11 182.54C274.568 183.926 274.636 185.412 274.305 186.835C274.014 188.144 273.475 189.387 272.719 190.495C271.445 192.338 269.778 193.876 267.838 194.997C266.554 195.759 265.221 196.436 263.848 197.023C263.355 197.254 262.84 197.433 262.311 197.56Z" fill="#455A64"/>
<path d="M235.468 158.905C235.394 158.844 236.383 157.685 237.518 155.513C238.178 154.212 238.937 152.964 239.787 151.779C240.868 150.28 242.425 149.192 244.204 148.692C245.989 148.193 247.891 148.331 249.585 149.083C250.945 149.715 252.097 150.722 252.904 151.987C253.443 152.83 253.812 153.771 253.99 154.756C254.053 155.116 254.053 155.483 253.99 155.842C253.712 154.561 253.203 153.342 252.489 152.243C251.693 151.093 250.596 150.185 249.317 149.62C247.735 148.96 245.978 148.848 244.326 149.302C242.676 149.77 241.226 150.769 240.202 152.145C239.35 153.291 238.572 154.489 237.871 155.733C237.277 156.932 236.462 158.009 235.468 158.905Z" fill="#263238"/>
<path d="M269.107 203.185C265.426 201.752 261.535 200.927 257.589 200.745H240.055C219.092 201.77 217.165 223.171 217.165 223.171L210.539 247.05C210.539 247.05 209.233 244.451 208.514 245.317C208.313 245.562 208.204 245.868 208.204 246.184C208.204 246.5 208.313 246.806 208.514 247.05L180.193 222.708L168.248 237.13C168.248 237.13 201.742 274.687 219.202 270.843C219.202 270.843 224.351 269.245 227.133 261.472C228.715 256.663 230.051 251.776 231.135 246.83L231.55 254.334L227.182 276.468L278.124 286.12L268.192 255.896L272.768 225.026L283.615 230.37C279.466 232.237 276.44 235.105 276.208 240.668H321.574C322.904 222.476 269.107 203.185 269.107 203.185Z" fill="#455A64"/>
<path d="M309.641 228.052C308.392 228.099 307.141 228.07 305.895 227.966C302.891 227.886 299.885 227.967 296.89 228.21C293.898 228.474 290.923 228.914 287.983 229.528C286.777 229.836 285.555 230.076 284.322 230.248C285.465 229.725 286.665 229.336 287.897 229.089C290.837 228.346 293.832 227.84 296.853 227.576C299.874 227.327 302.911 227.327 305.931 227.576C307.182 227.598 308.425 227.758 309.641 228.052Z" fill="#263238"/>
<path d="M233.076 247.696C232.256 247.067 231.571 246.278 231.063 245.378C229.688 243.274 228.823 240.877 228.537 238.38C228.252 235.883 228.552 233.353 229.416 230.992C229.719 230.002 230.208 229.079 230.856 228.271C230.953 228.271 230.392 229.357 229.843 231.139C229.126 233.455 228.898 235.895 229.173 238.304C229.448 240.713 230.22 243.039 231.441 245.134C232.369 246.757 233.15 247.635 233.076 247.696Z" fill="#263238"/>
<path d="M278.113 286.168C278.113 286.168 196.838 269.147 189.041 272.881C181.244 276.614 151.716 364.198 151.716 364.198L172.983 375.18L205.476 302.702C205.476 302.702 262.373 323.444 272.317 321.419C282.261 319.394 278.113 286.168 278.113 286.168Z" fill="#263238"/>
<path d="M241.787 290.951C240.567 291.366 193.53 310.694 190.223 316.904C186.916 323.115 199.435 426.341 200.68 426.219C201.925 426.097 221.789 426.219 221.789 426.219L220.129 334.548L272.316 321.321L241.787 290.951Z" fill="#263238"/>
<path d="M272.585 321.577C272.347 321.586 272.108 321.561 271.877 321.504L269.864 321.163L262.543 319.808C256.332 318.588 247.73 316.965 238.359 314.622C233.674 313.402 229.244 312.182 225.255 310.852C221.265 309.522 217.726 308.229 214.81 307.009C211.894 305.788 209.539 304.739 207.965 303.934L206.134 303.006C205.916 302.917 205.711 302.798 205.524 302.653C205.759 302.701 205.985 302.783 206.196 302.897L208.062 303.714C209.673 304.446 212.028 305.435 214.969 306.594C217.909 307.753 221.46 309.034 225.438 310.254C229.415 311.474 233.832 312.78 238.506 313.915C247.864 316.27 256.442 317.978 262.628 319.283L269.949 320.833L271.938 321.297C272.165 321.363 272.382 321.457 272.585 321.577Z" fill="#455A64"/>
<path d="M190.236 340.6C190.091 340.099 190.005 339.583 189.979 339.063C189.857 337.928 189.711 336.512 189.528 334.829C189.345 333.145 189.162 330.875 188.942 328.545C188.593 325.966 188.593 323.351 188.942 320.772C189.473 318.161 190.845 315.795 192.847 314.037C194.447 312.625 196.253 311.464 198.203 310.596C199.85 309.852 201.229 309.376 202.181 309.034C202.665 308.839 203.168 308.696 203.682 308.607C203.682 308.717 201.608 309.461 198.398 311.048C196.522 311.939 194.786 313.102 193.249 314.501C191.376 316.195 190.093 318.443 189.589 320.919C189.266 323.446 189.266 326.005 189.589 328.533C189.76 330.875 189.906 332.998 190.04 334.829C190.175 336.659 190.223 337.94 190.284 339.075C190.316 339.584 190.3 340.094 190.236 340.6Z" fill="#455A64"/>
<path d="M213.688 331.741C215.952 332.271 218.099 333.214 220.02 334.523C217.756 333.994 215.609 333.051 213.688 331.741Z" fill="#455A64"/>
<path d="M216.042 328.923C216.812 329.888 217.529 330.894 218.189 331.937C219.015 332.85 219.785 333.812 220.496 334.816C219.4 334.178 218.442 333.328 217.678 332.316C216.913 331.305 216.357 330.151 216.042 328.923Z" fill="#455A64"/>
<path d="M186.795 435.016C186.713 435.419 186.713 435.834 186.795 436.237C186.849 436.455 186.958 436.656 187.112 436.821C187.266 436.985 187.459 437.108 187.674 437.176C188.711 437.518 189.773 436.7 190.907 436.615C192.335 436.529 193.506 437.628 194.934 437.615C196.361 437.603 197.228 436.749 198.472 436.761C199.534 436.761 200.461 437.432 201.523 437.408C202.584 437.383 203.609 436.603 204.756 436.627C205.903 436.651 206.586 437.298 207.575 437.396C209.1 437.554 210.454 436.432 211.98 436.554C213.2 436.639 214.188 437.505 215.396 437.408C216.311 437.335 217.043 436.725 217.958 436.712C218.623 436.795 219.283 436.913 219.935 437.066C220.892 437.07 221.827 436.785 222.619 436.249V434.479L186.795 435.016Z" fill="#263238"/>
<path d="M192.603 383.928L200.765 430.148L222.558 433.906V382.037L192.603 383.928Z" fill="#FF725E"/>
<path d="M200.777 430.148L200.716 418.935L222.155 417.8L222.569 434.955L220.69 435.187C214.895 435.578 191.199 436.773 187.307 435.651C182.951 434.394 200.777 430.148 200.777 430.148Z" fill="#FF725E"/>
<path d="M222.461 422.278C222.461 422.278 222.217 422.546 221.595 422.693C220.721 422.868 219.817 422.814 218.971 422.534C217.898 422.229 216.751 421.57 215.433 421.143C213.988 420.706 212.44 420.758 211.028 421.29C209.491 421.778 208.087 422.51 206.745 423.059C205.547 423.584 204.258 423.874 202.95 423.913C202.06 423.929 201.18 423.723 200.388 423.315C199.839 423.01 199.607 422.742 199.632 422.717C200.65 423.25 201.79 423.507 202.938 423.462C204.177 423.368 205.388 423.049 206.513 422.522C207.921 421.835 209.363 421.22 210.833 420.68C212.371 420.112 214.056 420.078 215.616 420.582C217.007 421.082 218.056 421.802 219.105 422.107C219.881 422.41 220.717 422.527 221.546 422.449C222.132 422.412 222.437 422.278 222.461 422.278Z" fill="white"/>
<path d="M222.461 414.408C222.461 414.408 222.253 414.713 221.741 415.14C221.018 415.725 220.223 416.213 219.374 416.592C216.514 417.875 213.275 418.028 210.308 417.019C208.587 416.421 207.086 415.64 205.671 415.079C204.445 414.56 203.143 414.247 201.815 414.152C200.583 414.111 199.358 414.362 198.24 414.884C198.24 414.884 198.484 414.591 199.07 414.286C199.929 413.887 200.868 413.691 201.815 413.712C203.213 413.736 204.595 414.018 205.891 414.542C207.343 415.079 208.856 415.848 210.503 416.409C213.334 417.366 216.414 417.284 219.19 416.177C220.325 415.674 221.419 415.083 222.461 414.408Z" fill="white"/>
<path d="M222.533 408.149C221.358 407.625 220.058 407.451 218.787 407.648C217.412 407.915 216.061 408.294 214.748 408.783C213.957 409.054 213.139 409.242 212.308 409.344C211.383 409.419 210.453 409.378 209.538 409.222C207.684 408.942 206 408.405 204.45 408.185C203.093 407.937 201.695 408.016 200.375 408.417C199.489 408.702 198.693 409.215 198.069 409.906C197.642 410.406 197.483 410.748 197.434 410.723C197.385 410.699 197.434 410.333 197.873 409.747C198.471 408.95 199.284 408.34 200.216 407.99C201.572 407.522 203.023 407.401 204.438 407.636C206.061 407.831 207.757 408.344 209.55 408.624C213.211 409.381 216.213 407.404 218.714 407.233C219.692 407.111 220.686 407.232 221.606 407.587C221.958 407.69 222.278 407.884 222.533 408.149Z" fill="white"/>
<path d="M221.691 399.156C221.691 399.156 221.338 398.985 220.691 398.778C219.761 398.51 218.778 398.484 217.836 398.704C216.429 399.023 215.085 399.571 213.858 400.327C212.321 401.328 210.637 402.081 208.867 402.56C207.029 402.791 205.162 402.556 203.438 401.877C202.092 401.385 200.657 401.186 199.228 401.291C198.304 401.424 197.449 401.852 196.788 402.511C196.336 403.024 196.214 403.402 196.153 403.378C196.188 402.996 196.347 402.636 196.605 402.353C197.257 401.543 198.18 400.997 199.204 400.815C200.704 400.625 202.228 400.784 203.657 401.279C205.299 401.896 207.066 402.105 208.806 401.889C210.529 401.431 212.174 400.719 213.687 399.778C214.98 399.016 216.396 398.487 217.872 398.216C218.884 398.029 219.929 398.13 220.886 398.509C221.435 398.839 221.716 399.095 221.691 399.156Z" fill="white"/>
<path d="M222.655 392.42C222.655 392.518 221.068 391.908 218.506 391.127C217.018 390.671 215.483 390.384 213.93 390.273C212.05 390.129 210.164 390.469 208.452 391.261C206.646 392.14 205.096 393.36 203.498 394.202C202.08 395.005 200.478 395.425 198.849 395.422C197.775 395.41 196.705 395.295 195.652 395.08C195.261 395.038 194.878 394.935 194.518 394.775C194.925 394.746 195.335 394.766 195.738 394.836C196.783 394.955 197.835 395 198.886 394.97C200.43 394.913 201.935 394.473 203.266 393.689C204.791 392.847 206.329 391.615 208.232 390.688C210.038 389.848 212.033 389.503 214.016 389.687C215.61 389.827 217.18 390.167 218.689 390.7C219.97 391.139 220.983 391.566 221.666 391.92C222.016 392.043 222.348 392.211 222.655 392.42Z" fill="white"/>
<path d="M193.09 386.795C193.09 386.795 193.273 386.344 193.981 385.953C195.019 385.461 196.197 385.345 197.312 385.624C198.849 386.108 200.438 386.411 202.046 386.527C204.007 386.431 205.936 385.989 207.744 385.221C209.709 384.465 211.563 383.635 213.381 383.135C214.962 382.659 216.626 382.526 218.262 382.744C219.379 382.906 220.444 383.323 221.373 383.965C222.02 384.44 222.276 384.794 222.252 384.819C221.064 383.94 219.668 383.386 218.201 383.208C216.608 383.046 214.999 383.22 213.479 383.721C211.734 384.221 209.904 385.063 207.903 385.831C206.028 386.629 204.021 387.067 201.985 387.125C200.319 386.992 198.678 386.639 197.104 386.075C196.077 385.783 194.984 385.821 193.981 386.185C193.667 386.363 193.369 386.567 193.09 386.795Z" fill="white"/>
<path d="M222.534 429.282C222.534 429.282 222.339 429.611 221.729 429.794C220.867 429.993 219.964 429.894 219.166 429.513C218.113 428.918 216.943 428.56 215.738 428.464C214.273 428.684 212.871 429.212 211.626 430.014C210.257 430.79 208.73 431.244 207.16 431.344C205.882 431.413 204.603 431.239 203.39 430.831C202.572 430.572 201.798 430.189 201.096 429.696C200.608 429.355 200.376 429.111 200.4 429.074C201.402 429.605 202.447 430.05 203.524 430.404C204.826 430.77 206.187 430.874 207.53 430.711C208.872 430.548 210.169 430.12 211.345 429.452C212.666 428.6 214.164 428.061 215.725 427.878C217.026 427.987 218.281 428.406 219.386 429.099C220.1 429.48 220.912 429.637 221.716 429.55C221.995 429.481 222.269 429.392 222.534 429.282Z" fill="white"/>
<path d="M133.01 375.814C132.747 376.119 132.551 376.477 132.437 376.863C132.394 377.081 132.405 377.306 132.469 377.519C132.533 377.731 132.647 377.925 132.803 378.083C133.571 378.864 134.901 378.608 135.938 379.047C137.256 379.596 137.805 381.109 139.087 381.744C140.368 382.378 141.527 382 142.637 382.586C143.748 383.172 144.114 384.062 145.078 384.526C146.041 384.99 147.31 384.746 148.311 385.282C149.312 385.819 149.641 386.71 150.495 387.247C151.776 388.077 153.497 387.674 154.802 388.467C155.839 389.102 156.352 390.322 157.474 390.773C158.316 391.115 159.244 390.907 160.073 391.298C160.683 391.591 161.086 392.164 161.672 392.518C162.525 392.942 163.483 393.108 164.429 392.994L165.222 391.42L133.01 375.814Z" fill="#263238"/>
<path d="M161.196 332.803L147.664 377.754L165.442 390.92L188.796 344.602L161.196 332.803Z" fill="#FF725E"/>
<path d="M147.664 377.754L152.666 367.7L172.311 376.339L164.99 391.859L163.209 391.212C157.852 388.955 136.158 379.352 133.193 376.57C129.862 373.471 147.664 377.754 147.664 377.754Z" fill="#FF725E"/>
<path d="M170.578 380.512C170.265 380.61 169.928 380.61 169.614 380.512C168.754 380.276 167.971 379.817 167.345 379.182C166.515 378.425 165.795 377.315 164.807 376.339C163.716 375.303 162.313 374.655 160.817 374.496C159.219 374.228 157.632 374.277 156.18 374.142C154.877 374.08 153.599 373.756 152.422 373.191C151.618 372.811 150.922 372.237 150.397 371.519C150.043 370.994 149.958 370.653 149.994 370.641C150.663 371.571 151.563 372.312 152.605 372.788C153.769 373.263 155.009 373.523 156.266 373.557C157.681 373.654 159.267 373.557 160.951 373.862C162.577 374.049 164.094 374.775 165.258 375.924C166.283 376.998 166.954 378.108 167.699 378.852C168.253 379.478 168.947 379.963 169.724 380.268C170.273 380.463 170.578 380.451 170.578 380.512Z" fill="white"/>
<path d="M174.129 373.471C173.833 373.644 173.505 373.756 173.165 373.801C172.252 373.999 171.317 374.077 170.383 374.033C167.259 373.901 164.299 372.594 162.098 370.372C160.878 369.079 159.853 367.7 158.84 366.565C157.977 365.548 156.95 364.682 155.802 364.003C154.723 363.409 153.519 363.079 152.288 363.039C152.61 362.912 152.956 362.861 153.301 362.893C154.246 362.919 155.172 363.161 156.01 363.6C157.247 364.247 158.359 365.111 159.292 366.15C160.353 367.297 161.354 368.664 162.574 369.908C164.683 372.019 167.471 373.316 170.444 373.569C171.673 373.631 172.905 373.599 174.129 373.471Z" fill="white"/>
<path d="M177.009 367.907C176.204 366.905 175.122 366.162 173.897 365.772C172.546 365.394 171.167 365.125 169.773 364.967C168.94 364.838 168.123 364.626 167.333 364.332C166.464 363.993 165.644 363.542 164.892 362.99C163.367 361.892 162.098 360.672 160.817 359.769C159.719 358.929 158.434 358.368 157.071 358.134C156.154 357.996 155.217 358.097 154.35 358.427C153.74 358.683 153.447 358.927 153.411 358.878C153.374 358.829 153.63 358.549 154.24 358.207C155.13 357.759 156.131 357.581 157.12 357.695C158.578 357.868 159.966 358.419 161.147 359.293C162.501 360.196 163.794 361.416 165.258 362.478C168.162 364.784 171.774 364.332 174.068 365.357C175.003 365.688 175.842 366.246 176.508 366.98C176.755 367.239 176.927 367.559 177.009 367.907Z" fill="white"/>
<path d="M180.316 359.5C180.316 359.5 180.072 359.183 179.584 358.707C178.873 358.052 178.009 357.586 177.071 357.353C175.671 357.006 174.224 356.894 172.788 357.023C170.967 357.22 169.127 357.129 167.334 356.755C165.587 356.137 164.023 355.093 162.783 353.717C161.808 352.657 160.612 351.824 159.281 351.276C158.375 350.966 157.392 350.966 156.487 351.276C155.864 351.52 155.571 351.801 155.535 351.764C155.498 351.728 155.742 351.386 156.389 351.057C157.339 350.622 158.415 350.548 159.415 350.849C160.842 351.364 162.132 352.199 163.185 353.29C164.372 354.581 165.854 355.565 167.505 356.157C169.238 356.512 171.014 356.611 172.776 356.45C174.269 356.345 175.77 356.51 177.205 356.938C178.19 357.23 179.077 357.787 179.767 358.549C180.026 358.816 180.214 359.143 180.316 359.5Z" fill="white"/>
<path d="M184.207 353.948C184.122 353.948 182.987 352.728 181.084 350.922C179.975 349.843 178.747 348.893 177.423 348.092C175.804 347.122 173.965 346.58 172.079 346.518C170.078 346.518 168.138 346.872 166.332 346.908C164.706 346.983 163.088 346.638 161.634 345.908C160.683 345.411 159.78 344.827 158.937 344.163C158.34 343.699 158.035 343.418 158.059 343.382C158.421 343.526 158.762 343.719 159.072 343.955C159.954 344.532 160.875 345.046 161.829 345.493C163.229 346.14 164.769 346.426 166.307 346.322C168.052 346.261 169.968 345.847 172.091 345.883C174.084 345.945 176.025 346.535 177.716 347.591C179.06 348.431 180.29 349.44 181.376 350.593C182.328 351.569 183.036 352.399 183.512 353.033C183.988 353.668 184.244 353.948 184.207 353.948Z" fill="white"/>
<path d="M160.329 335.646C160.679 335.383 161.113 335.257 161.549 335.292C162.701 335.323 163.805 335.755 164.673 336.512C165.824 337.638 167.106 338.621 168.492 339.441C170.281 340.242 172.198 340.722 174.154 340.856C176.252 341.063 178.302 341.149 180.132 341.527C181.778 341.812 183.343 342.449 184.72 343.394C185.649 344.021 186.417 344.857 186.965 345.834C187.177 346.189 187.314 346.584 187.368 346.993C186.7 345.67 185.699 344.543 184.464 343.723C183.115 342.864 181.603 342.295 180.023 342.052C178.241 341.722 176.228 341.649 174.093 341.43C172.059 341.298 170.068 340.784 168.224 339.917C166.814 339.059 165.526 338.016 164.392 336.817C163.61 336.085 162.614 335.623 161.549 335.5C161.139 335.511 160.73 335.56 160.329 335.646Z" fill="white"/>
<path d="M167.492 386.783C167.492 386.783 167.175 386.979 166.54 386.869C165.686 386.651 164.927 386.158 164.38 385.466C163.713 384.472 162.834 383.638 161.806 383.025C160.396 382.56 158.902 382.402 157.426 382.562C155.857 382.631 154.294 382.347 152.85 381.732C151.675 381.219 150.608 380.491 149.702 379.584C149.092 378.979 148.575 378.289 148.164 377.535C147.884 376.998 147.786 376.68 147.823 376.668C148.483 377.585 149.213 378.45 150.007 379.255C151.007 380.166 152.177 380.871 153.45 381.329C154.723 381.788 156.074 381.991 157.426 381.927C158.99 381.756 160.572 381.948 162.05 382.488C163.144 383.171 164.06 384.103 164.722 385.209C165.19 385.87 165.844 386.375 166.601 386.661C167.15 386.796 167.48 386.722 167.492 386.783Z" fill="white"/>
<path d="M250.305 211.311C249.229 211.312 248.163 211.097 247.171 210.679C246.179 210.262 245.28 209.651 244.528 208.881C243.775 208.111 243.184 207.199 242.789 206.198C242.394 205.197 242.203 204.127 242.227 203.051C242.337 198.463 242.471 193.729 242.471 193.729C242.471 193.729 234.711 192.508 234.614 184.76C234.516 177.012 235.834 159.137 235.834 159.137C244.814 155.281 253.294 156.343 261.055 162.309L258.321 203.722C258.198 205.768 257.3 207.69 255.812 209.1C254.323 210.509 252.355 211.3 250.305 211.311Z" fill="#E6BBAC"/>
<path d="M238.944 172.376C239.054 172.277 239.143 172.158 239.207 172.025C239.271 171.892 239.308 171.747 239.316 171.6C239.324 171.453 239.303 171.305 239.253 171.166C239.204 171.027 239.128 170.899 239.03 170.789C238.881 170.624 238.687 170.507 238.472 170.452C238.257 170.397 238.031 170.407 237.821 170.481C237.612 170.555 237.429 170.689 237.296 170.867C237.163 171.045 237.086 171.258 237.074 171.479C237.062 171.701 237.116 171.921 237.229 172.112C237.342 172.303 237.51 172.456 237.71 172.552C237.91 172.648 238.134 172.682 238.354 172.651C238.574 172.62 238.779 172.524 238.944 172.376Z" fill="#263238"/>
<path d="M235.772 170.74C235.894 170.875 236.651 170.289 237.724 170.289C238.798 170.289 239.567 170.826 239.689 170.692C239.811 170.557 239.689 170.387 239.286 170.13C238.829 169.799 238.276 169.627 237.712 169.642C237.153 169.646 236.609 169.83 236.162 170.167C235.833 170.435 235.711 170.679 235.772 170.74Z" fill="#263238"/>
<path d="M249.402 171.46C249.215 171.579 249.068 171.75 248.978 171.952C248.888 172.153 248.86 172.377 248.897 172.595C248.934 172.813 249.034 173.015 249.185 173.176C249.337 173.338 249.532 173.45 249.747 173.501C249.962 173.551 250.188 173.537 250.395 173.46C250.602 173.383 250.782 173.246 250.912 173.068C251.042 172.889 251.116 172.676 251.125 172.455C251.134 172.234 251.078 172.015 250.964 171.826C250.805 171.571 250.551 171.389 250.258 171.32C249.966 171.251 249.657 171.302 249.402 171.46Z" fill="#263238"/>
<path d="M247.412 171.68C247.535 171.814 248.291 171.228 249.365 171.228C250.439 171.228 251.207 171.777 251.329 171.631C251.451 171.485 251.268 171.338 250.927 171.07C250.47 170.738 249.917 170.567 249.353 170.582C248.794 170.589 248.251 170.772 247.803 171.106C247.461 171.375 247.351 171.619 247.412 171.68Z" fill="#263238"/>
<path d="M243.093 180.502C242.546 180.278 241.963 180.154 241.372 180.136C241.092 180.136 240.872 180.038 240.848 179.892C240.843 179.611 240.91 179.334 241.043 179.086L241.897 176.914C242.695 175.077 243.308 173.164 243.727 171.204C242.732 172.952 241.915 174.796 241.287 176.707C241.006 177.464 240.75 178.183 240.482 178.891C240.306 179.251 240.254 179.658 240.335 180.05C240.373 180.158 240.436 180.255 240.519 180.333C240.601 180.412 240.702 180.47 240.811 180.502C240.969 180.549 241.134 180.569 241.299 180.563C241.896 180.647 242.503 180.626 243.093 180.502Z" fill="#263238"/>
<path d="M246.571 181.686C247.681 181.015 243.508 183.309 241.324 183.211C241.682 183.779 242.222 184.21 242.856 184.431C243.49 184.653 244.18 184.653 244.814 184.431C247.144 183.528 246.571 181.686 246.571 181.686Z" fill="white"/>
<path d="M242.459 193.619C246.045 193.68 249.569 192.678 252.586 190.739C252.586 190.739 250.146 196.327 242.446 195.62L242.459 193.619Z" fill="#D88876"/>
<path d="M258.943 194.949C258.943 194.949 255.795 203.185 249.182 202.27C247.406 202.121 245.741 201.344 244.487 200.078C243.232 198.812 242.47 197.141 242.337 195.364C242.337 195.364 240.885 195.364 240.629 197.609C240.372 199.854 240.629 207.59 240.629 207.59C240.629 207.59 241.849 214.301 249.792 213.849C257.735 213.398 259.956 207.614 260.029 207.138C260.237 205.833 261.091 193.216 258.943 194.949Z" fill="#FF725E"/>
<path d="M258.943 194.949C258.943 194.949 256.331 226.429 247.851 243.487C239.371 260.545 238.188 261.948 238.188 261.948L247.851 267.939C247.851 267.939 257.344 249.954 261.09 239.302C265.763 226.002 261.786 193.826 258.943 194.949Z" fill="#FF725E"/>
<path d="M258.894 194.107C258.962 194.991 258.925 195.879 258.784 196.754C258.638 198.377 258.394 200.598 258.089 203.063C257.784 205.527 257.467 207.736 257.198 209.347C257.117 210.227 256.933 211.096 256.649 211.933C256.581 211.054 256.618 210.169 256.759 209.298C256.905 207.675 257.149 205.442 257.454 202.977C257.76 200.513 258.077 198.292 258.345 196.681C258.423 195.804 258.607 194.939 258.894 194.107Z" fill="#263238"/>
<path d="M240.518 207.76C240.291 207.109 240.175 206.424 240.177 205.735C240.011 204.089 239.97 202.433 240.055 200.781C240.102 199.867 240.212 198.958 240.384 198.06C240.492 197.302 240.727 196.568 241.08 195.888C241.346 195.402 241.78 195.03 242.3 194.839C242.666 194.705 242.873 194.753 242.873 194.839C242.286 195.107 241.808 195.567 241.519 196.144C241.256 196.806 241.084 197.499 241.007 198.206C240.885 199.024 240.787 199.915 240.738 200.866C240.518 204.624 240.726 207.748 240.518 207.76Z" fill="#263238"/>
<path d="M264.421 161.016C263.919 159.983 263.109 159.13 262.103 158.576C259.867 157.132 257.417 156.053 254.843 155.379C253.232 154.964 251.28 154.805 250.108 155.952C250.123 156.027 250.144 156.1 250.169 156.172L235.759 156.965L230.293 165.213V176.195C231.709 175.763 233.009 175.015 234.094 174.006C235.178 172.998 236.019 171.756 236.552 170.375C237.407 168.105 237.626 165.213 239.774 164.066C241.47 163.163 243.52 163.859 245.435 163.908C246.706 163.901 247.958 163.601 249.095 163.032C250.231 162.462 251.221 161.639 251.988 160.625C253.27 162.832 255.024 164.727 257.124 166.177C257.666 166.501 258.148 166.913 258.552 167.397C258.937 168.093 259.164 168.865 259.214 169.658C259.265 170.452 259.139 171.246 258.845 171.985C255.514 183.76 259.504 193.594 262.261 194.924C262.713 189.702 264.116 169.02 264.567 163.798C264.73 162.871 264.68 161.92 264.421 161.016Z" fill="#263238"/>
<path d="M250 156.062L250.11 155.964C250.11 155.867 250.049 155.757 250.024 155.647L250 156.062Z" fill="#455A64"/>
<path d="M284.335 234.482C282.004 233.823 279.613 236.08 278.917 237.105L276.831 238.814C275.564 240.139 274.166 241.333 272.658 242.377C271.922 242.923 271.096 243.336 270.217 243.597C269.142 243.961 268.021 244.17 266.886 244.219C266.668 244.188 266.446 244.226 266.25 244.328C266.055 244.43 265.897 244.591 265.798 244.788C265.7 244.985 265.666 245.209 265.701 245.426C265.737 245.644 265.84 245.845 265.996 246C266.728 246.61 269.595 246.842 272.731 245.61C275.867 244.378 273.256 248.99 272.341 250.686C271.425 252.382 268.839 257.763 269.144 258.458C269.583 259.471 270.754 259.19 271.584 257.482C272.414 255.774 275.44 250.796 276.318 251.381C277.197 251.967 272.389 260.472 272.389 260.472C272.389 260.472 271.072 262.131 272.06 262.778C273.841 263.998 278.258 254.444 278.649 253.541C278.929 252.894 279.869 253.443 279.564 254.102C279.259 254.761 274.647 262.436 276.428 263.656C277.807 264.571 280.089 255.884 281.98 254.81C283.871 253.736 279.54 261.216 280.906 262.046C281.419 262.351 281.833 262.509 283.676 257.86C285.518 253.212 288.557 239.338 288.557 239.338C288.63 236.813 286.934 235.202 284.335 234.482Z" fill="#E6BBAC"/>
</svg>
